Georama-Regular.ufo
<glyph name="exclam" format="2">
  <advance width="225.49200000000002"/>
  <unicode hex="0021"/>
  <outline>
    <contour>
      <point x="76.39600000000002" y="262.45" type="line"/>
      <point x="149.59199999999998" y="262.45" type="line"/>
      <point x="155.048" y="740.0" type="line"/>
      <point x="71.498" y="740.0" type="line"/>
    </contour>
    <contour>
      <point x="64.748" y="44.403999999999996" type="curve" smooth="yes"/>
      <point x="64.748" y="9.556"/>
      <point x="76.50200000000001" y="-3.224"/>
      <point x="112.74600000000001" y="-3.224" type="curve" smooth="yes"/>
      <point x="149.68" y="-3.224"/>
      <point x="160.744" y="9.556"/>
      <point x="160.744" y="44.403999999999996" type="curve" smooth="yes"/>
      <point x="160.744" y="79.56200000000001"/>
      <point x="149.68" y="92.34200000000001"/>
      <point x="112.74600000000001" y="92.34200000000001" type="curve" smooth="yes"/>
      <point x="75.81200000000001" y="92.34200000000001"/>
      <point x="64.748" y="79.56200000000001"/>
    </contour>
  </outline>
</glyph>
<glyph name="numbersign" format="2">
  <advance width="597.204"/>
  <unicode hex="0023"/>
  <outline>
    <contour>
      <point x="82.36800000000001" y="455.24800000000005" type="line"/>
      <point x="174.324" y="455.24800000000005" type="line"/>
      <point x="136.312" y="239.358" type="line"/>
      <point x="49.546" y="239.358" type="line"/>
      <point x="49.546" y="176.448" type="line"/>
      <point x="127.62799999999999" y="176.448" type="line"/>
      <point x="98.44200000000001" y="0.0" type="line"/>
      <point x="173.932" y="0.0" type="line"/>
      <point x="203.118" y="176.448" type="line"/>
      <point x="340.244" y="176.448" type="line"/>
      <point x="311.058" y="0.0" type="line"/>
      <point x="386.54799999999994" y="0.0" type="line"/>
      <point x="415.73400000000004" y="176.448" type="line"/>
      <point x="514.96" y="176.448" type="line"/>
      <point x="514.96" y="239.358" type="line"/>
      <point x="424.41800000000006" y="239.358" type="line"/>
      <point x="462.43" y="455.24800000000005" type="line"/>
      <point x="547.7819999999999" y="455.24800000000005" type="line"/>
      <point x="547.7819999999999" y="518.282" type="line"/>
      <point x="471.128" y="518.282" type="line"/>
      <point x="502.032" y="700.0" type="line"/>
      <point x="426.54200000000003" y="700.0" type="line"/>
      <point x="395.63800000000003" y="518.282" type="line"/>
      <point x="258.512" y="518.282" type="line"/>
      <point x="289.416" y="700.0" type="line"/>
      <point x="213.926" y="700.0" type="line"/>
      <point x="183.022" y="518.282" type="line"/>
      <point x="82.36800000000001" y="518.282" type="line"/>
    </contour>
    <contour>
      <point x="249.814" y="455.24800000000005" type="line"/>
      <point x="386.94" y="455.24800000000005" type="line"/>
      <point x="348.928" y="239.358" type="line"/>
      <point x="211.802" y="239.358" type="line"/>
    </contour>
  </outline>
</glyph>
<glyph name="dollar" format="2">
  <advance width="597.204"/>
  <unicode hex="0024"/>
  <outline>
    <contour>
      <point x="282.146" y="-10.0" type="curve" smooth="yes"/>
      <point x="442.254" y="-11.488000000000001"/>
      <point x="539.846" y="44.580000000000005"/>
      <point x="539.846" y="168.196" type="curve" smooth="yes"/>
      <point x="539.846" y="281.36"/>
      <point x="463.75600000000003" y="335.978"/>
      <point x="342.914" y="381.48199999999997" type="curve" smooth="yes"/>
      <point x="230.994" y="423.712"/>
      <point x="164.918" y="462.36199999999997"/>
      <point x="164.918" y="537.938" type="curve" smooth="yes"/>
      <point x="164.918" y="602.4079999999999"/>
      <point x="219.842" y="637.88"/>
      <point x="318.73800000000006" y="637.88" type="curve" smooth="yes"/>
      <point x="374.488" y="637.88"/>
      <point x="443.406" y="626.6039999999999"/>
      <point x="493.3" y="610.15" type="curve"/>
      <point x="510.2960000000001" y="679.148" type="line"/>
      <point x="457.32200000000006" y="697.45"/>
      <point x="381.062" y="710.0"/>
      <point x="314.18" y="710.0" type="curve" smooth="yes"/>
      <point x="167.414" y="709.4480000000001"/>
      <point x="80.844" y="647.5640000000001"/>
      <point x="80.844" y="533.7220000000001" type="curve" smooth="yes"/>
      <point x="80.844" y="422.60999999999996"/>
      <point x="153.446" y="365.556"/>
      <point x="266.56600000000003" y="320.01" type="curve" smooth="yes"/>
      <point x="384.1619999999999" y="274.824"/>
      <point x="455.92400000000004" y="236.948"/>
      <point x="455.92400000000004" y="161.932" type="curve" smooth="yes"/>
      <point x="455.92400000000004" y="95.71600000000001"/>
      <point x="401.90600000000006" y="60.425999999999995"/>
      <point x="293.58399999999995" y="60.425999999999995" type="curve" smooth="yes"/>
      <point x="228.886" y="60.425999999999995"/>
      <point x="142.074" y="75.44599999999998"/>
      <point x="74.498" y="98.77400000000002" type="curve"/>
      <point x="57.606" y="29.754" type="line"/>
      <point x="120.588" y="6.708000000000001"/>
      <point x="211.274" y="-9.504000000000001"/>
    </contour>
    <contour>
      <point x="274.514" y="-105.0" type="line"/>
      <point x="343.308" y="-105.0" type="line"/>
      <point x="343.308" y="5.1099999999999985" type="line"/>
      <point x="274.514" y="0.06399999999999995" type="line"/>
    </contour>
    <contour>
      <point x="274.514" y="696.484" type="line"/>
      <point x="343.308" y="700.536" type="line"/>
      <point x="343.308" y="804.628" type="line"/>
      <point x="274.514" y="804.628" type="line"/>
    </contour>
  </outline>
</glyph>
<glyph name="ampersand" format="2">
  <advance width="655.916"/>
  <unicode hex="0026"/>
  <outline>
    <contour>
      <point x="558.404" y="-8.735999999999999" type="line"/>
      <point x="652.688" y="0.22800000000000065" type="line"/>
      <point x="250.088" y="414.23600000000005" type="line" smooth="yes"/>
      <point x="207.504" y="460.352"/>
      <point x="190.996" y="499.43199999999996"/>
      <point x="190.996" y="539.8160000000001" type="curve" smooth="yes"/>
      <point x="190.996" y="605.3439999999999"/>
      <point x="230.128" y="641.64"/>
      <point x="309.404" y="641.64" type="curve" smooth="yes"/>
      <point x="382.692" y="641.64"/>
      <point x="419.52000000000004" y="606.8119999999999"/>
      <point x="419.52000000000004" y="543.728" type="curve" smooth="yes"/>
      <point x="419.52000000000004" y="495.292"/>
      <point x="402.012" y="461.68"/>
      <point x="360.82800000000003" y="437.856" type="curve"/>
      <point x="395.46399999999994" y="397.348" type="line"/>
      <point x="467.068" y="433.068"/>
      <point x="495.32" y="488.344"/>
      <point x="495.32" y="557.5080000000002" type="curve" smooth="yes"/>
      <point x="495.32" y="656.9239999999999"/>
      <point x="431.424" y="710.0"/>
      <point x="306.924" y="710.0" type="curve" smooth="yes"/>
      <point x="168.54" y="710.0"/>
      <point x="105.276" y="645.2319999999999"/>
      <point x="105.276" y="538.576" type="curve" smooth="yes"/>
      <point x="105.276" y="483.184"/>
      <point x="125.94800000000001" y="430.59999999999997"/>
      <point x="173.872" y="376.29600000000005" type="curve" smooth="yes"/>
    </contour>
    <contour>
      <point x="277.236" y="-10.0" type="curve" smooth="yes"/>
      <point x="363.252" y="-10.0"/>
      <point x="434.69599999999997" y="20.408000000000005"/>
      <point x="486.50399999999996" y="78.18400000000001" type="curve"/>
      <point x="444.44" y="129.37199999999999" type="line"/>
      <point x="409.4479999999999" y="82.58"/>
      <point x="360.25199999999995" y="55.26"/>
      <point x="285.91599999999994" y="55.26" type="curve" smooth="yes"/>
      <point x="181.64" y="55.26"/>
      <point x="117.17999999999999" y="112.01200000000001"/>
      <point x="117.17999999999999" y="197.48799999999997" type="curve" smooth="yes"/>
      <point x="117.17999999999999" y="268.63599999999997"/>
      <point x="148.804" y="313.3880000000001"/>
      <point x="214.26799999999997" y="351.98800000000006" type="curve"/>
      <point x="173.672" y="399.24" type="line"/>
      <point x="80.19200000000001" y="352.72"/>
      <point x="35.800000000000004" y="286.176"/>
      <point x="35.800000000000004" y="189.42799999999997" type="curve" smooth="yes"/>
      <point x="35.800000000000004" y="69.252"/>
      <point x="125.01200000000001" y="-10.0"/>
    </contour>
    <contour>
      <point x="532.7919999999999" y="110.668" type="line"/>
      <point x="572.436" y="166.65599999999998"/>
      <point x="594.536" y="236.39200000000002"/>
      <point x="594.536" y="314.204" type="curve" smooth="yes"/>
      <point x="594.536" y="336.66"/>
      <point x="592.4599999999999" y="353.34400000000005"/>
      <point x="588.6999999999999" y="371.95199999999994" type="curve"/>
      <point x="518.86" y="368.96400000000006" type="line"/>
      <point x="522.62" y="351.596"/>
      <point x="523.924" y="336.68399999999997"/>
      <point x="523.304" y="319.164" type="curve" smooth="yes"/>
      <point x="522.684" y="259.61199999999997"/>
      <point x="508.708" y="208.74400000000003"/>
      <point x="482.44" y="170.752" type="curve"/>
    </contour>
  </outline>
</glyph>
<glyph name="quotesingle" format="2">
  <advance width="173.338"/>
  <unicode hex="0027"/>
  <outline>
    <contour>
      <point x="54.040000000000006" y="427.0" type="line"/>
      <point x="118.74" y="427.0" type="line"/>
      <point x="125.10400000000001" y="700.0" type="line"/>
      <point x="48.234" y="700.0" type="line"/>
    </contour>
  </outline>
</glyph>
<glyph name="parenleft" format="2">
  <advance width="305.864"/>
  <unicode hex="0028"/>
  <outline>
    <contour>
      <point x="71.9" y="265.0" type="curve" smooth="yes"/>
      <point x="71.9" y="3.8640000000000008"/>
      <point x="139.906" y="-191.48000000000002"/>
      <point x="288.21000000000004" y="-220.414" type="curve"/>
      <point x="288.21000000000004" y="-154.324" type="line"/>
      <point x="189.32999999999998" y="-119.304"/>
      <point x="142.576" y="26.238"/>
      <point x="142.576" y="265.0" type="curve" smooth="yes"/>
      <point x="142.576" y="503.762"/>
      <point x="189.32999999999998" y="649.3040000000001"/>
      <point x="288.21000000000004" y="684.3240000000001" type="curve"/>
      <point x="288.21000000000004" y="750.4140000000001" type="line"/>
      <point x="139.906" y="721.48"/>
      <point x="71.9" y="526.136"/>
    </contour>
  </outline>
</glyph>
<glyph name="parenright" format="2">
  <advance width="305.864"/>
  <unicode hex="0029"/>
  <outline>
    <contour>
      <point x="17.654" y="-154.324" type="curve"/>
      <point x="17.654" y="-220.414" type="line"/>
      <point x="165.95800000000003" y="-191.48000000000002"/>
      <point x="233.96400000000003" y="3.8640000000000008"/>
      <point x="233.96400000000003" y="265.0" type="curve" smooth="yes"/>
      <point x="233.96400000000003" y="526.136"/>
      <point x="165.95800000000003" y="721.48"/>
      <point x="17.654" y="750.4140000000001" type="curve"/>
      <point x="17.654" y="684.3240000000001" type="line"/>
      <point x="116.534" y="649.3040000000001"/>
      <point x="163.288" y="503.762"/>
      <point x="163.288" y="265.0" type="curve" smooth="yes"/>
      <point x="163.288" y="26.238"/>
      <point x="116.534" y="-119.304"/>
    </contour>
  </outline>
</glyph>
<glyph name="asterisk" format="2">
  <advance width="329.204"/>
  <unicode hex="002A"/>
  <outline>
    <contour>
      <point x="86.59200000000001" y="365.184" type="line"/>
      <point x="164.878" y="473.276" type="line"/>
      <point x="242.06000000000006" y="364.908" type="line"/>
      <point x="275.914" y="388.27199999999993" type="line"/>
      <point x="204.938" y="504.14599999999996" type="line"/>
      <point x="322.764" y="553.8100000000001" type="line"/>
      <point x="309.372" y="592.288" type="line"/>
      <point x="190.212" y="552.7460000000001" type="line"/>
      <point x="186.30599999999998" y="690.0459999999999" type="line"/>
      <point x="143.45000000000002" y="690.0459999999999" type="line"/>
      <point x="139.544" y="552.7460000000001" type="line"/>
      <point x="19.832" y="592.288" type="line"/>
      <point x="6.44" y="553.8100000000001" type="line"/>
      <point x="124.818" y="504.14599999999996" type="line"/>
      <point x="52.461999999999996" y="388.82399999999996" type="line"/>
    </contour>
  </outline>
</glyph>
<glyph name="plus" format="2">
  <advance width="482.828"/>
  <unicode hex="002B"/>
  <outline>
    <contour>
      <point x="204.382" y="90.786" type="line"/>
      <point x="278.322" y="90.786" type="line"/>
      <point x="278.322" y="265.98" type="line"/>
      <point x="434.04200000000003" y="265.98" type="line"/>
      <point x="434.04200000000003" y="334.96000000000004" type="line"/>
      <point x="278.322" y="334.96000000000004" type="line"/>
      <point x="278.322" y="510.03" type="line"/>
      <point x="204.382" y="510.03" type="line"/>
      <point x="204.382" y="334.96000000000004" type="line"/>
      <point x="48.786" y="334.96000000000004" type="line"/>
      <point x="48.786" y="265.98" type="line"/>
      <point x="204.382" y="265.98" type="line"/>
    </contour>
  </outline>
</glyph>
<glyph name="comma" format="2">
  <advance width="183.816"/>
  <unicode hex="002C"/>
  <outline>
    <contour>
      <point x="52.858" y="56.214000000000006" type="line"/>
      <point x="59.879999999999995" y="32.06"/>
      <point x="63.316" y="7.289999999999999"/>
      <point x="63.316" y="-11.242" type="curve" smooth="yes"/>
      <point x="63.316" y="-70.96"/>
      <point x="41.686" y="-137.14"/>
      <point x="-4.931999999999996" y="-176.514" type="curve"/>
      <point x="54.964" y="-197.37800000000001" type="line"/>
      <point x="116.47999999999999" y="-150.552"/>
      <point x="142.588" y="-75.87"/>
      <point x="142.588" y="-10.628" type="curve" smooth="yes"/>
      <point x="142.588" y="15.872"/>
      <point x="138.078" y="40.354"/>
      <point x="130.22199999999998" y="61.906000000000006" type="curve"/>
    </contour>
  </outline>
</glyph>
<glyph name="hyphen" format="2">
  <advance width="316.098"/>
  <unicode hex="002D"/>
  <outline>
    <contour>
      <point x="35.522000000000006" y="248.49" type="line"/>
      <point x="280.576" y="248.49" type="line"/>
      <point x="280.576" y="320.446" type="line"/>
      <point x="35.522000000000006" y="320.446" type="line"/>
    </contour>
  </outline>
</glyph>
<glyph name="period" format="2">
  <advance width="185.8"/>
  <unicode hex="002E"/>
  <outline>
    <contour>
      <point x="45.040000000000006" y="44.961999999999996" type="curve" smooth="yes"/>
      <point x="45.040000000000006" y="10.113999999999999"/>
      <point x="56.794000000000004" y="-2.666"/>
      <point x="93.038" y="-2.666" type="curve" smooth="yes"/>
      <point x="129.972" y="-2.666"/>
      <point x="141.036" y="10.113999999999999"/>
      <point x="141.036" y="44.961999999999996" type="curve" smooth="yes"/>
      <point x="141.036" y="80.12"/>
      <point x="129.972" y="92.9"/>
      <point x="93.038" y="92.9" type="curve" smooth="yes"/>
      <point x="56.104000000000006" y="92.9"/>
      <point x="45.040000000000006" y="80.12"/>
    </contour>
  </outline>
</glyph>
<glyph name="slash" format="2">
  <advance width="353.172"/>
  <unicode hex="002F"/>
  <outline>
    <contour>
      <point x="2.9680000000000004" y="-210.0" type="line"/>
      <point x="72.52" y="-210.0" type="line"/>
      <point x="350.204" y="740.0" type="line"/>
      <point x="280.466" y="740.0" type="line"/>
    </contour>
  </outline>
</glyph>
<glyph name="zero" format="2">
  <advance width="597.204"/>
  <unicode hex="0030"/>
  <outline>
    <contour>
      <point x="28.712000000000003" y="350.0" type="curve" smooth="yes"/>
      <point x="28.712000000000003" y="72.204"/>
      <point x="140.542" y="-10.0"/>
      <point x="298.602" y="-10.0" type="curve" smooth="yes"/>
      <point x="456.35200000000003" y="-10.0"/>
      <point x="568.4920000000001" y="72.948"/>
      <point x="568.4920000000001" y="350.0" type="curve" smooth="yes"/>
      <point x="568.4920000000001" y="627.6519999999999"/>
      <point x="459.14200000000005" y="710.0"/>
      <point x="298.602" y="710.0" type="curve" smooth="yes"/>
      <point x="139.98399999999998" y="710.0"/>
      <point x="28.712000000000003" y="629.14"/>
    </contour>
    <contour>
      <point x="114.618" y="347.58200000000005" type="curve" smooth="yes"/>
      <point x="114.618" y="583.938"/>
      <point x="194.23399999999998" y="641.02"/>
      <point x="298.602" y="641.02" type="curve" smooth="yes"/>
      <point x="403.218" y="641.02"/>
      <point x="482.83400000000006" y="584.1239999999999"/>
      <point x="482.83400000000006" y="347.58200000000005" type="curve" smooth="yes"/>
      <point x="482.83400000000006" y="117.592"/>
      <point x="403.77600000000007" y="58.98"/>
      <point x="298.602" y="58.98" type="curve" smooth="yes"/>
      <point x="193.676" y="58.98"/>
      <point x="114.618" y="117.40599999999999"/>
    </contour>
  </outline>
</glyph>
<glyph name="one" format="2">
  <advance width="597.204"/>
  <unicode hex="0031"/>
  <outline>
    <contour>
      <point x="64.228" y="0.0" type="line"/>
      <point x="566.962" y="0.0" type="line"/>
      <point x="566.962" y="69.6" type="line"/>
      <point x="376.242" y="69.6" type="line"/>
      <point x="376.242" y="702.76" type="line"/>
      <point x="332.56000000000006" y="702.76" type="line"/>
      <point x="50.7" y="566.4480000000001" type="line"/>
      <point x="71.702" y="495.85400000000004" type="line"/>
      <point x="291.514" y="604.862" type="line"/>
      <point x="291.514" y="69.6" type="line"/>
      <point x="64.228" y="69.6" type="line"/>
    </contour>
  </outline>
</glyph>
<glyph name="two" format="2">
  <advance width="598.1"/>
  <unicode hex="0032"/>
  <outline>
    <contour>
      <point x="54.620000000000005" y="59.160000000000004" type="curve"/>
      <point x="58.38" y="0.0" type="line"/>
      <point x="552.38" y="0.0" type="line"/>
      <point x="552.38" y="70.22" type="line"/>
      <point x="174.27999999999997" y="70.22" type="line"/>
      <point x="443.44" y="312.52000000000004"/>
      <point x="488.12" y="396.14"/>
      <point x="488.12" y="504.22" type="curve" smooth="yes"/>
      <point x="488.12" y="632.5"/>
      <point x="409.2" y="710.0"/>
      <point x="274.12" y="710.0" type="curve" smooth="yes"/>
      <point x="198.44" y="710.0"/>
      <point x="121.9" y="688.28"/>
      <point x="62.7" y="647.6600000000001" type="curve"/>
      <point x="91.06" y="577.2399999999999" type="line"/>
      <point x="143.92000000000002" y="610.76"/>
      <point x="201.2" y="627.1400000000001"/>
      <point x="256.14" y="627.1400000000001" type="curve" smooth="yes"/>
      <point x="344.74" y="627.1400000000001"/>
      <point x="397.19999999999993" y="581.1999999999999"/>
      <point x="397.19999999999993" y="490.09999999999997" type="curve" smooth="yes"/>
      <point x="397.19999999999993" y="391.6"/>
      <point x="340.74" y="310.7"/>
    </contour>
  </outline>
</glyph>
<glyph name="three" format="2">
  <advance width="598.1"/>
  <unicode hex="0033"/>
  <outline>
    <contour>
      <point x="28.2" y="50.03999999999999" type="line"/>
      <point x="97.78" y="8.519999999999998"/>
      <point x="165.88" y="-10.0"/>
      <point x="265.46000000000004" y="-10.0" type="curve" smooth="yes"/>
      <point x="436.8999999999999" y="-10.0"/>
      <point x="539.48" y="69.0"/>
      <point x="539.48" y="204.23999999999998" type="curve" smooth="yes"/>
      <point x="539.48" y="290.65999999999997"/>
      <point x="489.5799999999999" y="352.56"/>
      <point x="395.88" y="370.0" type="curve"/>
      <point x="467.78000000000003" y="393.34"/>
      <point x="507.91999999999996" y="451.1"/>
      <point x="507.91999999999996" y="529.52" type="curve" smooth="yes"/>
      <point x="507.91999999999996" y="641.38"/>
      <point x="421.08" y="710.0"/>
      <point x="274.69999999999993" y="710.0" type="curve" smooth="yes"/>
      <point x="189.96" y="710.0"/>
      <point x="114.14" y="692.9"/>
      <point x="56.9" y="663.08" type="curve"/>
      <point x="78.92" y="597.24" type="line"/>
      <point x="138.25999999999996" y="623.44"/>
      <point x="200.4" y="634.82"/>
      <point x="260.44" y="634.82" type="curve" smooth="yes"/>
      <point x="366.16" y="634.82"/>
      <point x="424.05999999999995" y="588.46"/>
      <point x="424.05999999999995" y="513.4" type="curve" smooth="yes"/>
      <point x="424.05999999999995" y="441.1"/>
      <point x="374.98" y="395.12"/>
      <point x="284.52" y="395.12" type="curve" smooth="yes"/>
      <point x="163.54" y="395.12" type="line"/>
      <point x="163.54" y="330.47999999999996" type="line"/>
      <point x="272.28000000000003" y="330.47999999999996" type="line" smooth="yes"/>
      <point x="390.58" y="330.47999999999996"/>
      <point x="453.75999999999993" y="292.02"/>
      <point x="453.75999999999993" y="209.2" type="curve" smooth="yes"/>
      <point x="453.75999999999993" y="115.48"/>
      <point x="383.59999999999997" y="62.07999999999999"/>
      <point x="258.64000000000004" y="62.07999999999999" type="curve" smooth="yes"/>
      <point x="175.83999999999997" y="62.07999999999999"/>
      <point x="113.74000000000001" y="78.6"/>
      <point x="54.46" y="111.16000000000001" type="curve"/>
    </contour>
  </outline>
</glyph>
<glyph name="four" format="2">
  <advance width="598.1"/>
  <unicode hex="0034"/>
  <outline>
    <contour>
      <point x="25.42" y="162.17999999999998" type="line"/>
      <point x="371.34000000000003" y="162.17999999999998" type="line"/>
      <point x="371.34000000000003" y="0.0" type="line"/>
      <point x="460.16" y="0.0" type="line"/>
      <point x="460.16" y="162.17999999999998" type="line"/>
      <point x="574.1399999999999" y="162.17999999999998" type="line"/>
      <point x="574.1399999999999" y="230.54" type="line"/>
      <point x="460.16" y="230.54" type="line"/>
      <point x="460.16" y="699.62" type="line"/>
      <point x="386.26" y="704.14" type="line"/>
      <point x="21.900000000000002" y="225.68" type="line"/>
    </contour>
    <contour>
      <point x="104.22" y="230.54" type="line"/>
      <point x="373.2" y="581.9200000000001" type="line"/>
      <point x="373.2" y="230.54" type="line"/>
    </contour>
  </outline>
</glyph>
<glyph name="five" format="2">
  <advance width="597.948"/>
  <unicode hex="0035"/>
  <outline>
    <contour>
      <point x="38.28000000000001" y="47.308" type="line"/>
      <point x="104.2" y="10.040000000000001"/>
      <point x="168.008" y="-9.848"/>
      <point x="267.972" y="-9.848" type="curve" smooth="yes"/>
      <point x="440.212" y="-9.848"/>
      <point x="546.316" y="66.91200000000002"/>
      <point x="546.316" y="213.92" type="curve" smooth="yes"/>
      <point x="546.316" y="346.892"/>
      <point x="472.968" y="408.348"/>
      <point x="325.96400000000006" y="408.34800000000007" type="curve" smooth="yes"/>
      <point x="159.064" y="408.34800000000007" type="line"/>
      <point x="181.864" y="624.8199999999999" type="line"/>
      <point x="508.468" y="624.8199999999999" type="line"/>
      <point x="508.468" y="700.0" type="line"/>
      <point x="116.82000000000001" y="700.0" type="line"/>
      <point x="78.62" y="352.848" type="line"/>
      <point x="88.62" y="341.84800000000007" type="line"/>
      <point x="289.356" y="341.84800000000007" type="line" smooth="yes"/>
      <point x="414.176" y="341.84800000000007"/>
      <point x="459.97600000000006" y="299.324"/>
      <point x="459.97600000000006" y="211.44" type="curve" smooth="yes"/>
      <point x="459.97600000000006" y="117.66799999999999"/>
      <point x="398.44000000000005" y="64.71199999999999"/>
      <point x="262.392" y="64.71199999999999" type="curve" smooth="yes"/>
      <point x="169.464" y="64.71199999999999"/>
      <point x="117.61600000000001" y="85.056"/>
      <point x="65.148" y="112.30000000000001" type="curve"/>
    </contour>
  </outline>
</glyph>
<glyph name="six" format="2">
  <advance width="597.948"/>
  <unicode hex="0036"/>
  <outline>
    <contour>
      <point x="308.148" y="-10.0" type="curve" smooth="yes"/>
      <point x="470.824" y="-10.0"/>
      <point x="559.7600000000001" y="73.608"/>
      <point x="559.7600000000001" y="220.14799999999997" type="curve" smooth="yes"/>
      <point x="559.7600000000001" y="353.16"/>
      <point x="480.556" y="428.72800000000007"/>
      <point x="342.0640000000001" y="428.72800000000007" type="curve" smooth="yes"/>
      <point x="248.53999999999996" y="428.72800000000007"/>
      <point x="156.368" y="391.96400000000006"/>
      <point x="108.14" y="337.35200000000003" type="curve"/>
      <point x="113.38" y="270.356" type="line"/>
      <point x="158.748" y="325.376"/>
      <point x="236.228" y="363.69599999999997"/>
      <point x="316.41599999999994" y="363.69599999999997" type="curve" smooth="yes"/>
      <point x="416.248" y="363.69599999999997"/>
      <point x="477.76" y="311.79200000000003"/>
      <point x="477.76" y="217.604" type="curve" smooth="yes"/>
      <point x="477.76" y="116.772"/>
      <point x="415.968" y="59.14399999999999"/>
      <point x="312.26" y="59.14399999999999" type="curve" smooth="yes"/>
      <point x="188.356" y="59.14399999999999"/>
      <point x="120.11200000000002" y="133.67200000000005"/>
      <point x="120.11200000000002" y="340.04800000000006" type="curve" smooth="yes"/>
      <point x="120.11200000000002" y="540.9"/>
      <point x="186.64" y="637.7560000000001"/>
      <point x="342.23999999999995" y="637.7560000000001" type="curve" smooth="yes"/>
      <point x="403.90000000000003" y="637.7560000000001"/>
      <point x="458.116" y="625.0720000000001"/>
      <point x="518.9520000000001" y="606.1600000000001" type="curve"/>
      <point x="541.1239999999999" y="673.152" type="line"/>
      <point x="480.92" y="696.8480000000001"/>
      <point x="409.836" y="710.0"/>
      <point x="332.15600000000006" y="710.0" type="curve" smooth="yes"/>
      <point x="135.2" y="710.0"/>
      <point x="33.151999999999994" y="591.864"/>
      <point x="33.151999999999994" y="332.97600000000006" type="curve" smooth="yes"/>
      <point x="33.151999999999994" y="92.02399999999999"/>
      <point x="127.79199999999999" y="-10.0"/>
    </contour>
  </outline>
</glyph>
<glyph name="seven" format="2">
  <advance width="597.948"/>
  <unicode hex="0037"/>
  <outline>
    <contour>
      <point x="199.05599999999998" y="0.0" type="curve"/>
      <point x="283.53599999999994" y="0.0" type="line"/>
      <point x="285.004" y="130.16799999999998"/>
      <point x="317.38399999999996" y="230.956"/>
      <point x="385.636" y="353.928" type="curve" smooth="yes"/>
      <point x="546.9599999999999" y="642.7000000000002" type="line"/>
      <point x="546.9599999999999" y="700.0" type="line"/>
      <point x="48.80800000000001" y="700.0" type="line"/>
      <point x="48.80800000000001" y="619.8599999999999" type="line"/>
      <point x="446.244" y="619.8599999999999" type="line"/>
      <point x="317.60400000000004" y="395.428" type="line" smooth="yes"/>
      <point x="228.60000000000002" y="239.888"/>
      <point x="199.05599999999998" y="137.584"/>
    </contour>
  </outline>
</glyph>
<glyph name="eight" format="2">
  <advance width="598.1"/>
  <unicode hex="0038"/>
  <outline>
    <contour>
      <point x="355.26000000000005" y="377.5" type="curve"/>
      <point x="414.32" y="352.14" type="line"/>
      <point x="510.78" y="402.24"/>
      <point x="548.1999999999999" y="464.48"/>
      <point x="548.1999999999999" y="537.28" type="curve" smooth="yes"/>
      <point x="548.1999999999999" y="648.8"/>
      <point x="462.90000000000003" y="710.0"/>
      <point x="304.59999999999997" y="710.0" type="curve" smooth="yes"/>
      <point x="146.06" y="710.0"/>
      <point x="55.34" y="645.66"/>
      <point x="55.34" y="530.36" type="curve" smooth="yes"/>
      <point x="55.34" y="272.94"/>
      <point x="485.9" y="387.68"/>
      <point x="485.9" y="179.34" type="curve" smooth="yes"/>
      <point x="485.9" y="98.0"/>
      <point x="421.59999999999997" y="55.26"/>
      <point x="301.32000000000005" y="55.26" type="curve" smooth="yes"/>
      <point x="176.6" y="55.26"/>
      <point x="108.72" y="103.76"/>
      <point x="108.72" y="190.82" type="curve" smooth="yes"/>
      <point x="108.72" y="265.7"/>
      <point x="146.45999999999998" y="316.2"/>
      <point x="231.32" y="354.72" type="curve"/>
      <point x="175.22" y="384.8" type="line"/>
      <point x="69.99999999999999" y="337.41999999999996"/>
      <point x="23.000000000000004" y="270.28000000000003"/>
      <point x="23.000000000000004" y="184.1" type="curve" smooth="yes"/>
      <point x="23.000000000000004" y="60.0"/>
      <point x="118.58" y="-10.0"/>
      <point x="294.49999999999994" y="-10.0" type="curve" smooth="yes"/>
      <point x="478.85999999999996" y="-10.0"/>
      <point x="574.7199999999999" y="56.86000000000001"/>
      <point x="574.7199999999999" y="185.92" type="curve" smooth="yes"/>
      <point x="574.7199999999999" y="451.41999999999996"/>
      <point x="137.34" y="340.68000000000006"/>
      <point x="137.34" y="532.36" type="curve" smooth="yes"/>
      <point x="137.34" y="602.6600000000001"/>
      <point x="195.26" y="642.64"/>
      <point x="300.88" y="642.64" type="curve" smooth="yes"/>
      <point x="411.21999999999997" y="642.64"/>
      <point x="468.06000000000006" y="603.32"/>
      <point x="468.06000000000006" y="525.74" type="curve" smooth="yes"/>
      <point x="468.06000000000006" y="464.38"/>
      <point x="441.22" y="421.54"/>
    </contour>
  </outline>
</glyph>
<glyph name="nine" format="2">
  <advance width="597.948"/>
  <unicode hex="0039"/>
  <outline>
    <contour>
      <point x="259.83200000000005" y="-10.0" type="curve" smooth="yes"/>
      <point x="456.788" y="-10.0"/>
      <point x="557.304" y="107.516"/>
      <point x="557.304" y="365.16400000000004" type="curve" smooth="yes"/>
      <point x="557.304" y="606.736"/>
      <point x="470.724" y="710.0"/>
      <point x="292.108" y="710.0" type="curve" smooth="yes"/>
      <point x="126.37999999999998" y="710.0"/>
      <point x="30.696" y="627.3040000000001"/>
      <point x="30.696" y="480.004" type="curve" smooth="yes"/>
      <point x="30.696" y="346.51199999999994"/>
      <point x="111.128" y="271.272"/>
      <point x="251.49200000000002" y="271.272" type="curve" smooth="yes"/>
      <point x="341.29600000000005" y="271.272"/>
      <point x="432.84800000000007" y="306.01199999999994"/>
      <point x="482.3159999999999" y="360.62399999999997" type="curve"/>
      <point x="482.164" y="433.0" type="line"/>
      <point x="433.632" y="371.29599999999994"/>
      <point x="353.60799999999995" y="336.30400000000003"/>
      <point x="274.03999999999996" y="336.30400000000003" type="curve" smooth="yes"/>
      <point x="177.57600000000002" y="336.30400000000003"/>
      <point x="112.076" y="388.49999999999994"/>
      <point x="112.076" y="483.168" type="curve" smooth="yes"/>
      <point x="112.076" y="584.7600000000001"/>
      <point x="181.236" y="640.8559999999999"/>
      <point x="287.99600000000004" y="640.8559999999999" type="curve" smooth="yes"/>
      <point x="410.15999999999997" y="640.8559999999999"/>
      <point x="470.34400000000005" y="566.3280000000001"/>
      <point x="470.34400000000005" y="359.952" type="curve" smooth="yes"/>
      <point x="470.34400000000005" y="159.1"/>
      <point x="404.72800000000007" y="62.24399999999999"/>
      <point x="249.748" y="62.24399999999999" type="curve" smooth="yes"/>
      <point x="187.468" y="62.24399999999999"/>
      <point x="132.34" y="74.92800000000001"/>
      <point x="71.504" y="93.83999999999999" type="curve"/>
      <point x="49.332" y="28.088" type="line"/>
      <point x="109.536" y="4.392000000000001"/>
      <point x="182.152" y="-10.0"/>
    </contour>
  </outline>
</glyph>
<glyph name="less" format="2">
  <advance width="482.828"/>
  <unicode hex="003C"/>
  <outline>
    <contour>
      <point x="437.534" y="78.582" type="line"/>
      <point x="437.534" y="147.414" type="line"/>
      <point x="120.654" y="297.288" type="line"/>
      <point x="437.534" y="448.19" type="line"/>
      <point x="437.534" y="515.98" type="line"/>
      <point x="45.294000000000004" y="331.406" type="line"/>
      <point x="45.294000000000004" y="262.798" type="line"/>
    </contour>
  </outline>
</glyph>
<glyph name="equal" format="2">
  <advance width="479.108"/>
  <unicode hex="003D"/>
  <outline>
    <contour>
      <point x="430.322" y="224.77599999999998" type="line"/>
      <point x="48.786" y="224.77599999999998" type="line"/>
      <point x="48.786" y="155.796" type="line"/>
      <point x="430.322" y="155.796" type="line"/>
    </contour>
    <contour>
      <point x="430.322" y="440.332" type="line"/>
      <point x="48.786" y="440.332" type="line"/>
      <point x="48.786" y="371.35200000000003" type="line"/>
      <point x="430.322" y="371.35200000000003" type="line"/>
    </contour>
  </outline>
</glyph>
<glyph name="greater" format="2">
  <advance width="482.828"/>
  <unicode hex="003E"/>
  <outline>
    <contour>
      <point x="437.534" y="262.384" type="line"/>
      <point x="437.534" y="330.99199999999996" type="line"/>
      <point x="45.294000000000004" y="515.98" type="line"/>
      <point x="45.294000000000004" y="447.086" type="line"/>
      <point x="362.174" y="296.874" type="line"/>
      <point x="45.294000000000004" y="146.586" type="line"/>
      <point x="45.294000000000004" y="78.582" type="line"/>
    </contour>
  </outline>
</glyph>
<glyph name="question" format="2">
  <advance width="442.07200000000006"/>
  <unicode hex="003F"/>
  <outline>
    <contour>
      <point x="166.382" y="261.622" type="line"/>
      <point x="239.764" y="261.622" type="line"/>
      <point x="240.01200000000003" y="331.164" type="line"/>
      <point x="363.094" y="388.566"/>
      <point x="419.2180000000001" y="446.77"/>
      <point x="419.2180000000001" y="555.81" type="curve" smooth="yes"/>
      <point x="419.2180000000001" y="694.11"/>
      <point x="320.024" y="749.8140000000001"/>
      <point x="213.76999999999998" y="749.8140000000001" type="curve" smooth="yes"/>
      <point x="143.40200000000002" y="749.8140000000001"/>
      <point x="65.28" y="726.188"/>
      <point x="10.468" y="685.7040000000001" type="curve"/>
      <point x="38.221999999999994" y="620.298" type="line"/>
      <point x="91.678" y="657.296"/>
      <point x="149.7" y="673.3120000000001"/>
      <point x="202.052" y="673.3120000000001" type="curve" smooth="yes"/>
      <point x="269.91200000000003" y="673.3120000000001"/>
      <point x="332.464" y="633.258"/>
      <point x="332.464" y="547.958" type="curve" smooth="yes"/>
      <point x="332.464" y="476.818"/>
      <point x="296.672" y="424.75800000000004"/>
      <point x="164.76999999999998" y="370.182" type="curve"/>
    </contour>
    <contour>
      <point x="156.5" y="44.403999999999996" type="curve" smooth="yes"/>
      <point x="156.5" y="9.556"/>
      <point x="168.896" y="-3.224"/>
      <point x="204.912" y="-3.224" type="curve" smooth="yes"/>
      <point x="241.246" y="-3.224"/>
      <point x="252.91" y="9.556"/>
      <point x="252.91" y="44.403999999999996" type="curve" smooth="yes"/>
      <point x="252.91" y="79.56200000000001"/>
      <point x="241.246" y="92.34200000000001"/>
      <point x="204.912" y="92.34200000000001" type="curve" smooth="yes"/>
      <point x="167.792" y="92.34200000000001"/>
      <point x="156.5" y="79.56200000000001"/>
    </contour>
  </outline>
</glyph>
<glyph name="at" format="2">
  <advance width="771.108"/>
  <unicode hex="0040"/>
  <outline>
    <contour>
      <point x="378.45599999999996" y="-123.62" type="curve" smooth="yes"/>
      <point x="455.60800000000006" y="-123.62"/>
      <point x="532.764" y="-98.46"/>
      <point x="582.408" y="-68.08" type="curve"/>
      <point x="566.2479999999999" y="-28.076000000000004" type="line"/>
      <point x="517.864" y="-56.33999999999999"/>
      <point x="452.82000000000005" y="-77.04400000000001"/>
      <point x="382.176" y="-77.04400000000001" type="curve" smooth="yes"/>
      <point x="207.55200000000002" y="-77.04400000000001"/>
      <point x="93.848" y="16.264000000000003"/>
      <point x="93.848" y="267.492" type="curve" smooth="yes"/>
      <point x="93.848" y="494.62399999999997"/>
      <point x="189.22000000000003" y="665.512"/>
      <point x="395.296" y="665.512" type="curve" smooth="yes"/>
      <point x="596.7080000000001" y="665.512"/>
      <point x="680.72" y="550.936"/>
      <point x="680.72" y="341.676" type="curve" smooth="yes"/>
      <point x="680.72" y="211.136"/>
      <point x="648.82" y="111.784"/>
      <point x="598.9399999999999" y="111.784" type="curve" smooth="yes"/>
      <point x="563.264" y="111.784"/>
      <point x="538.4200000000001" y="138.976"/>
      <point x="544.772" y="248.736" type="curve" smooth="yes"/>
      <point x="560.996" y="507.72400000000005" type="line"/>
      <point x="508.968" y="525.588"/>
      <point x="456.94800000000004" y="536.1159999999999"/>
      <point x="409.536" y="536.1159999999999" type="curve" smooth="yes"/>
      <point x="267.028" y="536.1159999999999"/>
      <point x="201.128" y="410.71200000000005"/>
      <point x="201.128" y="265.23199999999997" type="curve" smooth="yes"/>
      <point x="201.128" y="121.148"/>
      <point x="253.1" y="62.07600000000001"/>
      <point x="330.276" y="62.07600000000001" type="curve" smooth="yes"/>
      <point x="403.40400000000005" y="62.07600000000001"/>
      <point x="452.324" y="115.88"/>
      <point x="481.348" y="206.75600000000003" type="curve"/>
      <point x="486.344" y="106.1"/>
      <point x="512.904" y="57.092"/>
      <point x="586.14" y="57.092" type="curve" smooth="yes"/>
      <point x="684.928" y="57.092"/>
      <point x="731.072" y="189.452"/>
      <point x="731.072" y="345.024" type="curve" smooth="yes"/>
      <point x="731.072" y="586.076"/>
      <point x="619.724" y="709.8480000000001"/>
      <point x="401.49600000000004" y="709.8480000000001" type="curve" smooth="yes"/>
      <point x="158.24" y="709.8480000000001"/>
      <point x="41.111999999999995" y="521.86"/>
      <point x="41.111999999999995" y="269.6" type="curve" smooth="yes"/>
      <point x="41.111999999999995" y="-10.491999999999997"/>
      <point x="172.56400000000002" y="-123.62"/>
    </contour>
    <contour>
      <point x="356.40000000000003" y="130.904" type="curve" smooth="yes"/>
      <point x="315.304" y="130.904"/>
      <point x="283.004" y="168.116"/>
      <point x="283.004" y="268.084" type="curve" smooth="yes"/>
      <point x="283.004" y="371.676"/>
      <point x="324.80400000000003" y="477.904"/>
      <point x="405.56000000000006" y="477.904" type="curve" smooth="yes"/>
      <point x="428.192" y="477.904"/>
      <point x="456.40400000000005" y="472.84000000000003"/>
      <point x="483.21200000000005" y="464.28" type="curve"/>
      <point x="474.91999999999996" y="357.62" type="line" smooth="yes"/>
      <point x="453.752" y="171.524"/>
      <point x="409.64799999999997" y="130.904"/>
    </contour>
  </outline>
</glyph>
<glyph name="A" format="2">
  <advance width="601.482"/>
  <unicode hex="0041"/>
  <anchor x="589.5740000000001" y="0.0" name="ogonek"/>
  <anchor x="299.01599999999996" y="0.0" name="bottom"/>
  <anchor x="301.248" y="700.0" name="top"/>
  <outline>
    <contour>
      <point x="12.156" y="0.0" type="line"/>
      <point x="101.9" y="0.0" type="line"/>
      <point x="162.148" y="180.852" type="line"/>
      <point x="435.228" y="180.852" type="line"/>
      <point x="495.834" y="0.0" type="line"/>
      <point x="589.5740000000001" y="0.0" type="line"/>
      <point x="349.222" y="706.9" type="line"/>
      <point x="251.85399999999998" y="706.9" type="line"/>
    </contour>
    <contour>
      <point x="181.3" y="255.466" type="line"/>
      <point x="298.96000000000004" y="624.2040000000001" type="line"/>
      <point x="416.228" y="255.466" type="line"/>
    </contour>
  </outline>
</glyph>
<glyph name="B" format="2">
  <advance width="616.6800000000001"/>
  <unicode hex="0042"/>
  <anchor x="306.12" y="700.0" name="top"/>
  <anchor x="306.12" y="0.0" name="bottom"/>
  <outline>
    <contour>
      <point x="70.44800000000001" y="0.6320000000000006" type="line"/>
      <point x="191.26" y="-8.076"/>
      <point x="227.684" y="-10.0"/>
      <point x="312.65200000000004" y="-10.0" type="curve" smooth="yes"/>
      <point x="509.7560000000001" y="-10.0"/>
      <point x="583.856" y="49.772"/>
      <point x="583.856" y="194.13599999999997" type="curve" smooth="yes"/>
      <point x="583.856" y="287.264"/>
      <point x="530.792" y="352.036"/>
      <point x="441.8040000000001" y="371.68" type="curve"/>
      <point x="441.8040000000001" y="373.452" type="line"/>
      <point x="509.65200000000004" y="397.096"/>
      <point x="548.4639999999999" y="457.97200000000004"/>
      <point x="548.4639999999999" y="538.012" type="curve" smooth="yes"/>
      <point x="548.4639999999999" y="659.6200000000001"/>
      <point x="481.264" y="710.0"/>
      <point x="306.98" y="710.0" type="curve" smooth="yes"/>
      <point x="244.236" y="710.0"/>
      <point x="176.81199999999998" y="706.4560000000001"/>
      <point x="70.44800000000001" y="698.292" type="curve"/>
    </contour>
    <contour>
      <point x="157.40799999999996" y="389.992" type="line"/>
      <point x="157.40799999999996" y="632.3880000000001" type="line"/>
      <point x="234.404" y="637.9960000000001"/>
      <point x="245.92399999999998" y="638.9960000000001"/>
      <point x="300.296" y="638.9960000000001" type="curve" smooth="yes"/>
      <point x="420.86400000000003" y="638.9960000000001"/>
      <point x="466.46400000000006" y="601.9920000000001"/>
      <point x="466.46400000000006" y="516.312" type="curve" smooth="yes"/>
      <point x="466.46400000000006" y="442.32800000000003"/>
      <point x="419.33200000000005" y="389.992"/>
      <point x="346.41200000000003" y="389.992" type="curve" smooth="yes"/>
    </contour>
    <contour>
      <point x="157.40799999999996" y="67.764" type="curve"/>
      <point x="157.40799999999996" y="322.87199999999996" type="line"/>
      <point x="349.53999999999996" y="322.87199999999996" type="line" smooth="yes"/>
      <point x="445.004" y="322.87199999999996"/>
      <point x="495.03599999999994" y="277.068"/>
      <point x="495.03599999999994" y="197.15999999999997" type="curve" smooth="yes"/>
      <point x="495.03599999999994" y="99.22399999999999"/>
      <point x="446.06800000000004" y="61.080000000000005"/>
      <point x="306.48800000000006" y="61.080000000000005" type="curve" smooth="yes"/>
      <point x="267.952" y="61.080000000000005"/>
      <point x="235.508" y="63.004000000000005"/>
    </contour>
  </outline>
</glyph>
<glyph name="C" format="2">
  <advance width="594.0840000000001"/>
  <unicode hex="0043"/>
  <anchor x="337.23799999999994" y="700.0" name="top"/>
  <anchor x="336.018" y="0.0" name="bottom"/>
  <outline>
    <contour>
      <point x="43.122" y="337.76399999999995" type="curve" smooth="yes"/>
      <point x="43.122" y="80.452"/>
      <point x="149.45000000000002" y="-10.0"/>
      <point x="343.09999999999997" y="-10.0" type="curve" smooth="yes"/>
      <point x="429.94399999999996" y="-10.0"/>
      <point x="503.91200000000003" y="0.8460000000000006"/>
      <point x="565.0400000000001" y="20.148" type="curve"/>
      <point x="549.2040000000001" y="89.52" type="line"/>
      <point x="492.956" y="73.36"/>
      <point x="419.10400000000004" y="63.422"/>
      <point x="355.852" y="63.422" type="curve" smooth="yes"/>
      <point x="208.102" y="63.422"/>
      <point x="130.64" y="135.07999999999998"/>
      <point x="130.64" y="338.198" type="curve" smooth="yes"/>
      <point x="130.64" y="559.3960000000001"/>
      <point x="210.766" y="635.73"/>
      <point x="363.49" y="635.73" type="curve" smooth="yes"/>
      <point x="422.96400000000006" y="635.73"/>
      <point x="472.362" y="629.572"/>
      <point x="530.732" y="614.654" type="curve"/>
      <point x="548.242" y="684.48" type="line"/>
      <point x="487.55600000000004" y="702.726"/>
      <point x="433.726" y="710.0"/>
      <point x="356.194" y="710.0" type="curve" smooth="yes"/>
      <point x="151.03400000000002" y="710.0"/>
      <point x="43.122" y="603.138"/>
    </contour>
  </outline>
</glyph>
<glyph name="D" format="2">
  <advance width="659.66"/>
  <unicode hex="0044"/>
  <anchor x="321.27200000000005" y="700.0" name="top"/>
  <outline>
    <contour>
      <point x="302.37200000000007" y="-10.0" type="curve" smooth="yes"/>
      <point x="510.55600000000004" y="-10.0"/>
      <point x="616.3520000000001" y="99.088"/>
      <point x="616.3520000000001" y="348.16400000000004" type="curve" smooth="yes"/>
      <point x="616.3520000000001" y="602.532"/>
      <point x="520.568" y="710.0"/>
      <point x="294.44800000000004" y="710.0" type="curve" smooth="yes"/>
      <point x="221.10000000000002" y="710.0"/>
      <point x="152.976" y="707.2280000000001"/>
      <point x="70.44800000000001" y="700.912" type="curve"/>
      <point x="70.44800000000001" y="-2.608" type="line"/>
      <point x="146.484" y="-6.380000000000001"/>
      <point x="225.9" y="-10.0"/>
    </contour>
    <contour>
      <point x="301.836" y="59.764" type="curve" smooth="yes"/>
      <point x="263.82399999999996" y="59.764"/>
      <point x="199.296" y="61.992"/>
      <point x="157.408" y="65.06800000000001" type="curve"/>
      <point x="157.408" y="634.704" type="line"/>
      <point x="201.55200000000002" y="637.312"/>
      <point x="259.38000000000005" y="639.3879999999999"/>
      <point x="296.38" y="639.3879999999999" type="curve" smooth="yes"/>
      <point x="456.20799999999997" y="639.3879999999999"/>
      <point x="526.532" y="562.0519999999999"/>
      <point x="526.532" y="347.69599999999997" type="curve" smooth="yes"/>
      <point x="526.532" y="140.884"/>
      <point x="451.6" y="59.764"/>
    </contour>
  </outline>
</glyph>
<glyph name="E" format="2">
  <advance width="559.1"/>
  <unicode hex="0045"/>
  <anchor x="531.7959999999999" y="0.0" name="ogonek"/>
  <anchor x="301.312" y="0.0" name="bottom"/>
  <anchor x="297.88000000000005" y="700.0" name="top"/>
  <outline>
    <contour>
      <point x="70.44800000000001" y="0.0" type="line"/>
      <point x="532.4159999999999" y="0.0" type="line"/>
      <point x="532.4159999999999" y="77.03999999999999" type="line"/>
      <point x="158.028" y="77.03999999999999" type="line"/>
      <point x="158.028" y="326.50800000000004" type="line"/>
      <point x="491.40400000000005" y="326.50800000000004" type="line"/>
      <point x="491.40400000000005" y="402.70000000000005" type="line"/>
      <point x="158.028" y="402.70000000000005" type="line"/>
      <point x="158.028" y="622.96" type="line"/>
      <point x="514.568" y="622.96" type="line"/>
      <point x="514.568" y="700.0" type="line"/>
      <point x="70.44800000000001" y="700.0" type="line"/>
    </contour>
  </outline>
</glyph>
<glyph name="F" format="2">
  <advance width="530.088"/>
  <unicode hex="0046"/>
  <outline>
    <contour>
      <point x="70.44800000000001" y="0.0" type="line"/>
      <point x="158.02799999999996" y="0.0" type="line"/>
      <point x="158.02799999999996" y="287.67600000000004" type="line"/>
      <point x="465.96000000000004" y="287.67600000000004" type="line"/>
      <point x="465.96000000000004" y="363.248" type="line"/>
      <point x="157.408" y="363.248" type="line"/>
      <point x="157.408" y="621.72" type="line"/>
      <point x="512.708" y="621.72" type="line"/>
      <point x="512.708" y="700.0" type="line"/>
      <point x="70.44800000000001" y="700.0" type="line"/>
    </contour>
  </outline>
</glyph>
<glyph name="G" format="2">
  <advance width="631.518"/>
  <unicode hex="0047"/>
  <anchor x="332.40000000000003" y="700.0" name="top"/>
  <anchor x="333.7" y="0.0" name="bottom"/>
  <outline>
    <contour>
      <point x="43.122" y="338.13599999999997" type="curve" smooth="yes"/>
      <point x="43.122" y="103.146"/>
      <point x="139.504" y="-10.0"/>
      <point x="330.564" y="-10.0" type="curve" smooth="yes"/>
      <point x="427.656" y="-10.0"/>
      <point x="514.5540000000001" y="3.9420000000000006"/>
      <point x="576.134" y="31.3" type="curve"/>
      <point x="576.134" y="356.912" type="line"/>
      <point x="331.04" y="356.912" type="line"/>
      <point x="331.04" y="288.16" type="line"/>
      <point x="497.668" y="288.16" type="line"/>
      <point x="497.668" y="80.702" type="line"/>
      <point x="455.52400000000006" y="66.442"/>
      <point x="403.15200000000004" y="59.578"/>
      <point x="339.84400000000005" y="59.578" type="curve" smooth="yes"/>
      <point x="202.582" y="59.578"/>
      <point x="130.268" y="146.216"/>
      <point x="130.268" y="336.89599999999996" type="curve" smooth="yes"/>
      <point x="130.268" y="540.562"/>
      <point x="206.11999999999998" y="636.1020000000001"/>
      <point x="354.01000000000005" y="636.1020000000001" type="curve" smooth="yes"/>
      <point x="413.51800000000003" y="636.1020000000001"/>
      <point x="475.10800000000006" y="627.792"/>
      <point x="535.748" y="610.88" type="curve"/>
      <point x="552.1419999999999" y="680.5260000000001" type="line"/>
      <point x="491.334" y="699.98"/>
      <point x="423.752" y="710.0"/>
      <point x="347.644" y="710.0" type="curve" smooth="yes"/>
      <point x="146.44" y="710.0"/>
      <point x="43.122" y="588.336"/>
    </contour>
  </outline>
</glyph>
<glyph name="H" format="2">
  <advance width="679.5580000000001"/>
  <unicode hex="0048"/>
  <anchor x="340.01" y="700.0" name="top"/>
  <outline>
    <contour>
      <point x="70.38600000000001" y="0.0" type="line"/>
      <point x="156.416" y="0.0" type="line"/>
      <point x="156.416" y="269.08600000000007" type="line"/>
      <point x="523.1419999999999" y="269.08600000000007" type="line"/>
      <point x="523.1419999999999" y="0.0" type="line"/>
      <point x="609.1719999999999" y="0.0" type="line"/>
      <point x="609.1719999999999" y="700.0" type="line"/>
      <point x="523.1419999999999" y="700.0" type="line"/>
      <point x="523.1419999999999" y="346.642" type="line"/>
      <point x="156.416" y="346.642" type="line"/>
      <point x="156.416" y="700.0" type="line"/>
      <point x="70.38600000000001" y="700.0" type="line"/>
    </contour>
  </outline>
</glyph>
<glyph name="I" format="2">
  <advance width="226.80200000000002"/>
  <unicode hex="0049"/>
  <anchor x="156.416" y="0.0" name="ogonek"/>
  <anchor x="113.49400000000001" y="0.0" name="bottom"/>
  <anchor x="113.49400000000001" y="700.0" name="top"/>
  <outline>
    <contour>
      <point x="70.38600000000001" y="0.0" type="line"/>
      <point x="156.416" y="0.0" type="line"/>
      <point x="156.416" y="700.0" type="line"/>
      <point x="70.38600000000001" y="700.0" type="line"/>
    </contour>
  </outline>
</glyph>
<glyph name="J" format="2">
  <advance width="468.55800000000005"/>
  <unicode hex="004A"/>
  <anchor x="233.366" y="700.0" name="top"/>
  <outline>
    <contour>
      <point x="11.562000000000001" y="19.346" type="line"/>
      <point x="70.736" y="0.38400000000000034"/>
      <point x="140.30000000000004" y="-10.276"/>
      <point x="199.486" y="-10.276" type="curve" smooth="yes"/>
      <point x="345.824" y="-10.276"/>
      <point x="409.76200000000006" y="60.974"/>
      <point x="409.76200000000006" y="197.58599999999998" type="curve" smooth="yes"/>
      <point x="409.76200000000006" y="700.0" type="line"/>
      <point x="54.31399999999999" y="700.0" type="line"/>
      <point x="54.31399999999999" y="623.87" type="line"/>
      <point x="323.73199999999997" y="623.87" type="line"/>
      <point x="323.73199999999997" y="214.014" type="line" smooth="yes"/>
      <point x="323.73199999999997" y="103.996"/>
      <point x="273.278" y="63.622"/>
      <point x="177.848" y="63.622" type="curve" smooth="yes"/>
      <point x="135.734" y="63.622"/>
      <point x="79.86200000000001" y="72.194"/>
      <point x="28.494" y="87.25" type="curve"/>
    </contour>
  </outline>
</glyph>
<glyph name="K" format="2">
  <advance width="620.16"/>
  <unicode hex="004B"/>
  <anchor x="309.46000000000004" y="700.0" name="top"/>
  <anchor x="309.04" y="0.0" name="bottom"/>
  <outline>
    <contour>
      <point x="586.38" y="-10.0" type="curve" smooth="yes"/>
      <point x="591.86" y="-10.0"/>
      <point x="598.4799999999999" y="-10.0"/>
      <point x="606.34" y="-8.0" type="curve"/>
      <point x="606.34" y="80.2" type="line"/>
      <point x="601.7199999999999" y="79.82000000000001"/>
      <point x="596.4799999999999" y="79.82000000000001"/>
      <point x="592.86" y="79.82000000000001" type="curve" smooth="yes"/>
      <point x="551.0999999999999" y="80.2"/>
      <point x="516.38" y="98.34"/>
      <point x="430.96" y="179.94" type="curve" smooth="yes"/>
      <point x="157.56" y="441.64" type="line"/>
      <point x="157.56" y="700.0" type="line"/>
      <point x="70.6" y="700.0" type="line"/>
      <point x="70.6" y="0.0" type="line"/>
      <point x="157.56" y="0.0" type="line"/>
      <point x="157.56" y="331.90000000000003" type="line"/>
      <point x="404.04" y="92.78" type="line" smooth="yes"/>
      <point x="480.36" y="18.42"/>
      <point x="530.4200000000001" y="-10.0"/>
    </contour>
    <contour>
      <point x="268.96" y="300.94" type="line"/>
      <point x="383.59999999999997" y="378.52000000000004"/>
      <point x="519.9" y="501.94"/>
      <point x="586.5999999999999" y="671.82" type="curve"/>
      <point x="519.62" y="705.24" type="line"/>
      <point x="447.96" y="538.6"/>
      <point x="308.46" y="419.94"/>
      <point x="213.56" y="352.28" type="curve"/>
    </contour>
  </outline>
</glyph>
<glyph name="L" format="2">
  <advance width="509.91"/>
  <unicode hex="004C"/>
  <anchor x="255.186" y="350.0" name="center"/>
  <anchor x="113.49400000000001" y="700.0" name="top"/>
  <anchor x="324.96999999999997" y="700.0" name="topright"/>
  <anchor x="279.516" y="0.0" name="bottom"/>
  <outline>
    <contour>
      <point x="70.38600000000001" y="0.0" type="line"/>
      <point x="494.05" y="0.0" type="line"/>
      <point x="494.05" y="76.25399999999999" type="line"/>
      <point x="156.60199999999998" y="76.25399999999999" type="line"/>
      <point x="156.60199999999998" y="700.0" type="line"/>
      <point x="70.38600000000001" y="700.0" type="line"/>
    </contour>
  </outline>
</glyph>
<glyph name="M" format="2">
  <advance width="762.358"/>
  <unicode hex="004D"/>
  <outline>
    <contour>
      <point x="70.78600000000002" y="0.0" type="line"/>
      <point x="150.368" y="0.0" type="line"/>
      <point x="150.368" y="573.976" type="line"/>
      <point x="358.962" y="230.61" type="line"/>
      <point x="401.094" y="230.61" type="line"/>
      <point x="611.99" y="576.774" type="line"/>
      <point x="611.99" y="0.0" type="line"/>
      <point x="691.572" y="0.0" type="line"/>
      <point x="691.572" y="700.0" type="line"/>
      <point x="606.1" y="700.0" type="line"/>
      <point x="382.88800000000003" y="330.506" type="line"/>
      <point x="159.66799999999998" y="700.0" type="line"/>
      <point x="70.78600000000002" y="700.0" type="line"/>
    </contour>
  </outline>
</glyph>
<glyph name="N" format="2">
  <advance width="670.4"/>
  <unicode hex="004E"/>
  <anchor x="335.2" y="700.0" name="top"/>
  <anchor x="335.2" y="0.0" name="bottom"/>
  <outline>
    <contour>
      <point x="70.60000000000001" y="0.0" type="line"/>
      <point x="148.88" y="0.0" type="line"/>
      <point x="148.88" y="560.6000000000001" type="line"/>
      <point x="517.8" y="-1.24" type="line"/>
      <point x="599.8" y="-1.24" type="line"/>
      <point x="599.8" y="700.0" type="line"/>
      <point x="521.52" y="700.0" type="line"/>
      <point x="521.52" y="135.82000000000002" type="line"/>
      <point x="152.22" y="702.76" type="line"/>
      <point x="70.60000000000001" y="702.76" type="line"/>
    </contour>
  </outline>
</glyph>
<glyph name="O" format="2">
  <advance width="691.99"/>
  <unicode hex="004F"/>
  <anchor x="404.90000000000003" y="1.8599999999999999" name="ogonek"/>
  <anchor x="344.96000000000004" y="700.0" name="top"/>
  <anchor x="515.63" y="682.58" name="topright"/>
  <anchor x="345.27000000000004" y="0.0" name="bottom"/>
  <outline>
    <contour>
      <point x="344.96000000000004" y="59.84" type="curve" smooth="yes"/>
      <point x="232.11" y="59.84"/>
      <point x="131.35000000000002" y="118.53999999999999"/>
      <point x="131.35000000000002" y="349.31" type="curve" smooth="yes"/>
      <point x="131.35000000000002" y="584.91"/>
      <point x="231.49" y="640.78"/>
      <point x="344.96000000000004" y="640.78" type="curve" smooth="yes"/>
      <point x="460.05" y="640.78"/>
      <point x="559.9499999999999" y="584.98"/>
      <point x="559.9499999999999" y="349.62" type="curve" smooth="yes"/>
      <point x="559.9499999999999" y="116.26"/>
      <point x="460.05" y="59.84"/>
    </contour>
    <contour>
      <point x="345.27000000000004" y="-10.0" type="curve" smooth="yes"/>
      <point x="518.21" y="-10.0"/>
      <point x="648.22" y="67.16"/>
      <point x="648.22" y="351.93" type="curve" smooth="yes"/>
      <point x="648.22" y="632.2199999999999"/>
      <point x="517.55" y="710.0"/>
      <point x="344.96000000000004" y="710.0" type="curve" smooth="yes"/>
      <point x="171.99" y="710.0"/>
      <point x="43.77" y="631.2199999999999"/>
      <point x="43.77" y="349.62" type="curve" smooth="yes"/>
      <point x="43.77" y="71.68"/>
      <point x="174.78000000000003" y="-10.0"/>
    </contour>
  </outline>
</glyph>
<glyph name="P" format="2">
  <advance width="610.5"/>
  <unicode hex="0050"/>
  <outline>
    <contour>
      <point x="70.38600000000001" y="0.0" type="line"/>
      <point x="156.60199999999998" y="0.0" type="line"/>
      <point x="156.60199999999998" y="241.04" type="line"/>
      <point x="230.626" y="238.28199999999998"/>
      <point x="252.85600000000002" y="238.006"/>
      <point x="319.17999999999995" y="238.006" type="curve" smooth="yes"/>
      <point x="507.168" y="238.006"/>
      <point x="580.086" y="304.844"/>
      <point x="580.086" y="481.056" type="curve" smooth="yes"/>
      <point x="580.086" y="647.098"/>
      <point x="522.162" y="710.0"/>
      <point x="295.046" y="710.0" type="curve" smooth="yes"/>
      <point x="257.054" y="710.0"/>
      <point x="191.56600000000003" y="708.0619999999999"/>
      <point x="70.38600000000001" y="702.028" type="curve"/>
    </contour>
    <contour>
      <point x="156.78799999999998" y="634.8899999999999" type="line"/>
      <point x="236.202" y="639.3939999999999"/>
      <point x="266.736" y="640.36"/>
      <point x="301.03999999999996" y="640.36" type="curve" smooth="yes"/>
      <point x="455.634" y="640.36"/>
      <point x="493.00199999999995" y="594.5920000000001"/>
      <point x="493.00199999999995" y="481.922" type="curve" smooth="yes"/>
      <point x="493.00199999999995" y="354.994"/>
      <point x="449.60600000000005" y="308.288"/>
      <point x="295.97200000000004" y="308.288" type="curve" smooth="yes"/>
      <point x="243.534" y="308.288"/>
      <point x="214.07000000000002" y="309.24"/>
      <point x="156.78799999999998" y="311.34999999999997" type="curve"/>
    </contour>
  </outline>
</glyph>
<glyph name="Q" format="2">
  <advance width="692.176"/>
  <unicode hex="0051"/>
  <outline>
    <contour>
      <point x="414.624" y="17.747999999999998" type="curve"/>
      <point x="340.56" y="2.844" type="line"/>
      <point x="378.17199999999997" y="-135.55999999999997"/>
      <point x="425.868" y="-200.072"/>
      <point x="510.78" y="-200.072" type="curve" smooth="yes"/>
      <point x="538.508" y="-200.072"/>
      <point x="570.492" y="-193.692"/>
      <point x="603.748" y="-180.056" type="curve"/>
      <point x="591.54" y="-109.364" type="line"/>
      <point x="567.8639999999999" y="-120.26400000000001"/>
      <point x="545.0799999999999" y="-125.272"/>
      <point x="525.1800000000001" y="-125.272" type="curve" smooth="yes"/>
      <point x="473.08399999999995" y="-125.272"/>
      <point x="442.53999999999996" y="-81.91199999999999"/>
    </contour>
    <component base="O"/>
  </outline>
</glyph>
<glyph name="R" format="2">
  <advance width="650.4399999999999"/>
  <unicode hex="0052"/>
  <anchor x="310.28" y="700.0" name="top"/>
  <anchor x="320.7" y="0.0" name="bottom"/>
  <outline>
    <contour>
      <point x="615.22" y="-10.0" type="curve" smooth="yes"/>
      <point x="625.8" y="-10.0"/>
      <point x="634.28" y="-8.0"/>
      <point x="640.76" y="-7.0" type="curve"/>
      <point x="639.3799999999999" y="75.86" type="line"/>
      <point x="635.38" y="75.47999999999999"/>
      <point x="627.0" y="74.47999999999999"/>
      <point x="624.3799999999999" y="74.47999999999999" type="curve" smooth="yes"/>
      <point x="575.86" y="74.47999999999999"/>
      <point x="508.59999999999997" y="134.04"/>
      <point x="413.86" y="294.02" type="curve"/>
      <point x="516.32" y="319.18"/>
      <point x="573.56" y="379.41999999999996"/>
      <point x="573.56" y="505.08000000000004" type="curve" smooth="yes"/>
      <point x="573.56" y="657.32"/>
      <point x="494.12" y="710.0"/>
      <point x="289.09999999999997" y="710.0" type="curve" smooth="yes"/>
      <point x="221.24" y="710.0"/>
      <point x="159.16" y="707.38"/>
      <point x="70.6" y="701.76" type="curve"/>
      <point x="70.6" y="0.0" type="line"/>
      <point x="157.56" y="0.0" type="line"/>
      <point x="157.56" y="273.28" type="line"/>
      <point x="197.57999999999998" y="271.9"/>
      <point x="239.94" y="271.52"/>
      <point x="277.58" y="271.52" type="curve" smooth="yes"/>
      <point x="291.37999999999994" y="271.52"/>
      <point x="314.72" y="271.9"/>
      <point x="328.52000000000004" y="272.9" type="curve"/>
      <point x="446.72" y="65.86"/>
      <point x="531.48" y="-10.0"/>
    </contour>
    <contour>
      <point x="292.84000000000003" y="344.22" type="curve" smooth="yes"/>
      <point x="248.99999999999997" y="344.22"/>
      <point x="208.26" y="345.21999999999997"/>
      <point x="157.56" y="347.21999999999997" type="curve"/>
      <point x="157.56" y="635.16" type="line"/>
      <point x="214.46" y="639.16"/>
      <point x="238.26" y="639.54"/>
      <point x="291.34000000000003" y="639.54" type="curve" smooth="yes"/>
      <point x="438.14000000000004" y="639.54"/>
      <point x="484.11999999999995" y="601.36"/>
      <point x="484.11999999999995" y="494.16" type="curve" smooth="yes"/>
      <point x="484.11999999999995" y="382.06"/>
      <point x="425.46" y="344.22"/>
    </contour>
  </outline>
</glyph>
<glyph name="S" format="2">
  <advance width="570.9200000000001"/>
  <unicode hex="0053"/>
  <anchor x="290.08" y="700.0" name="top"/>
  <anchor x="282.97999999999996" y="0.0" name="bottom"/>
  <outline>
    <contour>
      <point x="503.94" y="678.9" type="line"/>
      <point x="456.74" y="695.14"/>
      <point x="370.92" y="710.0"/>
      <point x="299.94" y="710.0" type="curve" smooth="yes"/>
      <point x="132.45999999999998" y="710.0"/>
      <point x="43.46" y="633.32"/>
      <point x="43.46" y="523.26" type="curve" smooth="yes"/>
      <point x="43.46" y="425.2"/>
      <point x="99.03999999999999" y="371.24"/>
      <point x="242.20000000000002" y="320.91999999999996" type="curve" smooth="yes"/>
      <point x="389.4800000000001" y="271.5"/>
      <point x="449.88" y="239.14000000000001"/>
      <point x="449.88" y="172.4" type="curve" smooth="yes"/>
      <point x="449.88" y="100.34"/>
      <point x="387.00000000000006" y="59.6"/>
      <point x="272.46" y="59.6" type="curve" smooth="yes"/>
      <point x="202.64000000000001" y="59.6"/>
      <point x="102.88000000000001" y="76.6"/>
      <point x="41.86" y="98.7" type="curve"/>
      <point x="22.7" y="30.720000000000002" type="line"/>
      <point x="83.58000000000001" y="7.760000000000001"/>
      <point x="192.96000000000004" y="-10.0"/>
      <point x="268.12" y="-10.0" type="curve" smooth="yes"/>
      <point x="440.92" y="-10.0"/>
      <point x="538.46" y="59.580000000000005"/>
      <point x="538.46" y="179.36" type="curve" smooth="yes"/>
      <point x="538.46" y="280.14"/>
      <point x="479.91999999999996" y="331.86"/>
      <point x="326.46000000000004" y="382.32" type="curve" smooth="yes"/>
      <point x="182.38000000000002" y="429.4"/>
      <point x="132.04" y="462.86"/>
      <point x="132.04" y="528.22" type="curve" smooth="yes"/>
      <point x="132.04" y="598.1399999999999"/>
      <point x="197.16" y="639.54"/>
      <point x="299.93999999999994" y="639.54" type="curve" smooth="yes"/>
      <point x="360.38" y="639.54"/>
      <point x="437.96" y="627.54"/>
      <point x="485.78000000000003" y="610.6800000000001" type="curve"/>
    </contour>
  </outline>
</glyph>
<glyph name="T" format="2">
  <advance width="535.684"/>
  <unicode hex="0054"/>
  <anchor x="267.842" y="700.0" name="top"/>
  <anchor x="267.842" y="0.0" name="bottom"/>
  <outline>
    <contour>
      <point x="525.758" y="623.278" type="line"/>
      <point x="525.758" y="700.0" type="line"/>
      <point x="9.926" y="700.0" type="line"/>
      <point x="9.926" y="623.278" type="line"/>
      <point x="224.92" y="623.278" type="line"/>
      <point x="224.92" y="0.0" type="line"/>
      <point x="310.95" y="0.0" type="line"/>
      <point x="310.95" y="623.278" type="line"/>
    </contour>
  </outline>
</glyph>
<glyph name="U" format="2">
  <advance width="655.0000000000001"/>
  <unicode hex="0055"/>
  <anchor x="387.2540000000001" y="0.372" name="ogonek"/>
  <anchor x="327.8" y="700.0" name="top"/>
  <anchor x="596.2040000000001" y="700.0" name="topright"/>
  <anchor x="327.8" y="0.0" name="bottom"/>
  <outline>
    <contour>
      <point x="58.79600000000001" y="211.048" type="line"/>
      <point x="58.79600000000001" y="38.8"/>
      <point x="180.92400000000004" y="-10.0"/>
      <point x="327.428" y="-10.0" type="curve" smooth="yes"/>
      <point x="475.23400000000004" y="-10.0"/>
      <point x="596.2040000000001" y="38.8"/>
      <point x="596.2040000000001" y="211.048" type="curve" smooth="yes"/>
      <point x="596.2040000000001" y="700.0" type="line"/>
      <point x="510.79400000000004" y="700.0" type="line"/>
      <point x="510.79400000000004" y="210.366" type="line" smooth="yes"/>
      <point x="510.79400000000004" y="90.01399999999998"/>
      <point x="419.974" y="61.583999999999996"/>
      <point x="327.8" y="61.583999999999996" type="curve" smooth="yes"/>
      <point x="236.67999999999998" y="61.583999999999996"/>
      <point x="143.834" y="88.898"/>
      <point x="143.834" y="210.366" type="curve" smooth="yes"/>
      <point x="143.834" y="700.0" type="line"/>
      <point x="58.79600000000001" y="700.0" type="line"/>
    </contour>
  </outline>
</glyph>
<glyph name="V" format="2">
  <advance width="596.252"/>
  <unicode hex="0056"/>
  <outline>
    <contour>
      <point x="250.624" y="0.0" type="line"/>
      <point x="347.24" y="0.0" type="line"/>
      <point x="589.212" y="698.24" type="line"/>
      <point x="499.424" y="702.884" type="line"/>
      <point x="299.18" y="87.7" type="line"/>
      <point x="97.2" y="702.884" type="line"/>
      <point x="7.040000000000001" y="698.24" type="line"/>
    </contour>
  </outline>
</glyph>
<glyph name="W" format="2">
  <advance width="796.2800000000001"/>
  <unicode hex="0057"/>
  <anchor x="397.64000000000004" y="700.0" name="top"/>
  <anchor x="397.64000000000004" y="0.0" name="bottom"/>
  <outline>
    <contour>
      <point x="632.548" y="0.0" type="line"/>
      <point x="789.124" y="698.992" type="line"/>
      <point x="697.708" y="702.132" type="line"/>
      <point x="588.564" y="105.952" type="line"/>
      <point x="438.28400000000005" y="674.584" type="line"/>
      <point x="361.84" y="674.584" type="line"/>
      <point x="209.452" y="105.456" type="line"/>
      <point x="97.828" y="702.132" type="line"/>
      <point x="7.156000000000001" y="698.992" type="line"/>
      <point x="161.87199999999999" y="0.0" type="line"/>
      <point x="246.84" y="0.0" type="line"/>
      <point x="396.028" y="544.98" type="line"/>
      <point x="541.496" y="0.0" type="line"/>
    </contour>
  </outline>
</glyph>
<glyph name="X" format="2">
  <advance width="595.1999999999999"/>
  <unicode hex="0058"/>
  <outline>
    <contour>
      <point x="13.219999999999999" y="2.7600000000000002" type="line"/>
      <point x="109.82" y="-4.14" type="line"/>
      <point x="295.98" y="291.92" type="line"/>
      <point x="482.03999999999996" y="-4.14" type="line"/>
      <point x="579.5" y="2.7600000000000002" type="line"/>
      <point x="351.14000000000004" y="362.0" type="line"/>
      <point x="566.98" y="696.86" type="line"/>
      <point x="473.24" y="703.1400000000001" type="line"/>
      <point x="304.18" y="425.98" type="line"/>
      <point x="130.64" y="703.1400000000001" type="line"/>
      <point x="30.700000000000003" y="696.86" type="line"/>
      <point x="248.78" y="359.0" type="line"/>
    </contour>
  </outline>
</glyph>
<glyph name="Y" format="2">
  <advance width="585.64"/>
  <unicode hex="0059"/>
  <anchor x="293.234" y="700.0" name="top"/>
  <anchor x="294.75200000000007" y="0.0" name="bottom"/>
  <outline>
    <contour>
      <point x="252.058" y="0.0" type="line"/>
      <point x="338.088" y="0.0" type="line"/>
      <point x="338.088" y="283.51" type="line"/>
      <point x="577.7579999999999" y="696.55" type="line"/>
      <point x="485.464" y="703.45" type="line"/>
      <point x="295.414" y="343.884" type="line"/>
      <point x="99.01599999999999" y="703.45" type="line"/>
      <point x="6.226" y="696.55" type="line"/>
      <point x="252.058" y="283.51" type="line"/>
    </contour>
  </outline>
</glyph>
<glyph name="Z" format="2">
  <advance width="566.4520000000001"/>
  <unicode hex="005A"/>
  <anchor x="286.144" y="350.0" name="center"/>
  <anchor x="286.144" y="0.0" name="bottom"/>
  <anchor x="286.992" y="700.0" name="top"/>
  <outline>
    <contour>
      <point x="25.139999999999997" y="0.0" type="line"/>
      <point x="545.984" y="0.0" type="line"/>
      <point x="545.984" y="71.852" type="line"/>
      <point x="127.22399999999999" y="71.852" type="line"/>
      <point x="127.22399999999999" y="73.85200000000002" type="line"/>
      <point x="522.628" y="631.68" type="line"/>
      <point x="522.628" y="700.0" type="line"/>
      <point x="46.484" y="700.0" type="line"/>
      <point x="46.484" y="628.148" type="line"/>
      <point x="422.40400000000005" y="628.148" type="line"/>
      <point x="422.40400000000005" y="626.148" type="line"/>
      <point x="25.139999999999997" y="68.32000000000001" type="line"/>
    </contour>
  </outline>
</glyph>
<glyph name="bracketleft" format="2">
  <advance width="305.864"/>
  <unicode hex="005B"/>
  <outline>
    <contour>
      <point x="136.198" y="-149.07999999999998" type="line"/>
      <point x="136.198" y="679.08" type="line"/>
      <point x="284.48400000000004" y="679.08" type="line"/>
      <point x="284.48400000000004" y="740.0" type="line"/>
      <point x="69.14" y="740.0" type="line"/>
      <point x="69.14" y="-210.0" type="line"/>
      <point x="284.48400000000004" y="-210.0" type="line"/>
      <point x="284.48400000000004" y="-149.07999999999998" type="line"/>
    </contour>
  </outline>
</glyph>
<glyph name="backslash" format="2">
  <advance width="353.172"/>
  <unicode hex="005C"/>
  <outline>
    <contour>
      <point x="72.706" y="740.0" type="line"/>
      <point x="2.9680000000000004" y="740.0" type="line"/>
      <point x="280.652" y="-210.0" type="line"/>
      <point x="350.204" y="-210.0" type="line"/>
    </contour>
  </outline>
</glyph>
<glyph name="bracketright" format="2">
  <advance width="305.864"/>
  <unicode hex="005D"/>
  <outline>
    <contour>
      <point x="21.380000000000003" y="-149.07999999999998" type="line"/>
      <point x="21.380000000000003" y="-210.0" type="line"/>
      <point x="236.72400000000002" y="-210.0" type="line"/>
      <point x="236.72400000000002" y="740.0" type="line"/>
      <point x="21.380000000000003" y="740.0" type="line"/>
      <point x="21.380000000000003" y="679.08" type="line"/>
      <point x="169.66600000000003" y="679.08" type="line"/>
      <point x="169.66600000000003" y="-149.07999999999998" type="line"/>
    </contour>
  </outline>
</glyph>
<glyph name="asciicircum" format="2">
  <advance width="482.828"/>
  <unicode hex="005E"/>
  <outline>
    <contour>
      <point x="44.64" y="261.74199999999996" type="line"/>
      <point x="112.072" y="261.74199999999996" type="line"/>
      <point x="241.414" y="620.612" type="line"/>
      <point x="371.06600000000003" y="261.74199999999996" type="line"/>
      <point x="438.18800000000005" y="261.74199999999996" type="line"/>
      <point x="279.748" y="706.9" type="line"/>
      <point x="203.07999999999998" y="706.9" type="line"/>
    </contour>
  </outline>
</glyph>
<glyph name="underscore" format="2">
  <advance width="773.1080000000001"/>
  <unicode hex="005F"/>
  <outline>
    <contour>
      <point x="6.2" y="-158.754" type="line"/>
      <point x="766.908" y="-158.754" type="line"/>
      <point x="766.908" y="-92.874" type="line"/>
      <point x="6.2" y="-92.874" type="line"/>
    </contour>
  </outline>
</glyph>
<glyph name="a" format="2">
  <advance width="511.43999999999994"/>
  <unicode hex="0061"/>
  <anchor x="507.68" y="6.4399999999999995" name="ogonek"/>
  <anchor x="251.32" y="0.0" name="bottom"/>
  <anchor x="250.83999999999997" y="536.2" name="top"/>
  <outline>
    <contour>
      <point x="29.56" y="128.74" type="curve" smooth="yes"/>
      <point x="29.56" y="38.67999999999999"/>
      <point x="83.76" y="-10.0"/>
      <point x="164.57999999999998" y="-10.0" type="curve" smooth="yes"/>
      <point x="246.61999999999998" y="-10.0"/>
      <point x="309.31999999999994" y="25.32"/>
      <point x="358.17999999999995" y="65.46000000000001" type="curve"/>
      <point x="366.24" y="13.9"/>
      <point x="394.2" y="-10.0"/>
      <point x="442.02000000000004" y="-10.0" type="curve" smooth="yes"/>
      <point x="466.41999999999996" y="-10.0"/>
      <point x="487.72" y="-4.28"/>
      <point x="507.68" y="7.0600000000000005" type="curve"/>
      <point x="498.58000000000004" y="69.32" type="line"/>
      <point x="489.06" y="64.94"/>
      <point x="479.06" y="63.56"/>
      <point x="470.92" y="63.56" type="curve" smooth="yes"/>
      <point x="449.12" y="63.56"/>
      <point x="435.6" y="75.84"/>
      <point x="435.6" y="120.16" type="curve" smooth="yes"/>
      <point x="435.6" y="379.74" type="line" smooth="yes"/>
      <point x="435.6" y="490.52"/>
      <point x="369.02" y="546.2"/>
      <point x="235.54000000000002" y="546.2" type="curve" smooth="yes"/>
      <point x="182.48" y="546.2"/>
      <point x="119.94" y="536.34"/>
      <point x="62.83999999999999" y="519.1" type="curve"/>
      <point x="78.14" y="451.12" type="line"/>
      <point x="134.76" y="468.12"/>
      <point x="189.95999999999998" y="474.12"/>
      <point x="230.95999999999998" y="474.12" type="curve" smooth="yes"/>
      <point x="310.46000000000004" y="474.12"/>
      <point x="351.5" y="440.52000000000004"/>
      <point x="351.5" y="379.12" type="curve" smooth="yes"/>
      <point x="351.5" y="303.59999999999997" type="line"/>
      <point x="139.02" y="284.7"/>
      <point x="29.56" y="258.22"/>
    </contour>
    <contour>
      <point x="114.66" y="135.6" type="curve" smooth="yes"/>
      <point x="114.66" y="222.66"/>
      <point x="210.08" y="242.32"/>
      <point x="351.5" y="253.6" type="curve"/>
      <point x="351.5" y="118.83999999999999" type="line"/>
      <point x="309.0" y="78.38"/>
      <point x="248.88" y="49.919999999999995"/>
      <point x="194.1" y="49.919999999999995" type="curve" smooth="yes"/>
      <point x="145.36" y="49.919999999999995"/>
      <point x="114.66" y="78.86000000000001"/>
    </contour>
  </outline>
</glyph>
<glyph name="b" format="2">
  <advance width="536.006"/>
  <unicode hex="0062"/>
  <outline>
    <contour>
      <point x="62.67" y="13.838000000000001" type="line"/>
      <point x="134.32" y="-1.9879999999999995"/>
      <point x="195.62" y="-10.0"/>
      <point x="248.66400000000002" y="-10.0" type="curve" smooth="yes"/>
      <point x="421.946" y="-10.0"/>
      <point x="498.12" y="75.332"/>
      <point x="498.12" y="282.204" type="curve" smooth="yes"/>
      <point x="498.12" y="452.964"/>
      <point x="433.3" y="546.2"/>
      <point x="317.72" y="546.2" type="curve" smooth="yes"/>
      <point x="260.924" y="546.2"/>
      <point x="205.38400000000001" y="527.612"/>
      <point x="146.22" y="488.31" type="curve"/>
      <point x="146.22" y="740.0" type="line"/>
      <point x="62.67" y="740.0" type="line"/>
    </contour>
    <contour>
      <point x="146.22" y="65.33999999999999" type="curve"/>
      <point x="146.22" y="425.04" type="line"/>
      <point x="201.946" y="461.274"/>
      <point x="242.114" y="475.32"/>
      <point x="288.68" y="475.32" type="curve" smooth="yes"/>
      <point x="366.868" y="475.32"/>
      <point x="412.028" y="407.64200000000005"/>
      <point x="412.028" y="276.562" type="curve" smooth="yes"/>
      <point x="412.028" y="112.824"/>
      <point x="361.626" y="51.882"/>
      <point x="249.942" y="51.882" type="curve" smooth="yes"/>
      <point x="220.812" y="51.882"/>
      <point x="187.86" y="56.0"/>
    </contour>
  </outline>
</glyph>
<glyph name="c" format="2">
  <advance width="482.08400000000006"/>
  <unicode hex="0063"/>
  <anchor x="279.70000000000005" y="536.2" name="top"/>
  <anchor x="281.044" y="0.0" name="bottom"/>
  <outline>
    <contour>
      <point x="38.196" y="259.87199999999996" type="curve" smooth="yes"/>
      <point x="38.196" y="75.908"/>
      <point x="119.72800000000001" y="-10.0"/>
      <point x="280.704" y="-10.0" type="curve" smooth="yes"/>
      <point x="339.088" y="-10.0"/>
      <point x="408.872" y="-0.37999999999999945"/>
      <point x="458.196" y="13.252000000000002" type="curve"/>
      <point x="444.524" y="76.196" type="line"/>
      <point x="397.20400000000006" y="65.64399999999999"/>
      <point x="342.624" y="58.25599999999999"/>
      <point x="297.30800000000005" y="58.25599999999999" type="curve" smooth="yes"/>
      <point x="185.824" y="58.25599999999999"/>
      <point x="123.048" y="113.41199999999999"/>
      <point x="123.048" y="259.868" type="curve" smooth="yes"/>
      <point x="123.048" y="417.89599999999996"/>
      <point x="185.972" y="477.44800000000004"/>
      <point x="296.924" y="477.44800000000004" type="curve" smooth="yes"/>
      <point x="339.40000000000003" y="477.44800000000004"/>
      <point x="391.84400000000005" y="470.84000000000003"/>
      <point x="436.544" y="460.66" type="curve"/>
      <point x="448.48" y="526.208" type="line"/>
      <point x="403.8" y="538.6"/>
      <point x="340.84799999999996" y="546.2"/>
      <point x="289.92" y="546.2" type="curve" smooth="yes"/>
      <point x="127.88399999999999" y="546.2"/>
      <point x="38.196" y="453.956"/>
    </contour>
  </outline>
</glyph>
<glyph name="d" format="2">
  <advance width="536.44"/>
  <unicode hex="0064"/>
  <anchor x="268.296" y="275.0" name="center"/>
  <anchor x="266.27199999999993" y="740.0" name="top"/>
  <anchor x="545.72" y="740.0" name="topright"/>
  <anchor x="268.296" y="0.0" name="bottom"/>
  <outline>
    <contour>
      <point x="401.49600000000004" y="-0.62" type="line"/>
      <point x="474.08000000000004" y="-0.62" type="line"/>
      <point x="474.08000000000004" y="740.0" type="line"/>
      <point x="389.6" y="740.0" type="line"/>
      <point x="389.6" y="534.8439999999999" type="line"/>
      <point x="352.03999999999996" y="542.5160000000001"/>
      <point x="313.316" y="546.2"/>
      <point x="278.972" y="546.2" type="curve" smooth="yes"/>
      <point x="114.43199999999999" y="546.2"/>
      <point x="37.699999999999996" y="456.404"/>
      <point x="37.699999999999996" y="255.73200000000006" type="curve" smooth="yes"/>
      <point x="37.699999999999996" y="84.164"/>
      <point x="103.24400000000001" y="-10.0"/>
      <point x="218.268" y="-10.0" type="curve" smooth="yes"/>
      <point x="276.8" y="-10.0"/>
      <point x="330.332" y="7.76"/>
      <point x="390.21999999999997" y="47.800000000000004" type="curve"/>
    </contour>
    <contour>
      <point x="389.6" y="110.416" type="line"/>
      <point x="334.556" y="75.35999999999999"/>
      <point x="293.768" y="61.004"/>
      <point x="247.408" y="61.004" type="curve" smooth="yes"/>
      <point x="169.94400000000002" y="61.004"/>
      <point x="124.66" y="128.86"/>
      <point x="124.66" y="262.55199999999996" type="curve" smooth="yes"/>
      <point x="124.66" y="423.376"/>
      <point x="174.628" y="483.0159999999999"/>
      <point x="285.69200000000006" y="483.0159999999999" type="curve" smooth="yes"/>
      <point x="315.504" y="483.0159999999999"/>
      <point x="348.064" y="479.332"/>
      <point x="389.6" y="469.496" type="curve"/>
    </contour>
  </outline>
</glyph>
<glyph name="e" format="2">
  <advance width="520.9359999999999"/>
  <unicode hex="0065"/>
  <anchor x="441.088" y="10.316" name="ogonek"/>
  <anchor x="273.15999999999997" y="0.0" name="bottom"/>
  <anchor x="272.868" y="536.2" name="top"/>
  <outline>
    <contour>
      <point x="269.372" y="-10.0" type="curve" smooth="yes"/>
      <point x="351.204" y="-10.0"/>
      <point x="423.672" y="1.912"/>
      <point x="479.3" y="19.871999999999996" type="curve"/>
      <point x="468.252" y="83.43599999999999" type="line"/>
      <point x="415.95199999999994" y="69.968"/>
      <point x="346.96400000000006" y="58.13199999999999"/>
      <point x="283.23999999999995" y="58.13199999999999" type="curve" smooth="yes"/>
      <point x="181.172" y="58.13199999999999"/>
      <point x="124.04" y="106.86"/>
      <point x="124.04" y="237.768" type="curve" smooth="yes"/>
      <point x="124.04" y="245.06"/>
      <point x="124.19200000000001" y="251.80800000000002"/>
      <point x="124.964" y="258.94800000000004" type="curve"/>
      <point x="290.09999999999997" y="260.188"/>
      <point x="429.20399999999995" y="272.56800000000004"/>
      <point x="485.124" y="277.49199999999996" type="curve"/>
      <point x="485.896" y="289.628"/>
      <point x="486.744" y="306.13199999999995"/>
      <point x="486.744" y="315.08" type="curve" smooth="yes"/>
      <point x="486.744" y="478.012"/>
      <point x="420.93600000000004" y="546.2"/>
      <point x="284.63999999999993" y="546.2" type="curve" smooth="yes"/>
      <point x="145.824" y="546.2"/>
      <point x="37.699999999999996" y="472.468"/>
      <point x="37.699999999999996" y="253.568" type="curve" smooth="yes"/>
      <point x="37.699999999999996" y="68.416"/>
      <point x="122.228" y="-10.0"/>
    </contour>
    <contour>
      <point x="126.04000000000002" y="316.93199999999996" type="curve"/>
      <point x="139.32" y="450.09999999999997"/>
      <point x="210.19199999999998" y="483.876"/>
      <point x="279.06" y="483.876" type="curve" smooth="yes"/>
      <point x="362.032" y="483.876"/>
      <point x="400.872" y="439.98400000000004"/>
      <point x="402.112" y="329.136" type="curve"/>
      <point x="370.808" y="325.452"/>
      <point x="253.93200000000002" y="317.55199999999996"/>
    </contour>
  </outline>
</glyph>
<glyph name="f" format="2">
  <advance width="361.24199999999996"/>
  <unicode hex="0066"/>
  <outline>
    <contour>
      <point x="104.014" y="0.0" type="line"/>
      <point x="186.324" y="0.0" type="line"/>
      <point x="186.324" y="428.888" type="line"/>
      <point x="347.13" y="428.888" type="line"/>
      <point x="347.13" y="492.37" type="line"/>
      <point x="186.51" y="492.37" type="line"/>
      <point x="186.51" y="513.0020000000001" type="line" smooth="yes"/>
      <point x="186.51" y="634.168"/>
      <point x="226.202" y="682.516"/>
      <point x="304.05" y="682.516" type="curve" smooth="yes"/>
      <point x="335.206" y="682.516"/>
      <point x="366.758" y="677.4259999999999"/>
      <point x="402.18399999999997" y="667.052" type="curve"/>
      <point x="414.21000000000004" y="728.5079999999999" type="line"/>
      <point x="367.564" y="743.988"/>
      <point x="328.544" y="750.276"/>
      <point x="285.896" y="750.276" type="curve" smooth="yes"/>
      <point x="168.724" y="750.276"/>
      <point x="104.014" y="678.184"/>
      <point x="104.014" y="514.118" type="curve" smooth="yes"/>
      <point x="104.014" y="492.37" type="line"/>
      <point x="19.64" y="484.724" type="line"/>
      <point x="19.64" y="428.888" type="line"/>
      <point x="104.014" y="428.888" type="line"/>
    </contour>
  </outline>
</glyph>
<glyph name="g" format="2">
  <advance width="538.544"/>
  <unicode hex="0067"/>
  <anchor x="265.808" y="536.2" name="top"/>
  <anchor x="263.60400000000004" y="-214.0" name="bottom"/>
  <outline>
    <contour>
      <point x="255.608" y="-220.0" type="curve" smooth="yes"/>
      <point x="425.676" y="-220.0"/>
      <point x="521.9879999999999" y="-155.34400000000002"/>
      <point x="521.9879999999999" y="-45.715999999999994" type="curve" smooth="yes"/>
      <point x="521.9879999999999" y="42.32"/>
      <point x="468.092" y="89.444"/>
      <point x="363.704" y="89.444" type="curve" smooth="yes"/>
      <point x="201.704" y="89.444" type="line" smooth="yes"/>
      <point x="142.596" y="89.444"/>
      <point x="116.56799999999998" y="111.308"/>
      <point x="116.56799999999998" y="147.54" type="curve" smooth="yes"/>
      <point x="116.56799999999998" y="180.328"/>
      <point x="137.23999999999998" y="203.484"/>
      <point x="172.58400000000003" y="221.98" type="curve"/>
      <point x="124.40800000000002" y="239.736" type="line"/>
      <point x="75.94000000000001" y="212.05200000000002"/>
      <point x="50.296" y="176.52"/>
      <point x="50.296" y="126.864" type="curve" smooth="yes"/>
      <point x="50.296" y="56.932"/>
      <point x="103.556" y="18.212"/>
      <point x="203.108" y="18.212" type="curve" smooth="yes"/>
      <point x="339.752" y="18.212" type="line" smooth="yes"/>
      <point x="411.944" y="18.212"/>
      <point x="442.468" y="-5.616"/>
      <point x="442.468" y="-54.09199999999999" type="curve" smooth="yes"/>
      <point x="442.468" y="-119.77199999999999"/>
      <point x="377.008" y="-158.06799999999998"/>
      <point x="261.188" y="-158.06799999999998" type="curve" smooth="yes"/>
      <point x="147.72400000000002" y="-158.06799999999998"/>
      <point x="94.552" y="-125.51999999999998"/>
      <point x="94.552" y="-59.77600000000001" type="curve" smooth="yes"/>
      <point x="94.552" y="-18.163999999999998"/>
      <point x="115.38799999999999" y="11.335999999999999"/>
      <point x="163.548" y="33.452" type="curve"/>
      <point x="110.536" y="51.46" type="line"/>
      <point x="48.964" y="23.156"/>
      <point x="22.472" y="-20.504"/>
      <point x="22.472" y="-75.42799999999998" type="curve" smooth="yes"/>
      <point x="22.472" y="-172.0"/>
      <point x="101.18" y="-220.0"/>
    </contour>
    <contour>
      <point x="262.668" y="198.29599999999996" type="curve" smooth="yes"/>
      <point x="398.06800000000004" y="198.29599999999996"/>
      <point x="466.68399999999997" y="256.63599999999997"/>
      <point x="466.68399999999997" y="371.9" type="curve" smooth="yes"/>
      <point x="466.68399999999997" y="487.784"/>
      <point x="398.06800000000004" y="546.2"/>
      <point x="262.668" y="546.2" type="curve" smooth="yes"/>
      <point x="127.26799999999999" y="546.2"/>
      <point x="58.651999999999994" y="487.784"/>
      <point x="58.651999999999994" y="371.9" type="curve" smooth="yes"/>
      <point x="58.651999999999994" y="256.63599999999997"/>
      <point x="127.26799999999999" y="198.29599999999996"/>
    </contour>
    <contour>
      <point x="262.668" y="256.356" type="curve" smooth="yes"/>
      <point x="179.56799999999998" y="256.356"/>
      <point x="140.03199999999998" y="290.968"/>
      <point x="140.03199999999998" y="371.9" type="curve" smooth="yes"/>
      <point x="140.03199999999998" y="454.3"/>
      <point x="179.56799999999998" y="488.75999999999993"/>
      <point x="262.668" y="488.75999999999993" type="curve" smooth="yes"/>
      <point x="345.768" y="488.75999999999993"/>
      <point x="385.304" y="454.3"/>
      <point x="385.304" y="371.9" type="curve" smooth="yes"/>
      <point x="385.304" y="290.968"/>
      <point x="345.768" y="256.356"/>
    </contour>
    <contour>
      <point x="417.072" y="460.01199999999994" type="line"/>
      <point x="431.592" y="488.964"/>
      <point x="454.25199999999995" y="501.63599999999997"/>
      <point x="485.11600000000004" y="501.63599999999997" type="curve" smooth="yes"/>
      <point x="496.736" y="501.63599999999997"/>
      <point x="506.98800000000006" y="500.864"/>
      <point x="516.76" y="498.32" type="curve"/>
      <point x="525.972" y="564.8199999999999" type="line"/>
      <point x="512.6560000000001" y="567.9839999999999"/>
      <point x="501.00000000000006" y="569.3760000000001"/>
      <point x="486.356" y="569.3760000000001" type="curve" smooth="yes"/>
      <point x="435.396" y="569.3760000000001"/>
      <point x="398.46" y="547.3639999999999"/>
      <point x="381.82800000000003" y="505.48" type="curve"/>
    </contour>
  </outline>
</glyph>
<glyph name="h" format="2">
  <advance width="543.064"/>
  <unicode hex="0068"/>
  <anchor x="270.172" y="395.0" name="center"/>
  <anchor x="271.412" y="0.0" name="bottom"/>
  <anchor x="274.184" y="740.0" name="top"/>
  <outline>
    <contour>
      <point x="62.36" y="0.0" type="line"/>
      <point x="146.84" y="0.0" type="line"/>
      <point x="146.84" y="429.76000000000005" type="line"/>
      <point x="198.884" y="456.08"/>
      <point x="243.788" y="473.95599999999996"/>
      <point x="297.65599999999995" y="473.95599999999996" type="curve" smooth="yes"/>
      <point x="363.96799999999996" y="473.95599999999996"/>
      <point x="396.22400000000005" y="439.19199999999995"/>
      <point x="396.22400000000005" y="375.504" type="curve" smooth="yes"/>
      <point x="396.22400000000005" y="0.0" type="line"/>
      <point x="480.704" y="0.0" type="line"/>
      <point x="480.704" y="398.444" type="line" smooth="yes"/>
      <point x="480.704" y="496.164"/>
      <point x="426.61600000000004" y="546.2"/>
      <point x="331.49199999999996" y="546.2" type="curve" smooth="yes"/>
      <point x="262.85599999999994" y="546.2"/>
      <point x="208.348" y="525.148"/>
      <point x="146.84" y="491.06000000000006" type="curve"/>
      <point x="146.84" y="740.0" type="line"/>
      <point x="62.36" y="740.0" type="line"/>
    </contour>
  </outline>
</glyph>
<glyph name="i" format="2">
  <advance width="208.89000000000001"/>
  <unicode hex="0069"/>
  <anchor x="145.94400000000002" y="0.0" name="ogonek"/>
  <anchor x="104.53800000000001" y="0.0" name="bottom"/>
  <outline>
    <contour>
      <point x="104.53800000000001" y="643.644" type="curve" smooth="yes"/>
      <point x="142.77400000000003" y="643.644"/>
      <point x="155.574" y="655.928"/>
      <point x="155.574" y="689.474" type="curve" smooth="yes"/>
      <point x="155.574" y="723.3919999999999"/>
      <point x="142.40200000000002" y="735.49"/>
      <point x="104.53800000000001" y="735.49" type="curve" smooth="yes"/>
      <point x="66.488" y="735.49"/>
      <point x="53.315999999999995" y="723.3919999999999"/>
      <point x="53.315999999999995" y="689.474" type="curve" smooth="yes"/>
      <point x="53.315999999999995" y="655.742"/>
      <point x="67.178" y="643.644"/>
    </contour>
    <contour>
      <point x="62.67" y="0.0" type="line"/>
      <point x="146.22" y="0.0" type="line"/>
      <point x="146.22" y="536.2" type="line"/>
      <point x="62.67" y="536.2" type="line"/>
    </contour>
  </outline>
</glyph>
<glyph name="j" format="2">
  <advance width="212.5"/>
  <unicode hex="006A"/>
  <outline>
    <contour>
      <point x="150.106" y="536.2" type="line"/>
      <point x="66.556" y="536.2" type="line"/>
      <point x="66.556" y="24.106" type="line" smooth="yes"/>
      <point x="66.556" y="-59.425999999999995"/>
      <point x="46.34" y="-107.166"/>
      <point x="5.112000000000001" y="-129.246" type="curve" smooth="yes"/>
      <point x="-2.570000000000001" y="-132.97199999999998"/>
      <point x="-9.879999999999999" y="-135.45"/>
      <point x="-18.81" y="-136.86599999999999" type="curve"/>
      <point x="-18.586000000000002" y="-207.61400000000003" type="line"/>
      <point x="-1.5460000000000012" y="-206.92"/>
      <point x="17.684" y="-204.26799999999997"/>
      <point x="32.518" y="-200.128" type="curve" smooth="yes"/>
      <point x="113.89200000000001" y="-175.15"/>
      <point x="150.106" y="-103.392"/>
      <point x="150.106" y="20.262" type="curve" smooth="yes"/>
    </contour>
    <contour>
      <point x="107.87199999999999" y="643.644" type="curve" smooth="yes"/>
      <point x="145.69400000000002" y="643.644"/>
      <point x="158.90800000000002" y="655.928"/>
      <point x="158.90800000000002" y="689.474" type="curve" smooth="yes"/>
      <point x="158.90800000000002" y="723.3919999999999"/>
      <point x="145.322" y="735.49"/>
      <point x="107.87199999999999" y="735.49" type="curve" smooth="yes"/>
      <point x="69.822" y="735.49"/>
      <point x="56.650000000000006" y="723.3919999999999"/>
      <point x="56.650000000000006" y="689.474" type="curve" smooth="yes"/>
      <point x="56.650000000000006" y="655.742"/>
      <point x="70.51200000000001" y="643.644"/>
    </contour>
  </outline>
</glyph>
<glyph name="k" format="2">
  <advance width="504.68"/>
  <unicode hex="006B"/>
  <anchor x="102.74" y="740.0" name="top"/>
  <anchor x="265.36" y="0.0" name="bottom"/>
  <outline>
    <contour>
      <point x="473.08000000000004" y="-8.620000000000001" type="curve" smooth="yes"/>
      <point x="483.03999999999996" y="-8.620000000000001"/>
      <point x="491.52" y="-7.239999999999999"/>
      <point x="499.61999999999995" y="-5.62" type="curve"/>
      <point x="497.23999999999995" y="80.72" type="line"/>
      <point x="491.62" y="80.34"/>
      <point x="486.62" y="79.34"/>
      <point x="483.0" y="79.34" type="curve" smooth="yes"/>
      <point x="451.90000000000003" y="79.34"/>
      <point x="420.28000000000003" y="98.86"/>
      <point x="318.1" y="202.45999999999998" type="curve" smooth="yes"/>
      <point x="143.11999999999998" y="380.52" type="line"/>
      <point x="143.11999999999998" y="740.0" type="line"/>
      <point x="62.36" y="740.0" type="line"/>
      <point x="62.36" y="0.0" type="line"/>
      <point x="143.11999999999998" y="0.0" type="line"/>
      <point x="143.11999999999998" y="270.3" type="line"/>
      <point x="298.55999999999995" y="111.78" type="line" smooth="yes"/>
      <point x="405.44" y="1.4800000000000004"/>
      <point x="433.25999999999993" y="-8.620000000000001"/>
    </contour>
    <contour>
      <point x="242.14" y="242.04" type="line"/>
      <point x="323.14" y="314.23999999999995"/>
      <point x="432.18" y="414.02"/>
      <point x="472.12" y="536.2" type="curve"/>
      <point x="388.78" y="545.2" type="line"/>
      <point x="352.56" y="429.70000000000005"/>
      <point x="262.78" y="354.04"/>
      <point x="175.96" y="278.36" type="curve"/>
    </contour>
  </outline>
</glyph>
<glyph name="l" format="2">
  <advance width="262.29200000000003"/>
  <unicode hex="006C"/>
  <anchor x="131.46" y="395.0" name="center"/>
  <anchor x="104.53800000000001" y="740.0" name="top"/>
  <anchor x="218.17" y="740.0" name="topright"/>
  <anchor x="161.24" y="0.0" name="bottom"/>
  <outline>
    <contour>
      <point x="146.22" y="740.0" type="line"/>
      <point x="62.67" y="740.0" type="line"/>
      <point x="62.67" y="141.14799999999997" type="line" smooth="yes"/>
      <point x="62.67" y="22.09"/>
      <point x="107.172" y="-10.0"/>
      <point x="181.648" y="-10.0" type="curve" smooth="yes"/>
      <point x="211.836" y="-10.0"/>
      <point x="240.014" y="-2.9000000000000004"/>
      <point x="262.69800000000004" y="6.49" type="curve"/>
      <point x="253.86200000000002" y="72.51400000000001" type="line"/>
      <point x="234.95800000000003" y="66.658"/>
      <point x="218.198" y="63.506"/>
      <point x="203.534" y="63.506" type="curve" smooth="yes"/>
      <point x="171.012" y="63.506"/>
      <point x="146.22" y="76.964"/>
      <point x="146.22" y="147.90599999999998" type="curve" smooth="yes"/>
    </contour>
  </outline>
</glyph>
<glyph name="m" format="2">
  <advance width="821.356"/>
  <unicode hex="006D"/>
  <outline>
    <contour>
      <point x="62.67" y="0.0" type="line"/>
      <point x="146.406" y="0.0" type="line"/>
      <point x="146.406" y="429.73199999999997" type="line"/>
      <point x="190.276" y="455.714"/>
      <point x="230.44799999999998" y="472.88599999999997"/>
      <point x="278.78999999999996" y="472.88599999999997" type="curve" smooth="yes"/>
      <point x="352.402" y="472.88599999999997"/>
      <point x="369.68600000000004" y="420.81199999999995"/>
      <point x="369.68600000000004" y="374.434" type="curve" smooth="yes"/>
      <point x="369.68600000000004" y="0.0" type="line"/>
      <point x="453.42199999999997" y="0.0" type="line"/>
      <point x="453.42199999999997" y="380.13800000000003" type="line" smooth="yes"/>
      <point x="453.42199999999997" y="396.198"/>
      <point x="451.628" y="413.67199999999997"/>
      <point x="446.39799999999997" y="429.87000000000006" type="curve"/>
      <point x="481.44800000000004" y="450.99399999999997"/>
      <point x="528.548" y="474.39"/>
      <point x="583.818" y="474.39" type="curve" smooth="yes"/>
      <point x="658.41" y="474.39"/>
      <point x="675.322" y="422.164"/>
      <point x="675.322" y="375.53799999999995" type="curve" smooth="yes"/>
      <point x="675.322" y="0.0" type="line"/>
      <point x="759.058" y="0.0" type="line"/>
      <point x="759.058" y="399.15999999999997" type="line" smooth="yes"/>
      <point x="759.058" y="476.53400000000005"/>
      <point x="721.9300000000001" y="546.2"/>
      <point x="619.886" y="546.2" type="curve" smooth="yes"/>
      <point x="541.93" y="546.2"/>
      <point x="481.77200000000005" y="516.64"/>
      <point x="430.89599999999996" y="484.414" type="curve"/>
      <point x="410.57400000000007" y="521.1560000000001"/>
      <point x="374.72" y="544.82"/>
      <point x="313.494" y="544.82" type="curve" smooth="yes"/>
      <point x="249.28" y="544.82"/>
      <point x="194.962" y="523.0440000000001"/>
      <point x="139.4" y="489.27599999999995" type="curve"/>
      <point x="139.4" y="536.2" type="line"/>
      <point x="62.67" y="536.2" type="line"/>
    </contour>
  </outline>
</glyph>
<glyph name="n" format="2">
  <advance width="542.6920000000001"/>
  <unicode hex="006E"/>
  <anchor x="274.96000000000004" y="536.2" name="top"/>
  <anchor x="276.34000000000003" y="0.0" name="bottom"/>
  <outline>
    <contour>
      <point x="62.67" y="0.0" type="line"/>
      <point x="146.406" y="0.0" type="line"/>
      <point x="146.406" y="430.00800000000004" type="line"/>
      <point x="198.512" y="456.514"/>
      <point x="243.664" y="474.88599999999997"/>
      <point x="297.96600000000007" y="474.88599999999997" type="curve" smooth="yes"/>
      <point x="364.2780000000001" y="474.88599999999997"/>
      <point x="396.658" y="439.68799999999993"/>
      <point x="396.658" y="375.814" type="curve" smooth="yes"/>
      <point x="396.658" y="0.0" type="line"/>
      <point x="480.394" y="0.0" type="line"/>
      <point x="480.394" y="399.43600000000004" type="line" smooth="yes"/>
      <point x="480.394" y="493.9940000000001"/>
      <point x="427.918" y="546.2"/>
      <point x="331.182" y="546.2" type="curve" smooth="yes"/>
      <point x="260.624" y="546.2"/>
      <point x="204.786" y="524.714"/>
      <point x="139.4" y="489.13800000000003" type="curve"/>
      <point x="139.4" y="536.2" type="line"/>
      <point x="62.67" y="536.2" type="line"/>
    </contour>
  </outline>
</glyph>
<glyph name="o" format="2">
  <advance width="545.196"/>
  <unicode hex="006F"/>
  <anchor x="340.1820000000001" y="2.108" name="ogonek"/>
  <anchor x="272.598" y="536.2" name="top"/>
  <anchor x="387.81600000000003" y="528.96" name="topright"/>
  <anchor x="272.598" y="0.0" name="bottom"/>
  <outline>
    <contour>
      <point x="38.01" y="269.086" type="curve" smooth="yes"/>
      <point x="38.01" y="74.446"/>
      <point x="103.594" y="-10.0"/>
      <point x="272.598" y="-10.0" type="curve" smooth="yes"/>
      <point x="441.6020000000001" y="-10.0"/>
      <point x="507.1860000000001" y="74.446"/>
      <point x="507.1860000000001" y="269.086" type="curve" smooth="yes"/>
      <point x="507.1860000000001" y="458.52599999999995"/>
      <point x="448.40200000000004" y="546.2"/>
      <point x="272.598" y="546.2" type="curve" smooth="yes"/>
      <point x="96.546" y="546.2"/>
      <point x="38.01" y="458.52599999999995"/>
    </contour>
    <contour>
      <point x="123.73" y="269.08600000000007" type="curve" smooth="yes"/>
      <point x="123.73" y="423.67799999999994"/>
      <point x="161.37" y="479.66"/>
      <point x="272.598" y="479.66" type="curve" smooth="yes"/>
      <point x="383.64" y="479.66"/>
      <point x="421.218" y="423.67799999999994"/>
      <point x="421.218" y="269.08600000000007" type="curve" smooth="yes"/>
      <point x="421.218" y="110.742"/>
      <point x="378.32800000000003" y="56.726"/>
      <point x="272.598" y="56.726" type="curve" smooth="yes"/>
      <point x="166.682" y="56.726"/>
      <point x="123.73" y="110.742"/>
    </contour>
  </outline>
</glyph>
<glyph name="p" format="2">
  <advance width="536.192"/>
  <unicode hex="0070"/>
  <outline>
    <contour>
      <point x="62.67" y="-210.0" type="line"/>
      <point x="146.53" y="-210.0" type="line"/>
      <point x="146.53" y="2.0660000000000007" type="line"/>
      <point x="188.26399999999998" y="-6.191999999999999"/>
      <point x="224.24200000000002" y="-10.0"/>
      <point x="256.848" y="-10.0" type="curve" smooth="yes"/>
      <point x="421.38800000000003" y="-10.0"/>
      <point x="498.306" y="79.982"/>
      <point x="498.306" y="280.71600000000007" type="curve" smooth="yes"/>
      <point x="498.306" y="451.104"/>
      <point x="433.11400000000003" y="546.2"/>
      <point x="319.022" y="546.2" type="curve" smooth="yes"/>
      <point x="260.05600000000004" y="546.2"/>
      <point x="203.834" y="527.4259999999999"/>
      <point x="141.632" y="486.202" type="curve"/>
      <point x="139.4" y="540.34" type="line"/>
      <point x="62.67" y="540.34" type="line"/>
    </contour>
    <contour>
      <point x="250.12800000000001" y="52.62599999999999" type="curve" smooth="yes"/>
      <point x="220.812" y="52.62599999999999"/>
      <point x="187.86" y="56.93"/>
      <point x="146.406" y="66.642" type="curve"/>
      <point x="146.406" y="426.342" type="line"/>
      <point x="201.76" y="462.204"/>
      <point x="242.114" y="476.06399999999996"/>
      <point x="288.494" y="476.06399999999996" type="curve" smooth="yes"/>
      <point x="366.868" y="476.06399999999996"/>
      <point x="412.028" y="408.01399999999995"/>
      <point x="412.028" y="273.586" type="curve" smooth="yes"/>
      <point x="412.028" y="113.19599999999998"/>
      <point x="361.626" y="52.62599999999999"/>
    </contour>
  </outline>
</glyph>
<glyph name="q" format="2">
  <advance width="536.3779999999999"/>
  <unicode hex="0071"/>
  <outline>
    <contour>
      <point x="473.70799999999997" y="523.52" type="line"/>
      <point x="402.30400000000003" y="538.974"/>
      <point x="342.06000000000006" y="546.2"/>
      <point x="287.714" y="546.2" type="curve" smooth="yes"/>
      <point x="116.292" y="546.2"/>
      <point x="37.885999999999996" y="459.56600000000003"/>
      <point x="37.885999999999996" y="259.204" type="curve" smooth="yes"/>
      <point x="37.885999999999996" y="84.58"/>
      <point x="102.93400000000001" y="-10.0"/>
      <point x="218.658" y="-10.0" type="curve" smooth="yes"/>
      <point x="275.826" y="-10.0"/>
      <point x="331.366" y="8.588000000000001"/>
      <point x="390.158" y="47.70400000000001" type="curve"/>
      <point x="390.158" y="-210.0" type="line"/>
      <point x="473.70799999999997" y="-210.0" type="line"/>
    </contour>
    <contour>
      <point x="389.97200000000004" y="470.074" type="curve"/>
      <point x="389.97200000000004" y="110.788" type="line"/>
      <point x="334.618" y="74.74"/>
      <point x="294.264" y="60.507999999999996"/>
      <point x="247.698" y="60.507999999999996" type="curve" smooth="yes"/>
      <point x="169.924" y="60.507999999999996"/>
      <point x="124.35" y="129.014"/>
      <point x="124.35" y="259.26599999999996" type="curve" smooth="yes"/>
      <point x="124.35" y="423.004"/>
      <point x="174.752" y="483.946"/>
      <point x="286.43600000000004" y="483.946" type="curve" smooth="yes"/>
      <point x="315.09" y="483.946"/>
      <point x="348.518" y="479.828"/>
    </contour>
  </outline>
</glyph>
<glyph name="r" format="2">
  <advance width="384.63200000000006"/>
  <unicode hex="0072"/>
  <anchor x="214.44199999999998" y="536.2" name="top"/>
  <anchor x="104.352" y="0.0" name="bottom"/>
  <outline>
    <contour>
      <point x="139.214" y="536.2" type="line"/>
      <point x="62.67" y="536.2" type="line"/>
      <point x="62.67" y="0.0" type="line"/>
      <point x="146.03400000000002" y="0.0" type="line"/>
      <point x="146.03400000000002" y="403.28200000000004" type="line"/>
      <point x="199.41" y="451.43"/>
      <point x="247.332" y="469.24399999999997"/>
      <point x="294.288" y="469.24399999999997" type="curve" smooth="yes"/>
      <point x="316.952" y="469.24399999999997"/>
      <point x="343.73999999999995" y="465.464"/>
      <point x="367.636" y="459.188" type="curve"/>
      <point x="381.536" y="535.0480000000001" type="line"/>
      <point x="359.062" y="542.082"/>
      <point x="331.514" y="546.2"/>
      <point x="304.468" y="546.2" type="curve" smooth="yes"/>
      <point x="245.798" y="546.2"/>
      <point x="197.126" y="523.612"/>
      <point x="139.214" y="469.956" type="curve"/>
    </contour>
  </outline>
</glyph>
<glyph name="s" format="2">
  <advance width="445.36"/>
  <unicode hex="0073"/>
  <anchor x="224.01999999999998" y="536.2" name="top"/>
  <anchor x="225.01999999999998" y="0.0" name="bottom"/>
  <outline>
    <contour>
      <point x="22.52" y="21.38" type="line"/>
      <point x="73.44" y="0.7600000000000002"/>
      <point x="141.85999999999999" y="-10.0"/>
      <point x="209.96" y="-10.0" type="curve" smooth="yes"/>
      <point x="332.82" y="-10.0"/>
      <point x="420.56000000000006" y="37.0"/>
      <point x="420.56000000000006" y="145.07999999999998" type="curve" smooth="yes"/>
      <point x="420.56000000000006" y="243.76"/>
      <point x="355.7" y="277.76"/>
      <point x="253.9" y="305.04" type="curve" smooth="yes"/>
      <point x="175.86" y="325.94"/>
      <point x="119.7" y="343.54"/>
      <point x="119.7" y="400.7" type="curve" smooth="yes"/>
      <point x="119.7" y="449.58000000000004"/>
      <point x="160.20000000000002" y="479.08"/>
      <point x="238.67999999999998" y="479.08" type="curve" smooth="yes"/>
      <point x="294.74" y="479.08"/>
      <point x="340.4" y="468.7"/>
      <point x="378.6" y="456.84000000000003" type="curve"/>
      <point x="391.18" y="521.34" type="line"/>
      <point x="351.98" y="535.2"/>
      <point x="297.12" y="546.2"/>
      <point x="238.68" y="546.2" type="curve" smooth="yes"/>
      <point x="106.14" y="546.2"/>
      <point x="38.31999999999999" y="489.71999999999997"/>
      <point x="38.31999999999999" y="393.88" type="curve" smooth="yes"/>
      <point x="38.31999999999999" y="308.22"/>
      <point x="99.33999999999999" y="265.68"/>
      <point x="191.96" y="241.77999999999997" type="curve" smooth="yes"/>
      <point x="289.04" y="216.36"/>
      <point x="337.32" y="194.42000000000002"/>
      <point x="337.32" y="137.64" type="curve" smooth="yes"/>
      <point x="337.32" y="83.86"/>
      <point x="294.4" y="55.26"/>
      <point x="211.2" y="55.26" type="curve" smooth="yes"/>
      <point x="152.68" y="55.26"/>
      <point x="79.58000000000001" y="67.25999999999999"/>
      <point x="35.48" y="84.64" type="curve"/>
    </contour>
  </outline>
</glyph>
<glyph name="t" format="2">
  <advance width="387.902"/>
  <unicode hex="0074"/>
  <anchor x="191.826" y="275.0" name="center"/>
  <anchor x="147.548" y="662.9540000000001" name="top"/>
  <anchor x="304.354" y="766.03" name="topright"/>
  <anchor x="227.864" y="0.0" name="bottom"/>
  <outline>
    <contour>
      <point x="245.376" y="-10.0" type="curve" smooth="yes"/>
      <point x="284.61600000000004" y="-10.0"/>
      <point x="330.666" y="-3.414"/>
      <point x="380.41200000000003" y="12.832" type="curve"/>
      <point x="368.04800000000006" y="78.28999999999999" type="line"/>
      <point x="335.218" y="68.25999999999999"/>
      <point x="303.86" y="62.1"/>
      <point x="271.77599999999995" y="62.1" type="curve" smooth="yes"/>
      <point x="209.91600000000003" y="62.1"/>
      <point x="183.53" y="92.04800000000002"/>
      <point x="183.53" y="164.06400000000002" type="curve" smooth="yes"/>
      <point x="183.53" y="472.7180000000001" type="line"/>
      <point x="362.712" y="472.7180000000001" type="line"/>
      <point x="362.712" y="536.2" type="line"/>
      <point x="183.53" y="536.2" type="line"/>
      <point x="183.53" y="662.9540000000001" type="line"/>
      <point x="111.15199999999999" y="662.9540000000001" type="line"/>
      <point x="99.97999999999999" y="536.2" type="line"/>
      <point x="8.05" y="528.74" type="line"/>
      <point x="8.05" y="472.904" type="line"/>
      <point x="99.97999999999999" y="472.904" type="line"/>
      <point x="99.97999999999999" y="158.23600000000002" type="line" smooth="yes"/>
      <point x="99.97999999999999" y="45.114"/>
      <point x="146.17000000000002" y="-10.0"/>
    </contour>
  </outline>
</glyph>
<glyph name="u" format="2">
  <advance width="545.6080000000001"/>
  <unicode hex="0075"/>
  <anchor x="541.3720000000001" y="6.688" name="ogonek"/>
  <anchor x="266.538" y="536.2" name="top"/>
  <anchor x="467.968" y="536.2" name="topright"/>
  <anchor x="273.22799999999995" y="0.0" name="bottom"/>
  <outline>
    <contour>
      <point x="208.768" y="-10.0" type="curve" smooth="yes"/>
      <point x="278.67400000000004" y="-10.0"/>
      <point x="333.696" y="12.788000000000002"/>
      <point x="394.58200000000005" y="47.112" type="curve"/>
      <point x="406.43" y="8.806"/>
      <point x="435.78000000000003" y="-10.0"/>
      <point x="473.176" y="-10.0" type="curve" smooth="yes"/>
      <point x="498.07200000000006" y="-10.0"/>
      <point x="521.956" y="-3.508"/>
      <point x="541.3720000000001" y="6.688" type="curve"/>
      <point x="531.796" y="67.92799999999998" type="line"/>
      <point x="522.9459999999999" y="63.796"/>
      <point x="513.6479999999999" y="61.83"/>
      <point x="504.75" y="61.83" type="curve" smooth="yes"/>
      <point x="483.93800000000005" y="61.83"/>
      <point x="467.968" y="75.13"/>
      <point x="467.968" y="117.10600000000001" type="curve" smooth="yes"/>
      <point x="467.968" y="536.2" type="line"/>
      <point x="384.418" y="536.2" type="line"/>
      <point x="384.418" y="105.172" type="line"/>
      <point x="335.004" y="78.66"/>
      <point x="292.134" y="60.818"/>
      <point x="240.682" y="60.818" type="curve" smooth="yes"/>
      <point x="178.53800000000004" y="60.818"/>
      <point x="146.03400000000002" y="94.63600000000001"/>
      <point x="146.03400000000002" y="153.13" type="curve" smooth="yes"/>
      <point x="146.03400000000002" y="536.2" type="line"/>
      <point x="62.297999999999995" y="536.2" type="line"/>
      <point x="62.297999999999995" y="135.89400000000003" type="line" smooth="yes"/>
      <point x="62.297999999999995" y="38.300000000000004"/>
      <point x="119.098" y="-10.0"/>
    </contour>
  </outline>
</glyph>
<glyph name="v" format="2">
  <advance width="506.242"/>
  <unicode hex="0076"/>
  <outline>
    <contour>
      <point x="207.11200000000002" y="0.0" type="line"/>
      <point x="297.92400000000004" y="0.0" type="line"/>
      <point x="495.618" y="533.716" type="line"/>
      <point x="409.142" y="538.6840000000001" type="line"/>
      <point x="255.274" y="83.156" type="line"/>
      <point x="97.71999999999998" y="538.6840000000001" type="line"/>
      <point x="10.313999999999998" y="533.716" type="line"/>
    </contour>
  </outline>
</glyph>
<glyph name="w" format="2">
  <advance width="728.288"/>
  <unicode hex="0077"/>
  <anchor x="363.706" y="536.2" name="top"/>
  <anchor x="363.706" y="0.0" name="bottom"/>
  <outline>
    <contour>
      <point x="153.51600000000002" y="0.0" type="line"/>
      <point x="247.822" y="0.0" type="line"/>
      <point x="362.714" y="437.464" type="line"/>
      <point x="480.032" y="0.0" type="line"/>
      <point x="572.168" y="0.0" type="line"/>
      <point x="716.962" y="533.378" type="line"/>
      <point x="635.156" y="538.394" type="line"/>
      <point x="525.178" y="86.81" type="line"/>
      <point x="407.744" y="536.2" type="line"/>
      <point x="319.54400000000004" y="536.2" type="line"/>
      <point x="204.49" y="86.182" type="line"/>
      <point x="94.558" y="538.394" type="line"/>
      <point x="10.325999999999999" y="533.378" type="line"/>
    </contour>
  </outline>
</glyph>
<glyph name="x" format="2">
  <advance width="521.22"/>
  <unicode hex="0078"/>
  <outline>
    <contour>
      <point x="9.66" y="-3.885780586188048e-16" type="line"/>
      <point x="105.02000000000001" y="-5.9" type="line"/>
      <point x="260.41999999999996" y="214.84" type="line"/>
      <point x="416.2" y="-5.9" type="line"/>
      <point x="511.94000000000005" y="-3.885780586188048e-16" type="line"/>
      <point x="309.38" y="274.62" type="line"/>
      <point x="499.41999999999996" y="533.44" type="line"/>
      <point x="409.88" y="539.96" type="line"/>
      <point x="264.52" y="331.16" type="line"/>
      <point x="119.77999999999999" y="539.9599999999999" type="line"/>
      <point x="24.04" y="533.06" type="line"/>
      <point x="213.7" y="272.0" type="line"/>
    </contour>
  </outline>
</glyph>
<glyph name="y" format="2">
  <advance width="507.88200000000006"/>
  <unicode hex="0079"/>
  <anchor x="247.454" y="536.2" name="top"/>
  <anchor x="405.89000000000004" y="0.0" name="bottom"/>
  <outline>
    <contour>
      <point x="165.488" y="-207.91600000000003" type="line"/>
      <point x="250.01600000000002" y="-212.93200000000002" type="line"/>
      <point x="496.926" y="535.22" type="line"/>
      <point x="411.262" y="539.636" type="line"/>
      <point x="267.172" y="75.74399999999999" type="line"/>
      <point x="101.172" y="539.7880000000001" type="line"/>
      <point x="10.728" y="534.82" type="line"/>
      <point x="217.366" y="0.0" type="line"/>
      <point x="232.868" y="0.0" type="line"/>
    </contour>
  </outline>
</glyph>
<glyph name="z" format="2">
  <advance width="478.772"/>
  <unicode hex="007A"/>
  <anchor x="243.80399999999997" y="536.2" name="top"/>
  <outline>
    <contour>
      <point x="26.987999999999996" y="0.0" type="line"/>
      <point x="456.92400000000004" y="0.0" type="line"/>
      <point x="456.92400000000004" y="67.512" type="line"/>
      <point x="131.412" y="67.512" type="line"/>
      <point x="437.80799999999994" y="476.65999999999997" type="line"/>
      <point x="437.80799999999994" y="536.2" type="line"/>
      <point x="41.536" y="536.2" type="line"/>
      <point x="41.536" y="469.30800000000005" type="line"/>
      <point x="336.09200000000004" y="469.30800000000005" type="line"/>
      <point x="26.987999999999996" y="60.16" type="line"/>
    </contour>
  </outline>
</glyph>
<glyph name="braceleft" format="2">
  <advance width="315.386"/>
  <unicode hex="007B"/>
  <outline>
    <contour>
      <point x="96.414" y="-59.681999999999995" type="curve" smooth="yes"/>
      <point x="96.414" y="-149.524"/>
      <point x="140.14600000000002" y="-210.186"/>
      <point x="228.31" y="-210.186" type="curve" smooth="yes"/>
      <point x="281.72400000000005" y="-210.186" type="line"/>
      <point x="281.72400000000005" y="-149.266" type="line"/>
      <point x="246.91" y="-149.266" type="line" smooth="yes"/>
      <point x="187.92999999999998" y="-149.266"/>
      <point x="169.362" y="-104.18400000000001"/>
      <point x="169.362" y="-51.312" type="curve" smooth="yes"/>
      <point x="169.362" y="17.631999999999998"/>
      <point x="201.55599999999998" y="77.916"/>
      <point x="201.55599999999998" y="151.444" type="curve" smooth="yes"/>
      <point x="201.55599999999998" y="191.578"/>
      <point x="190.86800000000002" y="243.898"/>
      <point x="144.808" y="265.0" type="curve"/>
      <point x="190.592" y="288.96599999999995"/>
      <point x="201.55599999999998" y="337.684"/>
      <point x="201.55599999999998" y="377.818" type="curve" smooth="yes"/>
      <point x="201.55599999999998" y="449.552"/>
      <point x="169.362" y="508.45599999999996"/>
      <point x="169.362" y="580.5740000000001" type="curve" smooth="yes"/>
      <point x="169.362" y="633.4459999999999"/>
      <point x="187.92999999999998" y="679.08"/>
      <point x="246.91" y="679.08" type="curve" smooth="yes"/>
      <point x="281.72400000000005" y="679.08" type="line"/>
      <point x="281.72400000000005" y="740.0" type="line"/>
      <point x="228.31" y="740.0" type="line" smooth="yes"/>
      <point x="140.14600000000002" y="740.0"/>
      <point x="96.414" y="678.786"/>
      <point x="96.414" y="588.9440000000001" type="curve" smooth="yes"/>
      <point x="96.414" y="500.15"/>
      <point x="130.778" y="443.316"/>
      <point x="130.778" y="375.648" type="curve" smooth="yes"/>
      <point x="130.778" y="337.99"/>
      <point x="120.35600000000001" y="296.08"/>
      <point x="86.35399999999998" y="296.08" type="curve" smooth="yes"/>
      <point x="66.656" y="296.08" type="line"/>
      <point x="66.656" y="233.734" type="line"/>
      <point x="86.35399999999998" y="233.734" type="line" smooth="yes"/>
      <point x="120.35600000000001" y="233.734"/>
      <point x="130.778" y="191.686"/>
      <point x="130.778" y="153.61399999999998" type="curve" smooth="yes"/>
      <point x="130.778" y="85.256"/>
      <point x="96.414" y="25.662"/>
    </contour>
  </outline>
</glyph>
<glyph name="bar" format="2">
  <advance width="204.876"/>
  <unicode hex="007C"/>
  <outline>
    <contour>
      <point x="137.54799999999997" y="790.1859999999999" type="line"/>
      <point x="67.328" y="790.1859999999999" type="line"/>
      <point x="67.328" y="-210.0" type="line"/>
      <point x="137.54799999999997" y="-210.0" type="line"/>
    </contour>
  </outline>
</glyph>
<glyph name="braceright" format="2">
  <advance width="315.386"/>
  <unicode hex="007D"/>
  <outline>
    <contour>
      <point x="33.662000000000006" y="-149.266" type="line"/>
      <point x="33.662000000000006" y="-210.186" type="line"/>
      <point x="87.49000000000001" y="-210.186" type="line" smooth="yes"/>
      <point x="175.654" y="-210.186"/>
      <point x="219.386" y="-149.524"/>
      <point x="219.386" y="-59.681999999999995" type="curve" smooth="yes"/>
      <point x="219.386" y="25.662"/>
      <point x="185.022" y="85.256"/>
      <point x="185.022" y="153.61399999999998" type="curve" smooth="yes"/>
      <point x="185.022" y="191.686"/>
      <point x="195.444" y="233.734"/>
      <point x="229.446" y="233.734" type="curve" smooth="yes"/>
      <point x="248.73000000000002" y="233.734" type="line"/>
      <point x="248.73000000000002" y="296.08" type="line"/>
      <point x="229.446" y="296.08" type="line" smooth="yes"/>
      <point x="195.03" y="296.08"/>
      <point x="185.022" y="337.99"/>
      <point x="185.022" y="375.648" type="curve" smooth="yes"/>
      <point x="185.022" y="443.316"/>
      <point x="219.386" y="500.15"/>
      <point x="219.386" y="588.9440000000001" type="curve" smooth="yes"/>
      <point x="219.386" y="678.786"/>
      <point x="175.654" y="740.0"/>
      <point x="87.49000000000001" y="740.0" type="curve" smooth="yes"/>
      <point x="33.662000000000006" y="740.0" type="line"/>
      <point x="33.662000000000006" y="679.08" type="line"/>
      <point x="65.72800000000001" y="679.08" type="line" smooth="yes"/>
      <point x="124.29400000000001" y="679.08"/>
      <point x="143.27599999999998" y="633.4459999999999"/>
      <point x="143.27599999999998" y="580.5740000000001" type="curve" smooth="yes"/>
      <point x="143.27599999999998" y="508.45599999999996"/>
      <point x="111.082" y="449.552"/>
      <point x="111.082" y="377.818" type="curve" smooth="yes"/>
      <point x="111.082" y="337.684"/>
      <point x="121.632" y="288.96599999999995"/>
      <point x="167.83" y="265.0" type="curve"/>
      <point x="121.356" y="243.898"/>
      <point x="111.082" y="191.578"/>
      <point x="111.082" y="151.444" type="curve" smooth="yes"/>
      <point x="111.082" y="77.916"/>
      <point x="143.27599999999998" y="17.631999999999998"/>
      <point x="143.27599999999998" y="-51.312" type="curve" smooth="yes"/>
      <point x="143.27599999999998" y="-104.18400000000001"/>
      <point x="124.29400000000001" y="-149.266"/>
      <point x="65.72800000000001" y="-149.266" type="curve" smooth="yes"/>
    </contour>
  </outline>
</glyph>
<glyph name="asciitilde" format="2">
  <advance width="482.828"/>
  <unicode hex="007E"/>
  <outline>
    <contour>
      <point x="422.66" y="249.576" type="curve"/>
      <point x="422.66" y="321.11" type="line"/>
      <point x="399.642" y="296.76599999999996"/>
      <point x="376.116" y="281.66"/>
      <point x="343.492" y="281.66" type="curve" smooth="yes"/>
      <point x="262.926" y="281.66"/>
      <point x="219.812" y="382.226"/>
      <point x="141.10600000000002" y="382.226" type="curve" smooth="yes"/>
      <point x="102.566" y="382.226"/>
      <point x="76.358" y="363.438"/>
      <point x="60.706" y="346.50199999999995" type="curve"/>
      <point x="60.706" y="274.692" type="line"/>
      <point x="79.70599999999999" y="294.578"/>
      <point x="103.84599999999999" y="313.37"/>
      <point x="139.88" y="313.37" type="curve" smooth="yes"/>
      <point x="213.188" y="313.37"/>
      <point x="258.204" y="212.67999999999998"/>
      <point x="343.754" y="212.67999999999998" type="curve" smooth="yes"/>
      <point x="377.40000000000003" y="212.67999999999998"/>
      <point x="401.642" y="227.24599999999998"/>
    </contour>
  </outline>
</glyph>
<glyph name="exclamdown" format="2">
  <advance width="225.49200000000002"/>
  <unicode hex="00A1"/>
  <outline>
    <contour>
      <point x="149.964" y="273.626" type="line"/>
      <point x="76.76800000000001" y="273.626" type="line"/>
      <point x="71.31200000000001" y="-203.924" type="line"/>
      <point x="154.862" y="-203.924" type="line"/>
    </contour>
    <contour>
      <point x="160.744" y="491.672" type="curve" smooth="yes"/>
      <point x="160.744" y="526.52"/>
      <point x="149.68" y="539.3"/>
      <point x="112.74600000000001" y="539.3" type="curve" smooth="yes"/>
      <point x="76.50200000000001" y="539.3"/>
      <point x="64.748" y="526.52"/>
      <point x="64.748" y="491.672" type="curve" smooth="yes"/>
      <point x="64.748" y="456.514"/>
      <point x="75.81200000000001" y="443.73400000000004"/>
      <point x="112.74600000000001" y="443.73400000000004" type="curve" smooth="yes"/>
      <point x="149.68" y="443.73400000000004"/>
      <point x="160.744" y="456.514"/>
    </contour>
  </outline>
</glyph>
<glyph name="cent" format="2">
  <advance width="597.204"/>
  <unicode hex="00A2"/>
  <outline>
    <contour>
      <point x="320.11800000000005" y="-10.186" type="curve" smooth="yes"/>
      <point x="379.978" y="-10.186"/>
      <point x="448.58599999999996" y="-1.8699999999999999"/>
      <point x="498.538" y="12.010000000000002" type="curve"/>
      <point x="485.30000000000007" y="79.5" type="line"/>
      <point x="439.6" y="69.03800000000001"/>
      <point x="384.88800000000003" y="62.906"/>
      <point x="338.55400000000003" y="62.906" type="curve" smooth="yes"/>
      <point x="237.342" y="62.906"/>
      <point x="183.002" y="127.2"/>
      <point x="183.002" y="258.752" type="curve" smooth="yes"/>
      <point x="183.002" y="402.556"/>
      <point x="241.98200000000003" y="472.488"/>
      <point x="345.9" y="472.488" type="curve" smooth="yes"/>
      <point x="392.494" y="472.488"/>
      <point x="428.98" y="467.44"/>
      <point x="476.71999999999997" y="455.804" type="curve"/>
      <point x="489.25600000000003" y="526.208" type="line"/>
      <point x="441.148" y="539.174"/>
      <point x="393.348" y="546.572"/>
      <point x="334.802" y="546.572" type="curve" smooth="yes"/>
      <point x="172.876" y="546.572"/>
      <point x="98.646" y="435.22"/>
      <point x="98.646" y="256.89200000000005" type="curve" smooth="yes"/>
      <point x="98.646" y="79.632"/>
      <point x="173.368" y="-10.186"/>
    </contour>
    <contour>
      <point x="279.788" y="-105.186" type="line"/>
      <point x="348.458" y="-105.186" type="line"/>
      <point x="348.458" y="0.4219999999999996" type="line"/>
      <point x="279.788" y="3.806" type="line"/>
    </contour>
    <contour>
      <point x="279.788" y="530.712" type="line"/>
      <point x="348.458" y="536.736" type="line"/>
      <point x="348.458" y="641.014" type="line"/>
      <point x="279.788" y="641.014" type="line"/>
    </contour>
  </outline>
</glyph>
<glyph name="sterling" format="2">
  <advance width="597.948"/>
  <unicode hex="00A3"/>
  <outline>
    <contour>
      <point x="75.55600000000001" y="0.0" type="line"/>
      <point x="543.332" y="0.0" type="line"/>
      <point x="543.332" y="68.97999999999999" type="line"/>
      <point x="173.02" y="68.97999999999999" type="line"/>
      <point x="233.22799999999998" y="131.76"/>
      <point x="265.368" y="178.72400000000002"/>
      <point x="265.368" y="249.792" type="curve" smooth="yes"/>
      <point x="265.368" y="342.216"/>
      <point x="197.124" y="399.85999999999996"/>
      <point x="197.124" y="493.312" type="curve" smooth="yes"/>
      <point x="197.124" y="592.84"/>
      <point x="262.49600000000004" y="635.4399999999999"/>
      <point x="354.708" y="635.4399999999999" type="curve" smooth="yes"/>
      <point x="403.036" y="635.4399999999999"/>
      <point x="467.66" y="626.908"/>
      <point x="513.4839999999999" y="614.8319999999999" type="curve"/>
      <point x="526.6199999999999" y="681.04" type="line"/>
      <point x="480.028" y="698.4560000000001"/>
      <point x="403.316" y="710.0"/>
      <point x="343.548" y="710.0" type="curve" smooth="yes"/>
      <point x="192.364" y="710.0"/>
      <point x="110.164" y="633.3160000000001"/>
      <point x="110.164" y="514.86" type="curve" smooth="yes"/>
      <point x="110.164" y="395.136"/>
      <point x="183.988" y="343.96"/>
      <point x="183.988" y="245.76799999999997" type="curve" smooth="yes"/>
      <point x="183.988" y="177.764"/>
      <point x="153.38" y="135.308"/>
      <point x="75.55600000000001" y="57.199999999999996" type="curve"/>
    </contour>
    <contour>
      <point x="64.96" y="330.03999999999996" type="line"/>
      <point x="453.96000000000004" y="330.03999999999996" type="line"/>
      <point x="453.96000000000004" y="391.58" type="line"/>
      <point x="64.96" y="391.58" type="line"/>
    </contour>
  </outline>
</glyph>
<glyph name="currency" format="2">
  <advance width="452.39"/>
  <unicode hex="00A4"/>
  <outline>
    <contour>
      <point x="39.442" y="435.128" type="line"/>
      <point x="105.878" y="367.692" type="line"/>
      <point x="91.52799999999999" y="347.29600000000005"/>
      <point x="82.566" y="321.946"/>
      <point x="82.566" y="293.588" type="curve" smooth="yes"/>
      <point x="82.566" y="264.92"/>
      <point x="91.52799999999999" y="239.074"/>
      <point x="106.878" y="218.49200000000002" type="curve"/>
      <point x="39.442" y="151.05599999999998" type="line"/>
      <point x="84.50399999999999" y="105.994" type="line"/>
      <point x="155.722" y="177.088" type="line"/>
      <point x="174.878" y="162.668"/>
      <point x="199.36" y="155.078"/>
      <point x="226.036" y="155.078" type="curve" smooth="yes"/>
      <point x="252.588" y="155.078"/>
      <point x="277.326" y="162.792"/>
      <point x="296.544" y="177.026" type="curve"/>
      <point x="367.88599999999997" y="105.994" type="line"/>
      <point x="412.948" y="151.05599999999998" type="line"/>
      <point x="345.636" y="218.182" type="line"/>
      <point x="360.924" y="239.012"/>
      <point x="370.072" y="264.796"/>
      <point x="370.072" y="293.588" type="curve" smooth="yes"/>
      <point x="370.072" y="321.884"/>
      <point x="361.048" y="347.358"/>
      <point x="345.822" y="368.002" type="curve"/>
      <point x="412.948" y="435.128" type="line"/>
      <point x="367.88599999999997" y="480.19" type="line"/>
      <point x="297.288" y="409.592" type="line"/>
      <point x="277.884" y="423.95"/>
      <point x="253.464" y="432.53999999999996"/>
      <point x="226.036" y="432.53999999999996" type="curve" smooth="yes"/>
      <point x="198.298" y="432.53999999999996"/>
      <point x="173.816" y="423.764"/>
      <point x="154.28799999999998" y="409.53" type="curve"/>
      <point x="84.50399999999999" y="480.19" type="line"/>
    </contour>
    <contour>
      <point x="225.912" y="206.388" type="curve" smooth="yes"/>
      <point x="177.118" y="206.388"/>
      <point x="138.898" y="244.48399999999998"/>
      <point x="138.898" y="293.402" type="curve" smooth="yes"/>
      <point x="138.898" y="342.266"/>
      <point x="176.994" y="381.044"/>
      <point x="225.912" y="381.044" type="curve" smooth="yes"/>
      <point x="275.52000000000004" y="381.044"/>
      <point x="313.74" y="342.266"/>
      <point x="313.74" y="293.402" type="curve" smooth="yes"/>
      <point x="313.74" y="244.48399999999998"/>
      <point x="275.396" y="206.388"/>
    </contour>
  </outline>
</glyph>
<glyph name="yen" format="2">
  <advance width="598.1"/>
  <unicode hex="00A5"/>
  <outline>
    <contour>
      <point x="84.75999999999999" y="336.24" type="line"/>
      <point x="259.02" y="336.24" type="line"/>
      <point x="259.02" y="242.9" type="line"/>
      <point x="84.75999999999999" y="242.9" type="line"/>
      <point x="84.75999999999999" y="191.9" type="line"/>
      <point x="259.02" y="191.9" type="line"/>
      <point x="259.02" y="0.0" type="line"/>
      <point x="346.6" y="0.0" type="line"/>
      <point x="346.6" y="191.9" type="line"/>
      <point x="522.0999999999999" y="191.9" type="line"/>
      <point x="522.0999999999999" y="242.9" type="line"/>
      <point x="346.6" y="242.9" type="line"/>
      <point x="346.6" y="336.24" type="line"/>
      <point x="522.0999999999999" y="336.24" type="line"/>
      <point x="522.0999999999999" y="387.23999999999995" type="line"/>
      <point x="346.6" y="387.23999999999995" type="line"/>
      <point x="546.1600000000001" y="696.86" type="line"/>
      <point x="456.38" y="703.76" type="line"/>
      <point x="302.49999999999994" y="443.2" type="line"/>
      <point x="142.34" y="703.76" type="line"/>
      <point x="52.56" y="696.86" type="line"/>
      <point x="259.02" y="387.23999999999995" type="line"/>
      <point x="84.75999999999999" y="387.23999999999995" type="line"/>
    </contour>
  </outline>
</glyph>
<glyph name="brokenbar" format="2">
  <advance width="204.69"/>
  <unicode hex="00A6"/>
  <outline>
    <contour>
      <point x="137.362" y="391.0" type="line"/>
      <point x="137.362" y="790.1859999999999" type="line"/>
      <point x="67.328" y="790.1859999999999" type="line"/>
      <point x="67.328" y="391.0" type="line"/>
    </contour>
    <contour>
      <point x="67.328" y="190.186" type="line"/>
      <point x="67.328" y="-210.0" type="line"/>
      <point x="137.362" y="-210.0" type="line"/>
      <point x="137.362" y="190.186" type="line"/>
    </contour>
  </outline>
</glyph>
<glyph name="section" format="2">
  <advance width="505.916"/>
  <unicode hex="00A7"/>
  <outline>
    <contour>
      <point x="218.84" y="-220.62" type="curve" smooth="yes"/>
      <point x="359.56" y="-220.62"/>
      <point x="466.16" y="-106.59599999999999"/>
      <point x="466.16" y="56.312" type="curve" smooth="yes"/>
      <point x="466.16" y="142.51599999999996"/>
      <point x="441.62800000000004" y="225.832"/>
      <point x="364.752" y="388.31199999999995" type="curve" smooth="yes"/>
      <point x="305.952" y="517.6119999999999"/>
      <point x="290.244" y="552.8639999999999"/>
      <point x="290.244" y="591.892" type="curve" smooth="yes"/>
      <point x="290.244" y="639.9839999999999"/>
      <point x="318.284" y="669.0239999999999"/>
      <point x="365.388" y="669.0239999999999" type="curve" smooth="yes"/>
      <point x="383.44" y="669.0239999999999"/>
      <point x="403.18800000000005" y="665.6439999999999"/>
      <point x="429.60800000000006" y="655.732" type="curve"/>
      <point x="445.36400000000003" y="726.9879999999999" type="line"/>
      <point x="404.112" y="742.456"/>
      <point x="360.076" y="749.7719999999999"/>
      <point x="315.73600000000005" y="749.7719999999999" type="curve" smooth="yes"/>
      <point x="149.87199999999999" y="749.7719999999999"/>
      <point x="49.800000000000004" y="645.3679999999999"/>
      <point x="50.66" y="476.116" type="curve" smooth="yes"/>
      <point x="51.28" y="382.86"/>
      <point x="74.56" y="298.136"/>
      <point x="150.776" y="143.84" type="curve" smooth="yes"/>
      <point x="201.6" y="30.696"/>
      <point x="224.6" y="-14.040000000000003"/>
      <point x="224.75199999999998" y="-62.992" type="curve" smooth="yes"/>
      <point x="224.904" y="-108.856"/>
      <point x="195.09199999999998" y="-137.884"/>
      <point x="149.812" y="-137.884" type="curve" smooth="yes"/>
      <point x="118.22800000000001" y="-137.884"/>
      <point x="92.94800000000001" y="-127.51599999999998"/>
      <point x="53.312" y="-98.348" type="curve"/>
      <point x="34.175999999999995" y="-167.21200000000002" type="line"/>
      <point x="94.88399999999999" y="-205.772"/>
      <point x="146.42399999999998" y="-220.62"/>
    </contour>
    <contour>
      <point x="218.056" y="-170.128" type="curve" smooth="yes"/>
      <point x="191.144" y="-170.128"/>
      <point x="170.28400000000002" y="-166.73599999999996"/>
      <point x="151.57600000000002" y="-159.25599999999997" type="curve"/>
      <point x="175.332" y="-175.988" type="line"/>
      <point x="244.088" y="-177.76"/>
      <point x="288.78400000000005" y="-128.18"/>
      <point x="288.78400000000005" y="-63.22" type="curve" smooth="yes"/>
      <point x="288.78400000000005" y="-11.991999999999994"/>
      <point x="272.07599999999996" y="41.752"/>
      <point x="210.48" y="171.06" type="curve" smooth="yes"/>
      <point x="137.604" y="325.82800000000003"/>
      <point x="114.452" y="398.34800000000007"/>
      <point x="114.452" y="490.376" type="curve" smooth="yes"/>
      <point x="114.452" y="616.032"/>
      <point x="178.536" y="686.8159999999999"/>
      <point x="273.548" y="686.8159999999999" type="curve" smooth="yes"/>
      <point x="288.82399999999996" y="686.8159999999999"/>
      <point x="299.06399999999996" y="685.4239999999999"/>
      <point x="315.25199999999995" y="681.792" type="curve"/>
      <point x="300.116" y="696.916" type="line"/>
      <point x="251.23999999999998" y="692.6239999999999"/>
      <point x="226.376" y="641.4760000000001"/>
      <point x="225.604" y="594.688" type="curve" smooth="yes"/>
      <point x="225.604" y="542.816"/>
      <point x="241.908" y="496.652"/>
      <point x="303.58" y="365.04" type="curve" smooth="yes"/>
      <point x="380.07599999999996" y="196.81599999999997"/>
      <point x="403.216" y="126.49600000000001"/>
      <point x="403.216" y="46.391999999999996" type="curve" smooth="yes"/>
      <point x="403.36800000000005" y="-73.568"/>
      <point x="339.24800000000005" y="-169.976"/>
    </contour>
  </outline>
</glyph>
<glyph name="copyright" format="2">
  <advance width="667.792"/>
  <unicode hex="00A9"/>
  <outline>
    <contour>
      <point x="334.02" y="26.676000000000002" type="curve" smooth="yes"/>
      <point x="182.782" y="26.676000000000002"/>
      <point x="85.49" y="118.70799999999998"/>
      <point x="85.49" y="349.938" type="curve" smooth="yes"/>
      <point x="85.49" y="581.8299999999999"/>
      <point x="183.03" y="672.704"/>
      <point x="334.02" y="672.704" type="curve" smooth="yes"/>
      <point x="485.31999999999994" y="672.704"/>
      <point x="582.1160000000001" y="581.8299999999999"/>
      <point x="582.1160000000001" y="349.938" type="curve" smooth="yes"/>
      <point x="582.1160000000001" y="118.70799999999998"/>
      <point x="485.568" y="26.676000000000002"/>
    </contour>
    <contour>
      <point x="334.02" y="710.0" type="curve" smooth="yes"/>
      <point x="159.656" y="710.0"/>
      <point x="45.900000000000006" y="604.216"/>
      <point x="45.900000000000006" y="349.938" type="curve" smooth="yes"/>
      <point x="45.900000000000006" y="96.25999999999999"/>
      <point x="159.408" y="-10.0"/>
      <point x="334.02" y="-10.0" type="curve" smooth="yes"/>
      <point x="508.3840000000001" y="-10.0"/>
      <point x="621.892" y="96.25999999999999"/>
      <point x="621.892" y="349.938" type="curve" smooth="yes"/>
      <point x="621.892" y="604.216"/>
      <point x="508.38400000000007" y="710.0"/>
    </contour>
    <contour>
      <point x="192.46" y="340.15999999999997" type="curve" smooth="yes"/>
      <point x="192.46" y="214.43800000000002"/>
      <point x="248.98" y="158.552"/>
      <point x="338.446" y="158.552" type="curve" smooth="yes"/>
      <point x="384.93600000000004" y="158.552"/>
      <point x="428.01399999999995" y="166.71000000000004"/>
      <point x="456.40599999999995" y="177.09" type="curve"/>
      <point x="446.336" y="227.448" type="line"/>
      <point x="423.31200000000007" y="220.88399999999996"/>
      <point x="386.69" y="213.85"/>
      <point x="347.43600000000004" y="213.85" type="curve" smooth="yes"/>
      <point x="284.632" y="213.85"/>
      <point x="256.41800000000006" y="255.42000000000002"/>
      <point x="256.41800000000006" y="339.84999999999997" type="curve" smooth="yes"/>
      <point x="256.41800000000006" y="444.22399999999993"/>
      <point x="293.06399999999996" y="479.62399999999997"/>
      <point x="357.2820000000001" y="479.62399999999997" type="curve" smooth="yes"/>
      <point x="384.93199999999996" y="479.62399999999997"/>
      <point x="412.67600000000004" y="475.268"/>
      <point x="437.76" y="468.178" type="curve"/>
      <point x="448.884" y="518.784" type="line"/>
      <point x="419.046" y="530.4000000000001"/>
      <point x="384.802" y="535.17"/>
      <point x="349.346" y="535.17" type="curve" smooth="yes"/>
      <point x="258.12800000000004" y="535.17"/>
      <point x="192.46" y="484.44399999999996"/>
    </contour>
  </outline>
</glyph>
<glyph name="ordfeminine" format="2">
  <advance width="356.446"/>
  <unicode hex="00AA"/>
  <outline>
    <contour>
      <point x="43.546" y="263.23799999999994" type="line"/>
      <point x="324.00800000000004" y="263.23799999999994" type="line"/>
      <point x="324.00800000000004" y="310.198" type="line"/>
      <point x="43.546" y="310.198" type="line"/>
    </contour>
    <component base="a.superior" xOffset="11.588000000000001"/>
  </outline>
</glyph>
<glyph name="logicalnot" format="2">
  <advance width="482.828"/>
  <unicode hex="00AC"/>
  <outline>
    <contour>
      <point x="50.442" y="353.186" type="line"/>
      <point x="363.82000000000005" y="353.186" type="line"/>
      <point x="363.82000000000005" y="174.272" type="line"/>
      <point x="432.8" y="174.272" type="line"/>
      <point x="432.8" y="422.166" type="line"/>
      <point x="50.442" y="422.166" type="line"/>
    </contour>
  </outline>
</glyph>
<glyph name="registered" format="2">
  <advance width="639.8840000000001"/>
  <unicode hex="00AE"/>
  <outline>
    <contour>
      <point x="318.072" y="207.84199999999998" type="curve" smooth="yes"/>
      <point x="486.138" y="207.84199999999998"/>
      <point x="593.9839999999999" y="308.05600000000004"/>
      <point x="593.9839999999999" y="550.276" type="curve" smooth="yes"/>
      <point x="593.9839999999999" y="792.042"/>
      <point x="486.26199999999994" y="892.71"/>
      <point x="318.072" y="892.71" type="curve" smooth="yes"/>
      <point x="152.672" y="892.71"/>
      <point x="45.900000000000006" y="792.042"/>
      <point x="45.900000000000006" y="550.276" type="curve" smooth="yes"/>
      <point x="45.900000000000006" y="309.358"/>
      <point x="152.238" y="207.84199999999998"/>
    </contour>
    <contour>
      <point x="318.072" y="242.58800000000002" type="curve" smooth="yes"/>
      <point x="174.55" y="242.58800000000002"/>
      <point x="83.72600000000001" y="330.682"/>
      <point x="83.72600000000001" y="550.276" type="curve" smooth="yes"/>
      <point x="83.72600000000001" y="770.5939999999999"/>
      <point x="174.42600000000002" y="857.0960000000001"/>
      <point x="318.072" y="857.0960000000001" type="curve" smooth="yes"/>
      <point x="464.75600000000003" y="857.0960000000001"/>
      <point x="556.2619999999998" y="770.718"/>
      <point x="556.2619999999998" y="550.276" type="curve" smooth="yes"/>
      <point x="556.2619999999998" y="330.248"/>
      <point x="464.446" y="242.58800000000002"/>
    </contour>
    <contour>
      <point x="462.48199999999997" y="385.202" type="curve" smooth="yes"/>
      <point x="465.97799999999995" y="385.202"/>
      <point x="469.05199999999996" y="385.202"/>
      <point x="473.066" y="385.61600000000004" type="curve"/>
      <point x="471.824" y="439.78999999999996" type="line"/>
      <point x="470.258" y="439.376"/>
      <point x="468.548" y="439.376"/>
      <point x="466.548" y="439.376" type="curve" smooth="yes"/>
      <point x="441.38199999999995" y="439.562"/>
      <point x="411.34200000000004" y="470.47999999999996"/>
      <point x="378.35200000000003" y="530.3399999999999" type="curve"/>
      <point x="425.01000000000005" y="542.064"/>
      <point x="447.53799999999995" y="575.1840000000001"/>
      <point x="447.53799999999995" y="629.476" type="curve" smooth="yes"/>
      <point x="447.53799999999995" y="700.054"/>
      <point x="408.91799999999995" y="727.95"/>
      <point x="311.56600000000003" y="727.95" type="curve" smooth="yes"/>
      <point x="279.38199999999995" y="727.95"/>
      <point x="245.87199999999999" y="726.3779999999999"/>
      <point x="199.52200000000002" y="722.778" type="curve"/>
      <point x="199.52200000000002" y="387.85600000000005" type="line"/>
      <point x="256.466" y="387.85600000000005" type="line"/>
      <point x="256.466" y="515.444" type="line"/>
      <point x="274.504" y="514.878"/>
      <point x="288.59400000000005" y="514.064"/>
      <point x="304.382" y="514.064" type="curve" smooth="yes"/>
      <point x="309.94800000000004" y="514.064"/>
      <point x="315.01800000000003" y="514.064"/>
      <point x="320.274" y="514.4780000000001" type="curve"/>
      <point x="370.078" y="415.898"/>
      <point x="417.57" y="385.512"/>
    </contour>
    <contour>
      <point x="309.112" y="553.73" type="curve" smooth="yes"/>
      <point x="292.43600000000004" y="553.73"/>
      <point x="277.89200000000005" y="554.0060000000002"/>
      <point x="256.466" y="554.8820000000001" type="curve"/>
      <point x="256.466" y="678.312" type="line"/>
      <point x="282.31000000000006" y="680.588"/>
      <point x="290.67" y="681.154"/>
      <point x="312.91" y="681.154" type="curve" smooth="yes"/>
      <point x="376.58400000000006" y="681.154"/>
      <point x="389.23" y="660.9440000000001"/>
      <point x="389.23" y="622.2" type="curve" smooth="yes"/>
      <point x="389.23" y="573.76"/>
      <point x="368.288" y="553.73"/>
    </contour>
  </outline>
</glyph>
<glyph name="degree" format="2">
  <advance width="285.74"/>
  <unicode hex="00B0"/>
  <outline>
    <contour>
      <point x="142.304" y="466.68" type="curve" smooth="yes"/>
      <point x="215.83399999999997" y="466.68"/>
      <point x="256.608" y="524.894"/>
      <point x="256.608" y="593.86" type="curve" smooth="yes"/>
      <point x="256.608" y="660.78"/>
      <point x="217.942" y="722.42"/>
      <point x="142.304" y="722.42" type="curve" smooth="yes"/>
      <point x="66.418" y="722.42"/>
      <point x="29.131999999999998" y="660.78"/>
      <point x="29.131999999999998" y="593.86" type="curve" smooth="yes"/>
      <point x="29.131999999999998" y="524.894"/>
      <point x="68.774" y="466.68"/>
    </contour>
    <contour>
      <point x="142.304" y="523.756" type="curve" smooth="yes"/>
      <point x="106.93" y="523.756"/>
      <point x="86.20799999999998" y="554.122"/>
      <point x="86.20799999999998" y="593.674" type="curve" smooth="yes"/>
      <point x="86.20799999999998" y="632.3580000000001"/>
      <point x="106.49600000000001" y="664.352"/>
      <point x="142.304" y="664.352" type="curve" smooth="yes"/>
      <point x="177.864" y="664.352"/>
      <point x="199.78" y="632.3580000000001"/>
      <point x="199.78" y="593.674" type="curve" smooth="yes"/>
      <point x="199.78" y="554.122"/>
      <point x="177.678" y="523.756"/>
    </contour>
  </outline>
</glyph>
<glyph name="plusminus" format="2">
  <advance width="496.07599999999996"/>
  <unicode hex="00B1"/>
  <outline>
    <contour>
      <point x="48.786" y="49.556" type="line"/>
      <point x="447.29" y="49.556" type="line"/>
      <point x="447.29" y="118.536" type="line"/>
      <point x="284.946" y="118.536" type="line"/>
      <point x="284.946" y="288.762" type="line"/>
      <point x="447.29" y="288.762" type="line"/>
      <point x="447.29" y="357.742" type="line"/>
      <point x="284.946" y="357.742" type="line"/>
      <point x="284.946" y="523.29" type="line"/>
      <point x="211.006" y="523.29" type="line"/>
      <point x="211.006" y="357.742" type="line"/>
      <point x="48.786" y="357.742" type="line"/>
      <point x="48.786" y="288.762" type="line"/>
      <point x="211.006" y="288.762" type="line"/>
      <point x="211.006" y="118.536" type="line"/>
      <point x="48.786" y="118.536" type="line"/>
    </contour>
  </outline>
</glyph>
<glyph name="uni00B2" format="2">
  <advance width="397.466"/>
  <unicode hex="00B2"/>
  <outline>
    <contour>
      <point x="56.364" y="370.0" type="line"/>
      <point x="346.578" y="370.0" type="line"/>
      <point x="346.578" y="413.466" type="line"/>
      <point x="141.91199999999998" y="413.466" type="line"/>
      <point x="273.034" y="533.196"/>
      <point x="304.418" y="590.716"/>
      <point x="304.418" y="656.092" type="curve" smooth="yes"/>
      <point x="304.418" y="730.548"/>
      <point x="259.2" y="773.7860000000001"/>
      <point x="181.26" y="773.7860000000001" type="curve" smooth="yes"/>
      <point x="138.75" y="773.7860000000001"/>
      <point x="92.23400000000001" y="762.0780000000001"/>
      <point x="57.494" y="737.92" type="curve"/>
      <point x="75.97800000000001" y="693.596" type="line"/>
      <point x="107.616" y="714.06"/>
      <point x="137.566" y="720.75"/>
      <point x="168.638" y="720.75" type="curve" smooth="yes"/>
      <point x="214.952" y="720.75"/>
      <point x="240.978" y="690.9499999999999"/>
      <point x="240.978" y="644.254" type="curve" smooth="yes"/>
      <point x="240.978" y="588.492"/>
      <point x="194.402" y="522.952"/>
      <point x="54.294" y="408.738" type="curve"/>
    </contour>
  </outline>
</glyph>
<glyph name="uni00B3" format="2">
  <advance width="387.26800000000003"/>
  <unicode hex="00B3"/>
  <outline>
    <contour>
      <point x="32.239999999999995" y="394.732" type="line"/>
      <point x="76.006" y="371.014"/>
      <point x="121.168" y="361.488"/>
      <point x="179.05" y="361.488" type="curve" smooth="yes"/>
      <point x="282.324" y="361.488"/>
      <point x="346.57800000000003" y="405.61400000000003"/>
      <point x="346.57800000000003" y="484.17" type="curve" smooth="yes"/>
      <point x="346.57800000000003" y="534.6700000000001"/>
      <point x="317.90599999999995" y="568.6919999999999"/>
      <point x="262.516" y="579.5840000000001" type="curve"/>
      <point x="303.56" y="591.4780000000001"/>
      <point x="328.256" y="625.458"/>
      <point x="328.256" y="670.026" type="curve" smooth="yes"/>
      <point x="328.256" y="733.868"/>
      <point x="275.728" y="773.882"/>
      <point x="180.012" y="773.882" type="curve" smooth="yes"/>
      <point x="121.22600000000001" y="773.882"/>
      <point x="74.81400000000001" y="763.282"/>
      <point x="47.854000000000006" y="749.802" type="curve"/>
      <point x="62.286" y="708.536" type="line"/>
      <point x="81.534" y="716.276"/>
      <point x="111.196" y="725.2959999999999"/>
      <point x="166.13600000000002" y="725.2959999999999" type="curve" smooth="yes"/>
      <point x="229.126" y="725.2959999999999"/>
      <point x="269.26" y="699.8599999999999"/>
      <point x="269.26" y="657.48" type="curve" smooth="yes"/>
      <point x="269.26" y="620.0880000000001"/>
      <point x="243.84" y="594.368"/>
      <point x="191.17200000000003" y="594.368" type="curve" smooth="yes"/>
      <point x="113.74199999999999" y="594.368" type="line"/>
      <point x="113.74199999999999" y="554.0920000000001" type="line"/>
      <point x="187.052" y="554.0920000000001" type="line" smooth="yes"/>
      <point x="258.574" y="554.0920000000001"/>
      <point x="285.204" y="530.712"/>
      <point x="285.204" y="487.89" type="curve" smooth="yes"/>
      <point x="285.204" y="437.314"/>
      <point x="244.62800000000001" y="407.228"/>
      <point x="172.684" y="407.228" type="curve" smooth="yes"/>
      <point x="116.162" y="407.228"/>
      <point x="82.102" y="415.678"/>
      <point x="49.506" y="434.61999999999995" type="curve"/>
    </contour>
  </outline>
</glyph>
<glyph name="uni00B5" format="2">
  <advance width="545.98"/>
  <unicode hex="00B5"/>
  <outline>
    <contour>
      <point x="62.67" y="-210.0" type="line"/>
      <point x="144.546" y="-210.0" type="line"/>
      <point x="144.546" y="30.066000000000003" type="line"/>
      <point x="161.626" y="3.564"/>
      <point x="191.774" y="-9.628"/>
      <point x="233.506" y="-9.628" type="curve" smooth="yes"/>
      <point x="295.352" y="-9.628"/>
      <point x="344.17400000000004" y="12.788000000000002"/>
      <point x="397.00000000000006" y="44.88" type="curve"/>
      <point x="408.66200000000003" y="7.876"/>
      <point x="434.664" y="-10.0"/>
      <point x="473.548" y="-10.0" type="curve" smooth="yes"/>
      <point x="498.44399999999996" y="-10.0"/>
      <point x="522.328" y="-3.508"/>
      <point x="541.744" y="6.688" type="curve"/>
      <point x="532.1680000000001" y="65.882" type="line"/>
      <point x="523.3180000000001" y="61.75"/>
      <point x="514.02" y="59.784000000000006"/>
      <point x="505.122" y="59.784000000000006" type="curve" smooth="yes"/>
      <point x="484.31000000000006" y="59.784000000000006"/>
      <point x="468.34000000000003" y="73.08399999999999"/>
      <point x="468.34000000000003" y="115.06" type="curve" smooth="yes"/>
      <point x="468.34000000000003" y="536.2" type="line"/>
      <point x="384.79" y="536.2" type="line"/>
      <point x="384.79" y="104.242" type="line"/>
      <point x="335.376" y="77.73"/>
      <point x="292.50600000000003" y="59.888"/>
      <point x="241.054" y="59.888" type="curve" smooth="yes"/>
      <point x="178.91" y="59.888"/>
      <point x="146.406" y="93.70599999999999"/>
      <point x="146.406" y="152.20000000000002" type="curve" smooth="yes"/>
      <point x="146.406" y="536.2" type="line"/>
      <point x="62.67" y="536.2" type="line"/>
    </contour>
  </outline>
</glyph>
<glyph name="paragraph" format="2">
  <advance width="599.0040000000001"/>
  <unicode hex="00B6"/>
  <outline>
    <contour>
      <point x="460.51800000000003" y="-210.0" type="line"/>
      <point x="528.134" y="-210.0" type="line"/>
      <point x="528.134" y="740.0" type="line"/>
      <point x="460.51800000000003" y="740.0" type="line"/>
    </contour>
    <contour>
      <point x="246.788" y="249.496" type="line"/>
      <point x="156.802" y="263.258"/>
      <point x="112.57799999999999" y="340.498"/>
      <point x="112.57799999999999" y="463.08000000000004" type="curve" smooth="yes"/>
      <point x="112.57799999999999" y="590.278"/>
      <point x="168.23" y="668.578"/>
      <point x="295.826" y="671.4760000000001" type="curve"/>
      <point x="295.826" y="-210.0" type="line"/>
      <point x="363.44200000000006" y="-210.0" type="line"/>
      <point x="363.44200000000006" y="740.0" type="line"/>
      <point x="316.94" y="740.0" type="line" smooth="yes"/>
      <point x="115.992" y="740.0"/>
      <point x="38.886" y="630.018"/>
      <point x="38.886" y="468.226" type="curve" smooth="yes"/>
      <point x="38.886" y="315.70799999999997"/>
      <point x="101.07600000000001" y="216.47000000000003"/>
      <point x="238.94000000000003" y="196.078" type="curve"/>
    </contour>
  </outline>
</glyph>
<glyph name="periodcentered" format="2">
  <advance width="184.31199999999998"/>
  <unicode hex="00B7"/>
  <outline>
    <contour>
      <point x="43.676" y="298.15999999999997" type="curve" smooth="yes"/>
      <point x="43.676" y="262.94"/>
      <point x="55.988" y="250.16"/>
      <point x="92.232" y="250.16" type="curve" smooth="yes"/>
      <point x="129.476" y="250.16"/>
      <point x="140.78799999999998" y="262.94"/>
      <point x="140.78799999999998" y="298.15999999999997" type="curve" smooth="yes"/>
      <point x="140.78799999999998" y="334.0"/>
      <point x="129.476" y="346.78"/>
      <point x="92.232" y="346.78" type="curve" smooth="yes"/>
      <point x="54.988" y="346.78"/>
      <point x="43.676" y="334.0"/>
    </contour>
  </outline>
</glyph>
<glyph name="uni00B9" format="2">
  <advance width="363.252"/>
  <unicode hex="00B9"/>
  <outline>
    <contour>
      <point x="35.85" y="370.0" type="line"/>
      <point x="337.77799999999996" y="370.0" type="line"/>
      <point x="337.77799999999996" y="414.5" type="line"/>
      <point x="227.816" y="414.5" type="line"/>
      <point x="227.816" y="768.5180000000001" type="line"/>
      <point x="195.778" y="768.5180000000001" type="line"/>
      <point x="26.748" y="690.9540000000001" type="line"/>
      <point x="42.07" y="643.3140000000001" type="line"/>
      <point x="164.48600000000002" y="702.7760000000001" type="line"/>
      <point x="164.48600000000002" y="414.5" type="line"/>
      <point x="35.85" y="414.5" type="line"/>
    </contour>
  </outline>
</glyph>
<glyph name="ordmasculine" format="2">
  <advance width="373.588"/>
  <unicode hex="00BA"/>
  <outline>
    <contour>
      <point x="48.512" y="263.514" type="line"/>
      <point x="331.182" y="263.514" type="line"/>
      <point x="331.182" y="310.47400000000005" type="line"/>
      <point x="48.512" y="310.47400000000005" type="line"/>
    </contour>
    <component base="o.superior" xOffset="12.968"/>
  </outline>
</glyph>
<glyph name="questiondown" format="2">
  <advance width="449.154"/>
  <unicode hex="00BF"/>
  <outline>
    <contour>
      <point x="286.90000000000003" y="272.40799999999996" type="line"/>
      <point x="213.518" y="272.40799999999996" type="line"/>
      <point x="213.27" y="202.86599999999999" type="line"/>
      <point x="90.188" y="145.464"/>
      <point x="34.064" y="87.26"/>
      <point x="34.064" y="-21.779999999999998" type="curve" smooth="yes"/>
      <point x="34.064" y="-160.07999999999998"/>
      <point x="133.258" y="-215.784"/>
      <point x="239.512" y="-215.784" type="curve" smooth="yes"/>
      <point x="309.88000000000005" y="-215.784"/>
      <point x="388.002" y="-192.15800000000002"/>
      <point x="442.814" y="-151.67399999999998" type="curve"/>
      <point x="415.06" y="-86.26800000000001" type="line"/>
      <point x="361.604" y="-123.266"/>
      <point x="303.582" y="-139.282"/>
      <point x="251.23000000000002" y="-139.282" type="curve" smooth="yes"/>
      <point x="183.37000000000003" y="-139.282"/>
      <point x="120.818" y="-99.22800000000001"/>
      <point x="120.818" y="-13.928" type="curve" smooth="yes"/>
      <point x="120.818" y="57.212"/>
      <point x="156.61" y="109.27199999999999"/>
      <point x="288.512" y="163.84799999999998" type="curve"/>
    </contour>
    <contour>
      <point x="296.78200000000004" y="489.626" type="curve" smooth="yes"/>
      <point x="296.78200000000004" y="524.474"/>
      <point x="284.386" y="537.254"/>
      <point x="248.37" y="537.254" type="curve" smooth="yes"/>
      <point x="212.036" y="537.254"/>
      <point x="200.372" y="524.474"/>
      <point x="200.372" y="489.626" type="curve" smooth="yes"/>
      <point x="200.372" y="454.468"/>
      <point x="212.036" y="441.688"/>
      <point x="248.37" y="441.688" type="curve" smooth="yes"/>
      <point x="285.49" y="441.688"/>
      <point x="296.78200000000004" y="454.468"/>
    </contour>
  </outline>
</glyph>
<glyph name="AE" format="2">
  <advance width="934.2320000000001"/>
  <unicode hex="00C6"/>
  <anchor x="491.21199999999993" y="700.0" name="top"/>
  <outline>
    <contour>
      <point x="8.432" y="0.0" type="line"/>
      <point x="107.76799999999999" y="-0.8479999999999999" type="line"/>
      <point x="255.596" y="257.97599999999994" type="line"/>
      <point x="450.54" y="257.97599999999994" type="line"/>
      <point x="450.54" y="0.0" type="line"/>
      <point x="907.548" y="0.0" type="line"/>
      <point x="907.548" y="77.03999999999999" type="line"/>
      <point x="537.5" y="77.03999999999999" type="line"/>
      <point x="537.5" y="299.288" type="line"/>
      <point x="867.1560000000001" y="299.288" type="line"/>
      <point x="867.1560000000001" y="375.7080000000001" type="line"/>
      <point x="537.5" y="375.7080000000001" type="line"/>
      <point x="537.5" y="622.96" type="line"/>
      <point x="890.3199999999999" y="622.96" type="line"/>
      <point x="890.3199999999999" y="700.0" type="line"/>
      <point x="405.2" y="700.0" type="line"/>
    </contour>
    <contour>
      <point x="290.308" y="329.82800000000003" type="line"/>
      <point x="449.92" y="631.5640000000001" type="line"/>
      <point x="449.92" y="329.82800000000003" type="line"/>
    </contour>
  </outline>
</glyph>
<glyph name="multiply" format="2">
  <advance width="462.14799999999997"/>
  <unicode hex="00D7"/>
  <outline>
    <contour>
      <point x="101.65599999999999" y="89.6" type="line"/>
      <point x="230.936" y="251.634" type="line"/>
      <point x="360.216" y="90.842" type="line"/>
      <point x="408.546" y="139.29" type="line"/>
      <point x="280.998" y="301.57800000000003" type="line"/>
      <point x="408.684" y="465.37" type="line"/>
      <point x="360.354" y="513.818" type="line"/>
      <point x="230.936" y="351.936" type="line"/>
      <point x="101.38" y="514.37" type="line"/>
      <point x="53.050000000000004" y="465.92199999999997" type="line"/>
      <point x="181.164" y="301.57800000000003" type="line"/>
      <point x="53.326" y="138.048" type="line"/>
    </contour>
  </outline>
</glyph>
<glyph name="Oslash" format="2">
  <advance width="691.6800000000001"/>
  <unicode hex="00D8"/>
  <anchor x="343.58000000000004" y="700.0" name="top"/>
  <outline>
    <contour>
      <point x="118.53999999999999" y="-11.24" type="line"/>
      <point x="179.57999999999998" y="74.52" type="line"/>
      <point x="182.67999999999998" y="74.52000000000001" type="line"/>
      <point x="554.34" y="592.88" type="line"/>
      <point x="557.44" y="592.88" type="line"/>
      <point x="643.12" y="713.1" type="line"/>
      <point x="569.38" y="713.1" type="line"/>
      <point x="510.34" y="630.96" type="line"/>
      <point x="506.85999999999996" y="630.58" type="line"/>
      <point x="139.92000000000002" y="117.42" type="line"/>
      <point x="136.82" y="117.42" type="line"/>
      <point x="45.8" y="-11.24" type="line"/>
    </contour>
    <contour>
      <point x="343.58000000000004" y="57.36" type="curve" smooth="yes"/>
      <point x="228.56" y="57.36"/>
      <point x="127.8" y="116.68"/>
      <point x="127.8" y="349.62" type="curve" smooth="yes"/>
      <point x="127.8" y="587.08"/>
      <point x="228.56" y="642.64"/>
      <point x="343.58000000000004" y="642.64" type="curve" smooth="yes"/>
      <point x="458.98" y="642.64"/>
      <point x="560.74" y="587.46"/>
      <point x="560.74" y="349.62" type="curve" smooth="yes"/>
      <point x="560.74" y="113.16000000000001"/>
      <point x="458.98" y="57.36"/>
    </contour>
    <contour>
      <point x="343.58000000000004" y="-10.0" type="curve" smooth="yes"/>
      <point x="519.6199999999999" y="-10.0"/>
      <point x="646.84" y="67.16"/>
      <point x="646.84" y="351.62" type="curve" smooth="yes"/>
      <point x="646.84" y="632.2199999999999"/>
      <point x="518.96" y="710.0"/>
      <point x="343.58000000000004" y="710.0" type="curve" smooth="yes"/>
      <point x="167.20000000000002" y="710.0"/>
      <point x="42.08" y="631.2199999999999"/>
      <point x="42.08" y="349.62" type="curve" smooth="yes"/>
      <point x="42.08" y="71.68"/>
      <point x="169.68" y="-10.0"/>
    </contour>
  </outline>
</glyph>
<glyph name="Thorn" format="2">
  <advance width="615.3059999999999"/>
  <unicode hex="00DE"/>
  <outline>
    <contour>
      <point x="70.38600000000001" y="0.0" type="line"/>
      <point x="156.60199999999998" y="0.0" type="line"/>
      <point x="156.60199999999998" y="153.822" type="line"/>
      <point x="230.626" y="151.06400000000002"/>
      <point x="252.85600000000002" y="150.788"/>
      <point x="319.17999999999995" y="150.788" type="curve" smooth="yes"/>
      <point x="507.168" y="150.788"/>
      <point x="580.086" y="217.626"/>
      <point x="580.086" y="393.83799999999997" type="curve" smooth="yes"/>
      <point x="580.086" y="559.88"/>
      <point x="522.162" y="622.782"/>
      <point x="295.046" y="622.782" type="curve" smooth="yes"/>
      <point x="267.054" y="622.782"/>
      <point x="229.01600000000002" y="621.692"/>
      <point x="156.78799999999998" y="618.532" type="curve"/>
      <point x="156.78799999999998" y="700.0" type="line"/>
      <point x="70.38600000000001" y="700.0" type="line"/>
    </contour>
    <contour>
      <point x="295.97200000000004" y="222.92999999999998" type="curve" smooth="yes"/>
      <point x="243.906" y="222.92999999999998"/>
      <point x="214.62800000000001" y="223.882"/>
      <point x="156.78799999999998" y="225.992" type="curve"/>
      <point x="156.78799999999998" y="547.672" type="line"/>
      <point x="236.202" y="552.176"/>
      <point x="266.736" y="553.142"/>
      <point x="301.03999999999996" y="553.142" type="curve" smooth="yes"/>
      <point x="455.634" y="553.142"/>
      <point x="493.00199999999995" y="507.37399999999997"/>
      <point x="493.00199999999995" y="394.70399999999995" type="curve" smooth="yes"/>
      <point x="493.00199999999995" y="274.28599999999994"/>
      <point x="450.722" y="222.92999999999998"/>
    </contour>
  </outline>
</glyph>
<glyph name="germandbls" format="2">
  <advance width="632.292"/>
  <unicode hex="00DF"/>
  <outline>
    <contour>
      <point x="103.352" y="0.0" type="line"/>
      <point x="186.716" y="0.0" type="line"/>
      <point x="186.716" y="514.0559999999999" type="line" smooth="yes"/>
      <point x="186.716" y="628.256"/>
      <point x="242.5" y="683.012"/>
      <point x="354.86" y="683.012" type="curve" smooth="yes"/>
      <point x="445.296" y="683.012"/>
      <point x="477.74" y="661.104"/>
      <point x="477.74" y="610.248" type="curve" smooth="yes"/>
      <point x="477.74" y="569.2679999999999"/>
      <point x="456.544" y="552.352"/>
      <point x="388.456" y="522.6840000000001" type="curve" smooth="yes"/>
      <point x="314.116" y="492.924"/>
      <point x="277.75199999999995" y="454.452"/>
      <point x="277.75199999999995" y="392.004" type="curve" smooth="yes"/>
      <point x="277.75199999999995" y="313.868"/>
      <point x="313.604" y="276.63599999999997"/>
      <point x="434.4" y="241.20000000000002" type="curve" smooth="yes"/>
      <point x="521.7159999999999" y="211.84"/>
      <point x="549.624" y="193.008"/>
      <point x="549.624" y="142.26" type="curve" smooth="yes"/>
      <point x="549.624" y="83.992"/>
      <point x="492.008" y="55.135999999999996"/>
      <point x="419.252" y="55.135999999999996" type="curve" smooth="yes"/>
      <point x="362.144" y="55.135999999999996"/>
      <point x="304.252" y="67.384"/>
      <point x="252.136" y="83.896" type="curve"/>
      <point x="238.432" y="20.884" type="line"/>
      <point x="294.648" y="0.6360000000000001"/>
      <point x="357.4" y="-10.0"/>
      <point x="419.748" y="-10.0" type="curve" smooth="yes"/>
      <point x="531.792" y="-10.0"/>
      <point x="627.6560000000001" y="38.38"/>
      <point x="627.6560000000001" y="147.468" type="curve" smooth="yes"/>
      <point x="627.6560000000001" y="231.132"/>
      <point x="584.1999999999999" y="271.36400000000003"/>
      <point x="463.14799999999997" y="306.304" type="curve" smooth="yes"/>
      <point x="378.476" y="333.416"/>
      <point x="354.42" y="354.976"/>
      <point x="354.42" y="396.84" type="curve" smooth="yes"/>
      <point x="354.42" y="436.81199999999995"/>
      <point x="381.088" y="451.66"/>
      <point x="432.788" y="473.824" type="curve" smooth="yes"/>
      <point x="518.888" y="511.44399999999996"/>
      <point x="558.7479999999999" y="541.312"/>
      <point x="558.7479999999999" y="610.0" type="curve" smooth="yes"/>
      <point x="558.7479999999999" y="704.22"/>
      <point x="489.38" y="750.0"/>
      <point x="352.884" y="750.0" type="curve" smooth="yes"/>
      <point x="187.472" y="750.0"/>
      <point x="103.608" y="674.3960000000001"/>
      <point x="103.352" y="529.2719999999999" type="curve" smooth="yes"/>
      <point x="103.352" y="492.18399999999997" type="line"/>
      <point x="20.164" y="484.07599999999996" type="line"/>
      <point x="20.164" y="428.412" type="line"/>
      <point x="103.352" y="428.412" type="line"/>
    </contour>
  </outline>
</glyph>
<glyph name="ae" format="2">
  <advance width="819.1400000000001"/>
  <unicode hex="00E6"/>
  <anchor x="417.64" y="536.2" name="top"/>
  <outline>
    <contour>
      <point x="168.06" y="-10.0" type="curve" smooth="yes"/>
      <point x="257.09999999999997" y="-10.0"/>
      <point x="326.8999999999999" y="33.46000000000001"/>
      <point x="386.0" y="87.59999999999998" type="curve"/>
      <point x="387.62" y="87.59999999999998" type="line"/>
      <point x="424.68" y="19.659999999999997"/>
      <point x="483.02000000000004" y="-10.0"/>
      <point x="582.12" y="-10.0" type="curve" smooth="yes"/>
      <point x="663.2200000000001" y="-10.0"/>
      <point x="723.0400000000001" y="0.62"/>
      <point x="778.82" y="18.720000000000002" type="curve"/>
      <point x="767.38" y="84.84" type="line"/>
      <point x="716.94" y="71.22"/>
      <point x="656.5" y="60.839999999999996"/>
      <point x="591.8000000000001" y="60.839999999999996" type="curve" smooth="yes"/>
      <point x="487.06" y="60.839999999999996"/>
      <point x="439.08000000000004" y="98.58"/>
      <point x="437.84000000000003" y="239.01999999999998" type="curve" smooth="yes"/>
      <point x="437.22" y="244.78"/>
      <point x="437.22" y="254.06"/>
      <point x="438.22" y="257.82" type="curve"/>
      <point x="606.14" y="259.68"/>
      <point x="730.66" y="273.44"/>
      <point x="784.1" y="278.44" type="curve"/>
      <point x="784.1" y="288.4"/>
      <point x="785.1" y="300.22"/>
      <point x="785.1" y="313.7" type="curve" smooth="yes"/>
      <point x="785.1" y="475.71999999999997"/>
      <point x="713.62" y="546.2"/>
      <point x="578.92" y="546.2" type="curve" smooth="yes"/>
      <point x="505.54" y="546.2"/>
      <point x="437.94" y="518.78"/>
      <point x="403.6" y="439.19999999999993" type="curve"/>
      <point x="402.59999999999997" y="439.19999999999993" type="line"/>
      <point x="385.0" y="509.6"/>
      <point x="331.58" y="546.2"/>
      <point x="236.54" y="546.2" type="curve" smooth="yes"/>
      <point x="184.72" y="546.2"/>
      <point x="121.18" y="536.34"/>
      <point x="63.83999999999999" y="519.1" type="curve"/>
      <point x="78.14" y="451.12" type="line"/>
      <point x="136.38" y="468.12000000000006"/>
      <point x="191.58" y="474.12000000000006"/>
      <point x="231.33999999999997" y="474.12000000000006" type="curve" smooth="yes"/>
      <point x="312.70000000000005" y="474.12000000000006"/>
      <point x="351.26" y="439.28"/>
      <point x="351.26" y="379.12" type="curve" smooth="yes"/>
      <point x="351.26" y="311.88" type="line"/>
      <point x="132.78" y="291.46"/>
      <point x="29.560000000000002" y="256.11999999999995"/>
      <point x="29.560000000000002" y="128.12000000000003" type="curve" smooth="yes"/>
      <point x="29.560000000000002" y="38.44"/>
      <point x="82.9" y="-10.0"/>
    </contour>
    <contour>
      <point x="194.1" y="49.3" type="curve" smooth="yes"/>
      <point x="146.36" y="49.3"/>
      <point x="114.66" y="78.86"/>
      <point x="114.66" y="135.6" type="curve" smooth="yes"/>
      <point x="114.66" y="224.42000000000002"/>
      <point x="205.70000000000002" y="247.84"/>
      <point x="350.88" y="261.88" type="curve"/>
      <point x="350.88000000000005" y="252.88"/>
      <point x="350.88000000000005" y="242.88"/>
      <point x="350.88000000000005" y="233.26" type="curve" smooth="yes"/>
      <point x="350.88000000000005" y="191.28"/>
      <point x="353.64000000000004" y="158.57999999999998"/>
      <point x="360.15999999999997" y="131.16000000000003" type="curve"/>
      <point x="319.42" y="88.66000000000001"/>
      <point x="254.26" y="49.3"/>
    </contour>
    <contour>
      <point x="438.6" y="309.67999999999995" type="curve"/>
      <point x="439.84000000000003" y="446.34"/>
      <point x="506.66" y="483.8"/>
      <point x="573.82" y="483.8" type="curve" smooth="yes"/>
      <point x="654.78" y="483.8"/>
      <point x="696.9" y="432.91999999999996"/>
      <point x="699.3799999999999" y="323.34" type="curve"/>
      <point x="666.7600000000001" y="319.96000000000004"/>
      <point x="564.2400000000001" y="309.68"/>
    </contour>
  </outline>
</glyph>
<glyph name="eth" format="2">
  <advance width="538.14"/>
  <unicode hex="00F0"/>
  <outline>
    <contour>
      <point x="429.11999999999995" y="433.48" type="curve"/>
      <point x="431.97999999999996" y="493.78000000000003" type="line"/>
      <point x="387.97999999999996" y="522.96"/>
      <point x="336.94" y="532.86"/>
      <point x="274.52" y="532.86" type="curve" smooth="yes"/>
      <point x="112.63999999999999" y="532.86"/>
      <point x="37.08" y="443.14"/>
      <point x="37.08" y="256.14" type="curve" smooth="yes"/>
      <point x="37.08" y="71.1"/>
      <point x="108.66000000000001" y="-10.0"/>
      <point x="255.02" y="-10.0" type="curve" smooth="yes"/>
      <point x="433.2" y="-10.0"/>
      <point x="499.67999999999995" y="80.72"/>
      <point x="499.67999999999995" y="341.54" type="curve" smooth="yes"/>
      <point x="499.67999999999995" y="607.74"/>
      <point x="406.32000000000005" y="724.88"/>
      <point x="207.82" y="724.88" type="curve" smooth="yes"/>
      <point x="152.72" y="724.88"/>
      <point x="104.41999999999999" y="718.02"/>
      <point x="44.94" y="702.7800000000001" type="curve"/>
      <point x="54.519999999999996" y="644.4799999999999" type="line"/>
      <point x="106.76" y="657.0999999999999"/>
      <point x="143.66" y="664.7199999999999"/>
      <point x="190.94" y="664.7199999999999" type="curve" smooth="yes"/>
      <point x="353.7" y="664.7199999999999"/>
      <point x="416.44" y="585.1800000000001"/>
      <point x="416.44" y="343.26" type="curve" smooth="yes"/>
      <point x="416.44" y="120.66"/>
      <point x="372.7" y="56.12"/>
      <point x="263.08" y="56.12" type="curve" smooth="yes"/>
      <point x="168.78" y="56.12"/>
      <point x="123.42" y="111.75999999999999"/>
      <point x="123.42" y="257.14" type="curve" smooth="yes"/>
      <point x="123.42" y="413.3"/>
      <point x="180.38" y="472.70000000000005"/>
      <point x="286.78000000000003" y="472.70000000000005" type="curve" smooth="yes"/>
      <point x="340.52" y="472.70000000000005"/>
      <point x="386.79999999999995" y="462.56"/>
    </contour>
    <contour>
      <point x="175.07999999999998" y="561.88" type="line"/>
      <point x="353.64" y="652.94" type="line"/>
      <point x="359.64" y="658.6600000000001" type="line"/>
      <point x="497.9" y="730.4" type="line"/>
      <point x="409.53999999999996" y="730.4" type="line"/>
      <point x="315.98" y="682.3" type="line"/>
      <point x="311.11999999999995" y="677.58" type="line"/>
      <point x="86.10000000000001" y="561.88" type="line"/>
    </contour>
  </outline>
</glyph>
<glyph name="divide" format="2">
  <advance width="483.2"/>
  <unicode hex="00F7"/>
  <outline>
    <contour>
      <point x="198.624" y="113.648" type="curve" smooth="yes"/>
      <point x="198.624" y="84.008"/>
      <point x="209.468" y="74.328"/>
      <point x="241.6" y="74.328" type="curve" smooth="yes"/>
      <point x="274.504" y="74.328"/>
      <point x="284.576" y="84.008"/>
      <point x="284.576" y="113.648" type="curve" smooth="yes"/>
      <point x="284.576" y="142.668"/>
      <point x="274.27599999999995" y="152.968"/>
      <point x="241.6" y="152.968" type="curve" smooth="yes"/>
      <point x="208.696" y="152.968"/>
      <point x="198.624" y="142.668"/>
    </contour>
    <contour>
      <point x="198.624" y="487.292" type="curve" smooth="yes"/>
      <point x="198.624" y="458.272"/>
      <point x="209.69599999999997" y="447.972"/>
      <point x="241.6" y="447.972" type="curve" smooth="yes"/>
      <point x="274.504" y="447.972"/>
      <point x="284.576" y="458.272"/>
      <point x="284.576" y="487.292" type="curve" smooth="yes"/>
      <point x="284.576" y="516.9319999999999"/>
      <point x="274.504" y="527.232"/>
      <point x="241.6" y="527.232" type="curve" smooth="yes"/>
      <point x="208.696" y="527.232"/>
      <point x="198.624" y="516.9319999999999"/>
    </contour>
    <contour>
      <point x="48.848000000000006" y="265.97999999999996" type="line"/>
      <point x="434.352" y="265.97999999999996" type="line"/>
      <point x="434.352" y="335.58000000000004" type="line"/>
      <point x="48.848000000000006" y="335.58000000000004" type="line"/>
    </contour>
  </outline>
</glyph>
<glyph name="oslash" format="2">
  <advance width="544.9"/>
  <unicode hex="00F8"/>
  <anchor x="271.64" y="536.2" name="top"/>
  <outline>
    <contour>
      <point x="271.64" y="-10.0" type="curve" smooth="yes"/>
      <point x="102.94" y="-10.0"/>
      <point x="37.08" y="74.88"/>
      <point x="37.08" y="269.1" type="curve" smooth="yes"/>
      <point x="37.08" y="457.94"/>
      <point x="95.32000000000001" y="546.2"/>
      <point x="271.64" y="546.2" type="curve" smooth="yes"/>
      <point x="447.72" y="546.2"/>
      <point x="506.5800000000001" y="457.94"/>
      <point x="506.5800000000001" y="269.1" type="curve" smooth="yes"/>
      <point x="506.5800000000001" y="74.88"/>
      <point x="440.72" y="-10.0"/>
    </contour>
    <contour>
      <point x="271.64" y="52.4" type="curve" smooth="yes"/>
      <point x="379.74" y="52.4"/>
      <point x="422.72" y="106.76"/>
      <point x="422.72" y="269.1" type="curve" smooth="yes"/>
      <point x="422.72" y="427.06"/>
      <point x="384.88" y="483.8"/>
      <point x="271.64" y="483.8" type="curve" smooth="yes"/>
      <point x="158.16" y="483.8"/>
      <point x="120.32" y="427.06"/>
      <point x="120.32" y="269.1" type="curve" smooth="yes"/>
      <point x="120.32" y="106.76"/>
      <point x="163.92000000000002" y="52.4"/>
    </contour>
    <contour>
      <point x="36.699999999999996" y="-8.14" type="line"/>
      <point x="107.2" y="88.94000000000001" type="line"/>
      <point x="108.19999999999999" y="88.32" type="line"/>
      <point x="394.46" y="485.0" type="line"/>
      <point x="395.46" y="484.38" type="line"/>
      <point x="440.42" y="546.2" type="line"/>
      <point x="506.9600000000001" y="546.2" type="line"/>
      <point x="432.49999999999994" y="444.3" type="line"/>
      <point x="431.5" y="444.92" type="line"/>
      <point x="148.34" y="53.199999999999996" type="line"/>
      <point x="147.34" y="53.82000000000001" type="line"/>
      <point x="102.0" y="-8.14" type="line"/>
    </contour>
  </outline>
</glyph>
<glyph name="thorn" format="2">
  <advance width="536.006"/>
  <unicode hex="00FE"/>
  <outline>
    <contour>
      <point x="62.67" y="-210.0" type="line"/>
      <point x="145.972" y="-210.0" type="line"/>
      <point x="145.972" y="0.8599999999999999" type="line"/>
      <point x="182.168" y="-6.563999999999998"/>
      <point x="218.578" y="-10.0"/>
      <point x="250.896" y="-10.0" type="curve" smooth="yes"/>
      <point x="425.264" y="-10.0"/>
      <point x="498.12" y="71.654"/>
      <point x="498.12" y="276.684" type="curve" smooth="yes"/>
      <point x="498.12" y="452.688"/>
      <point x="426.4" y="546.2"/>
      <point x="292.60400000000004" y="546.2" type="curve" smooth="yes"/>
      <point x="245.756" y="546.2"/>
      <point x="193.336" y="535.216"/>
      <point x="146.34400000000002" y="517.538" type="curve"/>
      <point x="146.34400000000002" y="740.0" type="line"/>
      <point x="62.67" y="740.0" type="line"/>
    </contour>
    <contour>
      <point x="249.942" y="51.882" type="curve" smooth="yes"/>
      <point x="220.998" y="51.882"/>
      <point x="188.04600000000002" y="56.0"/>
      <point x="146.406" y="65.33999999999999" type="curve"/>
      <point x="146.406" y="454.296" type="line"/>
      <point x="188.608" y="469.278"/>
      <point x="226.47199999999998" y="475.596"/>
      <point x="261.632" y="475.596" type="curve" smooth="yes"/>
      <point x="361.07200000000006" y="475.596"/>
      <point x="412.028" y="408.74600000000004"/>
      <point x="412.028" y="271.04200000000003" type="curve" smooth="yes"/>
      <point x="412.028" y="108.96000000000001"/>
      <point x="364.386" y="51.882"/>
    </contour>
  </outline>
</glyph>
<glyph name="Dcroat" format="2">
  <advance width="663.116"/>
  <unicode hex="0110"/>
  <outline>
    <contour>
      <point x="3.48" y="323.34000000000003" type="line"/>
      <point x="295.90799999999996" y="323.34000000000003" type="line"/>
      <point x="295.90799999999996" y="391.08000000000004" type="line"/>
      <point x="3.48" y="391.08000000000004" type="line"/>
    </contour>
    <component base="D" xOffset="3.456"/>
  </outline>
</glyph>
<glyph name="dcroat" format="2">
  <advance width="539.54"/>
  <unicode hex="0111"/>
  <outline>
    <contour>
      <point x="238.572" y="611.1800000000001" type="line"/>
      <point x="545.856" y="611.1800000000001" type="line"/>
      <point x="545.856" y="662.66" type="line"/>
      <point x="238.572" y="662.66" type="line"/>
    </contour>
    <component base="d"/>
  </outline>
</glyph>
<glyph name="Hbar" format="2">
  <advance width="678.4420000000001"/>
  <unicode hex="0126"/>
  <outline>
    <contour>
      <point x="19.64" y="499.65" type="line"/>
      <point x="70.51" y="499.65" type="line"/>
      <point x="70.51" y="0.0" type="line"/>
      <point x="156.54" y="0.0" type="line"/>
      <point x="156.54" y="269.2100000000001" type="line"/>
      <point x="523.1419999999999" y="269.2100000000001" type="line"/>
      <point x="523.1419999999999" y="0.0" type="line"/>
      <point x="607.9319999999999" y="0.0" type="line"/>
      <point x="607.9319999999999" y="499.65" type="line"/>
      <point x="658.802" y="499.65" type="line"/>
      <point x="658.802" y="560.134" type="line"/>
      <point x="607.9319999999999" y="560.134" type="line"/>
      <point x="607.9319999999999" y="700.0" type="line"/>
      <point x="523.1419999999999" y="700.0" type="line"/>
      <point x="523.1419999999999" y="560.134" type="line"/>
      <point x="156.54" y="560.134" type="line"/>
      <point x="156.54" y="700.0" type="line"/>
      <point x="70.51" y="700.0" type="line"/>
      <point x="70.51" y="560.134" type="line"/>
      <point x="19.64" y="560.134" type="line"/>
    </contour>
    <contour>
      <point x="156.54" y="346.766" type="line"/>
      <point x="156.54" y="499.65" type="line"/>
      <point x="523.1419999999999" y="499.65" type="line"/>
      <point x="523.1419999999999" y="346.766" type="line"/>
    </contour>
  </outline>
</glyph>
<glyph name="hbar" format="2">
  <advance width="543.064"/>
  <unicode hex="0127"/>
  <outline>
    <contour>
      <point x="-5.468000000000001" y="611.1800000000001" type="line"/>
      <point x="314.656" y="611.1800000000001" type="line"/>
      <point x="314.656" y="662.66" type="line"/>
      <point x="-5.468000000000001" y="662.66" type="line"/>
    </contour>
    <component base="h"/>
  </outline>
</glyph>
<glyph name="Idotaccent" format="2">
  <advance width="226.80200000000002"/>
  <unicode hex="0130"/>
  <outline>
    <contour>
      <point x="113.68" y="788.124" type="curve" smooth="yes"/>
      <point x="151.916" y="788.124"/>
      <point x="164.716" y="800.408"/>
      <point x="164.716" y="833.954" type="curve" smooth="yes"/>
      <point x="164.716" y="867.8720000000001"/>
      <point x="151.54399999999998" y="879.97"/>
      <point x="113.68" y="879.97" type="curve" smooth="yes"/>
      <point x="75.63000000000001" y="879.97"/>
      <point x="62.458" y="867.8720000000001"/>
      <point x="62.458" y="833.954" type="curve" smooth="yes"/>
      <point x="62.458" y="800.2220000000001"/>
      <point x="76.32000000000001" y="788.124"/>
    </contour>
    <component base="I"/>
  </outline>
</glyph>
<glyph name="dotlessi" format="2">
  <advance width="209.44799999999998"/>
  <unicode hex="0131"/>
  <anchor x="142.038" y="3.1" name="ogonek"/>
  <anchor x="105.096" y="0.0" name="bottom"/>
  <anchor x="104.72399999999999" y="536.2" name="top"/>
  <outline>
    <contour>
      <point x="62.67" y="0.0" type="line"/>
      <point x="146.778" y="0.0" type="line"/>
      <point x="146.778" y="536.2" type="line"/>
      <point x="62.67" y="536.2" type="line"/>
    </contour>
  </outline>
</glyph>
<glyph name="kgreenlandic" format="2">
  <advance width="504.68"/>
  <unicode hex="0138"/>
  <anchor x="255.98000000000002" y="536.2" name="top"/>
  <anchor x="255.98000000000002" y="0.0" name="bottom"/>
  <outline>
    <contour>
      <point x="473.08000000000004" y="-8.620000000000001" type="curve" smooth="yes"/>
      <point x="483.03999999999996" y="-8.620000000000001"/>
      <point x="491.52" y="-7.239999999999999"/>
      <point x="499.61999999999995" y="-5.62" type="curve"/>
      <point x="497.23999999999995" y="80.72" type="line"/>
      <point x="491.62" y="80.34"/>
      <point x="486.62" y="79.34"/>
      <point x="483.0" y="79.34" type="curve" smooth="yes"/>
      <point x="451.90000000000003" y="79.34"/>
      <point x="420.28000000000003" y="98.86"/>
      <point x="318.1" y="202.45999999999998" type="curve" smooth="yes"/>
      <point x="143.11999999999998" y="380.52" type="line"/>
      <point x="143.11999999999998" y="536.2" type="line"/>
      <point x="62.36" y="536.2" type="line"/>
      <point x="62.36" y="0.0" type="line"/>
      <point x="143.11999999999998" y="0.0" type="line"/>
      <point x="143.11999999999998" y="270.3" type="line"/>
      <point x="298.55999999999995" y="111.78" type="line" smooth="yes"/>
      <point x="405.44" y="1.4800000000000004"/>
      <point x="433.25999999999993" y="-8.620000000000001"/>
    </contour>
    <contour>
      <point x="242.14" y="242.04" type="line"/>
      <point x="323.14" y="314.23999999999995"/>
      <point x="432.18" y="409.4"/>
      <point x="472.12" y="531.58" type="curve"/>
      <point x="388.78" y="540.58" type="line"/>
      <point x="352.56" y="425.08"/>
      <point x="262.4" y="354.04"/>
      <point x="175.58" y="278.36" type="curve"/>
    </contour>
  </outline>
</glyph>
<glyph name="Ldot" format="2">
  <advance width="509.91"/>
  <unicode hex="013F"/>
  <outline>
    <contour>
      <point x="324.096" y="379.966" type="curve" smooth="yes"/>
      <point x="324.096" y="350.326"/>
      <point x="333.99" y="340.15000000000003"/>
      <point x="365.77" y="340.15000000000003" type="curve" smooth="yes"/>
      <point x="398.426" y="340.15000000000003"/>
      <point x="407.63" y="350.326"/>
      <point x="407.63" y="379.966" type="curve" smooth="yes"/>
      <point x="407.63" y="409.916"/>
      <point x="398.426" y="420.092"/>
      <point x="365.77" y="420.092" type="curve" smooth="yes"/>
      <point x="333.3" y="420.092"/>
      <point x="324.096" y="409.916"/>
    </contour>
    <component base="L"/>
  </outline>
</glyph>
<glyph name="ldot" format="2">
  <advance width="290.98"/>
  <unicode hex="0140"/>
  <outline>
    <contour>
      <point x="254.45000000000002" y="332.96600000000007" type="curve" smooth="yes"/>
      <point x="278.85999999999996" y="332.96600000000007"/>
      <point x="286.32800000000003" y="341.28200000000004"/>
      <point x="286.32800000000003" y="368.938" type="curve" smooth="yes"/>
      <point x="286.32800000000003" y="396.78000000000003"/>
      <point x="278.85999999999996" y="405.09600000000006"/>
      <point x="254.45000000000002" y="405.09600000000006" type="curve" smooth="yes"/>
      <point x="230.226" y="405.09600000000006"/>
      <point x="222.75799999999998" y="396.78000000000003"/>
      <point x="222.75799999999998" y="368.938" type="curve" smooth="yes"/>
      <point x="222.75799999999998" y="341.28200000000004"/>
      <point x="230.916" y="332.96600000000007"/>
    </contour>
    <component base="l"/>
  </outline>
</glyph>
<glyph name="Lslash" format="2">
  <advance width="523.008"/>
  <unicode hex="0141"/>
  <outline>
    <contour>
      <point x="17.980000000000004" y="193.92999999999998" type="line"/>
      <point x="83.484" y="238.14" type="line"/>
      <point x="83.484" y="0.0" type="line"/>
      <point x="507.148" y="0.0" type="line"/>
      <point x="507.148" y="76.25399999999999" type="line"/>
      <point x="169.70000000000002" y="76.25399999999999" type="line"/>
      <point x="169.70000000000002" y="282.418" type="line"/>
      <point x="372.752" y="414.96999999999997" type="line"/>
      <point x="372.752" y="492.99399999999997" type="line"/>
      <point x="169.70000000000002" y="360.85599999999994" type="line"/>
      <point x="169.70000000000002" y="700.0" type="line"/>
      <point x="83.484" y="700.0" type="line"/>
      <point x="83.484" y="316.578" type="line"/>
      <point x="17.980000000000004" y="272.368" type="line"/>
    </contour>
  </outline>
</glyph>
<glyph name="lslash" format="2">
  <advance width="272.75200000000007"/>
  <unicode hex="0142"/>
  <outline>
    <contour>
      <point x="183.106" y="-10.0" type="curve" smooth="yes"/>
      <point x="215.762" y="-10.0"/>
      <point x="248.61200000000002" y="-2.6239999999999997"/>
      <point x="274.356" y="6.2139999999999995" type="curve"/>
      <point x="265.52" y="76.826" type="line"/>
      <point x="244.176" y="71.522"/>
      <point x="225.072" y="68.09400000000001"/>
      <point x="208.71200000000002" y="68.09400000000001" type="curve" smooth="yes"/>
      <point x="175.678" y="68.09400000000001"/>
      <point x="149.878" y="83.332"/>
      <point x="149.878" y="165.454" type="curve" smooth="yes"/>
      <point x="149.878" y="294.05" type="line"/>
      <point x="247.49999999999997" y="380.59399999999994" type="line"/>
      <point x="247.49999999999997" y="451.59999999999997" type="line"/>
      <point x="149.878" y="365.056" type="line"/>
      <point x="149.878" y="740.0" type="line"/>
      <point x="66.328" y="740.0" type="line"/>
      <point x="66.328" y="306.326" type="line"/>
      <point x="10.302000000000003" y="256.694" type="line"/>
      <point x="10.302000000000003" y="186.102" type="line"/>
      <point x="66.57600000000001" y="235.444" type="line"/>
      <point x="66.824" y="146.172" type="line" smooth="yes"/>
      <point x="68.932" y="21.638"/>
      <point x="112.21000000000001" y="-10.0"/>
    </contour>
  </outline>
</glyph>
<glyph name="Eng" format="2">
  <advance width="670.09"/>
  <unicode hex="014A"/>
  <outline>
    <contour>
      <point x="70.60000000000001" y="0.0" type="line"/>
      <point x="148.57" y="0.0" type="line"/>
      <point x="148.57" y="561.84" type="line"/>
      <point x="517.8" y="1.62" type="line"/>
      <point x="517.8" y="-9.59" type="line" smooth="yes"/>
      <point x="516.42" y="-80.86"/>
      <point x="466.29999999999995" y="-108.42"/>
      <point x="389.45" y="-108.42" type="curve" smooth="yes"/>
      <point x="362.16999999999996" y="-108.42"/>
      <point x="329.20000000000005" y="-104.35000000000001"/>
      <point x="301.34000000000003" y="-98.11" type="curve"/>
      <point x="288.49" y="-166.08999999999997" type="line"/>
      <point x="320.07000000000005" y="-175.19"/>
      <point x="360.54999999999995" y="-182.05"/>
      <point x="401.23" y="-182.05" type="curve" smooth="yes"/>
      <point x="527.5" y="-182.05"/>
      <point x="599.49" y="-124.02000000000001"/>
      <point x="599.49" y="-11.24" type="curve" smooth="yes"/>
      <point x="599.49" y="700.0" type="line"/>
      <point x="522.14" y="700.0" type="line"/>
      <point x="522.14" y="134.44" type="line"/>
      <point x="150.84" y="702.76" type="line"/>
      <point x="70.60000000000001" y="702.76" type="line"/>
    </contour>
  </outline>
</glyph>
<glyph name="eng" format="2">
  <advance width="542.6920000000001"/>
  <unicode hex="014B"/>
  <outline>
    <contour>
      <point x="480.394" y="17.75" type="curve"/>
      <point x="480.394" y="400.36600000000004" type="line" smooth="yes"/>
      <point x="480.394" y="493.436"/>
      <point x="428.104" y="546.2"/>
      <point x="331.182" y="546.2" type="curve" smooth="yes"/>
      <point x="259.136" y="546.2"/>
      <point x="203.112" y="523.412"/>
      <point x="139.4" y="489.13800000000003" type="curve"/>
      <point x="139.4" y="536.2" type="line"/>
      <point x="62.67" y="536.2" type="line"/>
      <point x="62.67" y="0.0" type="line"/>
      <point x="146.406" y="0.0" type="line"/>
      <point x="146.406" y="430.00800000000004" type="line"/>
      <point x="198.32600000000002" y="456.328"/>
      <point x="243.478" y="474.88599999999997"/>
      <point x="297.96600000000007" y="474.88599999999997" type="curve" smooth="yes"/>
      <point x="364.836" y="474.88599999999997"/>
      <point x="396.658" y="439.13"/>
      <point x="396.658" y="375.814" type="curve" smooth="yes"/>
      <point x="396.658" y="16.026" type="line" smooth="yes"/>
      <point x="396.658" y="-58.986"/>
      <point x="378.026" y="-104.46600000000001"/>
      <point x="343.336" y="-126.54599999999999" type="curve" smooth="yes"/>
      <point x="336.336" y="-130.27200000000002"/>
      <point x="328.282" y="-132.874"/>
      <point x="320.282" y="-134.786" type="curve"/>
      <point x="322.924" y="-209.16400000000002" type="line"/>
      <point x="337.484" y="-207.664"/>
      <point x="351.754" y="-204.26799999999997"/>
      <point x="366.154" y="-200.128" type="curve" smooth="yes"/>
      <point x="438.104" y="-175.15"/>
      <point x="480.394" y="-100.60199999999999"/>
    </contour>
  </outline>
</glyph>
<glyph name="OE" format="2">
  <advance width="990.904"/>
  <unicode hex="0152"/>
  <outline>
    <contour>
      <point x="964.22" y="0.0" type="line"/>
      <point x="964.22" y="77.03999999999999" type="line"/>
      <point x="589.832" y="77.03999999999999" type="line"/>
      <point x="589.832" y="326.28000000000003" type="line"/>
      <point x="923.208" y="326.28000000000003" type="line"/>
      <point x="923.208" y="402.70000000000005" type="line"/>
      <point x="589.832" y="402.70000000000005" type="line"/>
      <point x="589.832" y="623.58" type="line"/>
      <point x="946.3720000000001" y="623.58" type="line"/>
      <point x="946.3720000000001" y="700.0" type="line"/>
      <point x="580.5319999999999" y="700.0" type="line"/>
      <point x="504.72400000000005" y="704.3919999999999"/>
      <point x="428.01599999999996" y="707.3919999999999"/>
      <point x="357.352" y="707.3919999999999" type="curve" smooth="yes"/>
      <point x="167.04800000000003" y="707.3919999999999"/>
      <point x="43.308" y="624.9839999999999"/>
      <point x="43.308" y="353.392" type="curve" smooth="yes"/>
      <point x="43.308" y="62.248000000000005"/>
      <point x="180.276" y="-8.468"/>
      <point x="366.73199999999997" y="-8.468" type="curve" smooth="yes"/>
      <point x="440.99199999999996" y="-8.468"/>
      <point x="510.228" y="-5.24"/>
      <point x="589.832" y="0.0" type="curve"/>
    </contour>
    <contour>
      <point x="502.87199999999996" y="67.448" type="line"/>
      <point x="472.072" y="65.448"/>
      <point x="416.69999999999993" y="62.14399999999999"/>
      <point x="366.04" y="62.14399999999999" type="curve" smooth="yes"/>
      <point x="241.876" y="62.14399999999999"/>
      <point x="133.12800000000001" y="108.928"/>
      <point x="133.12800000000001" y="352.0" type="curve" smooth="yes"/>
      <point x="133.12800000000001" y="589.78"/>
      <point x="242.94" y="637.628"/>
      <point x="359.128" y="637.628" type="curve" smooth="yes"/>
      <point x="390.392" y="637.628"/>
      <point x="476.60799999999995" y="633.4"/>
      <point x="502.87199999999996" y="631.704" type="curve"/>
    </contour>
  </outline>
</glyph>
<glyph name="oe" format="2">
  <advance width="905.2220000000001"/>
  <unicode hex="0153"/>
  <outline>
    <contour>
      <point x="37.885999999999996" y="269.286" type="curve" smooth="yes"/>
      <point x="37.885999999999996" y="74.446"/>
      <point x="103.684" y="-10.0"/>
      <point x="273.01199999999994" y="-10.0" type="curve" smooth="yes"/>
      <point x="379.202" y="-10.0"/>
      <point x="435.706" y="28.514000000000003"/>
      <point x="464.03" y="106.024" type="curve"/>
      <point x="496.8960000000001" y="31.204"/>
      <point x="559.9200000000001" y="-10.0"/>
      <point x="654.836" y="-10.0" type="curve" smooth="yes"/>
      <point x="737.362" y="-10.0"/>
      <point x="808.432" y="1.3800000000000003"/>
      <point x="863.91" y="18.852" type="curve"/>
      <point x="853.028" y="84.53800000000001" type="line"/>
      <point x="798.31" y="71.05"/>
      <point x="725.186" y="58.972"/>
      <point x="663.338" y="58.972" type="curve" smooth="yes"/>
      <point x="568.638" y="58.972"/>
      <point x="507.13800000000003" y="103.852"/>
      <point x="507.13800000000003" y="228.538" type="curve" smooth="yes"/>
      <point x="507.13800000000003" y="237.57"/>
      <point x="507.014" y="250.982"/>
      <point x="507.89" y="262.014" type="curve"/>
      <point x="676.3059999999999" y="263.564"/>
      <point x="816.672" y="276.068"/>
      <point x="869.624" y="280.13" type="curve"/>
      <point x="869.934" y="289.71799999999996"/>
      <point x="870.934" y="301.654"/>
      <point x="870.934" y="315.328" type="curve" smooth="yes"/>
      <point x="870.934" y="474.388"/>
      <point x="803.074" y="546.2"/>
      <point x="662.568" y="546.2" type="curve" smooth="yes"/>
      <point x="572.464" y="546.2"/>
      <point x="504.346" y="501.81800000000004"/>
      <point x="470.014" y="420.61" type="curve"/>
      <point x="441.334" y="504.17400000000004"/>
      <point x="385.908" y="546.2"/>
      <point x="273.01199999999994" y="546.2" type="curve" smooth="yes"/>
      <point x="96.55999999999999" y="546.2"/>
      <point x="37.885999999999996" y="458.126"/>
    </contour>
    <contour>
      <point x="123.358" y="269.16200000000003" type="curve" smooth="yes"/>
      <point x="123.358" y="424.642"/>
      <point x="160.888" y="481.19599999999997"/>
      <point x="272.888" y="481.19599999999997" type="curve" smooth="yes"/>
      <point x="383.826" y="481.19599999999997"/>
      <point x="421.418" y="424.642"/>
      <point x="421.418" y="269.16200000000003" type="curve" smooth="yes"/>
      <point x="421.418" y="109.30199999999999"/>
      <point x="379.19000000000005" y="55.19"/>
      <point x="272.888" y="55.19" type="curve" smooth="yes"/>
      <point x="166.4" y="55.19"/>
      <point x="123.358" y="109.30199999999999"/>
    </contour>
    <contour>
      <point x="508.51800000000003" y="311.75800000000004" type="curve"/>
      <point x="522.2320000000001" y="452.704"/>
      <point x="591.4939999999999" y="484.606"/>
      <point x="660.026" y="484.606" type="curve" smooth="yes"/>
      <point x="741.676" y="484.606"/>
      <point x="784.8420000000001" y="439.998"/>
      <point x="786.7020000000001" y="323.852" type="curve"/>
      <point x="754.5079999999999" y="319.906"/>
      <point x="637.7" y="311.882"/>
    </contour>
  </outline>
</glyph>
